<svg xmlns="http://www.w3.org/2000/svg" xmlns:xlink="http://www.w3.org/1999/xlink" xml:space="preserve" id="FONDO" x="0" y="0" style="enable-background:new 0 0 1964.6 1133.3" version="1.1" viewBox="0 0 1964.6 1133.3"><style>.st0{fill:#ff68ff}.st1{fill:#ffed02}.st2{fill:#60ffd4}.st3{fill:#fff}</style><switch><g><path d="M0 0h1964.6v1133.3H0V0z"/><path d="m312.5 1011-.1-3.3c0-.4-.1-1.7-.2-2.2-.6-3.3-2.9-6.1-6.1-7.6l-5-2.3 5.5.5c3.5.3 6.9-1.1 9.1-3.6.3-.4 1-1.5 1.2-1.8l1.7-2.8.1 3.3c0 .4.1 1.7.2 2.2.6 3.3 2.9 6.1 6.1 7.6l5 2.3-5.5-.5c-3.5-.3-6.9 1.1-9.1 3.6-.3.4-1 1.5-1.2 1.8l-1.7 2.8zm-2.8-13.2c2.2 1.8 3.8 4.3 4.4 7.1 1.9-2.1 4.5-3.5 7.3-4-2.2-1.8-3.8-4.3-4.4-7.1-1.9 2.2-4.4 3.5-7.3 4zM1608 111.6l-.1-3.3c0-.4-.1-1.7-.2-2.2-.6-3.3-2.9-6.1-6.1-7.6l-5-2.3 5.5.4c3.5.3 6.9-1.1 9.1-3.6.3-.4 1-1.5 1.2-1.8l1.7-2.8.1 3.3c0 .4.1 1.7.2 2.2.6 3.3 2.9 6.1 6.1 7.6l5 2.3-5.5-.4c-3.5-.3-6.9 1.1-9.1 3.6-.3.4-1 1.5-1.2 1.8l-1.7 2.8zm-2.8-13.2c2.2 1.8 3.8 4.3 4.4 7.1 1.9-2.1 4.4-3.5 7.3-4-2.2-1.8-3.8-4.3-4.4-7.1-1.8 2.1-4.4 3.5-7.3 4z" class="st0"/><path d="m1893.7 641.8-.1-3.3c0-.4-.1-1.7-.2-2.2-.6-3.3-2.9-6.1-6.1-7.6l-5-2.3 5.5.5c3.5.3 6.9-1.1 9.1-3.6.3-.4 1-1.5 1.2-1.8l1.7-2.8.1 3.3c0 .4.1 1.7.2 2.2.6 3.3 2.9 6.1 6.1 7.6l5 2.3-5.5-.5c-3.5-.3-6.9 1.1-9.1 3.6-.3.4-1 1.5-1.2 1.8l-1.7 2.8zm-2.7-13.1c2.2 1.8 3.8 4.3 4.4 7.1 1.9-2.1 4.4-3.5 7.3-4-2.2-1.8-3.8-4.3-4.4-7.1-1.9 2.1-4.5 3.5-7.3 4z" class="st1"/><path d="m48.1 249.8-1.9-4c-.2-.5-.7-1.4-.9-1.7-1.5-2.3-3.8-3.4-6.2-3.1l-5.8.9 5.2-3.5c2.1-1.4 3.6-4.1 4-7.1 0-.4.1-1.4.1-2v-4.8l1.9 4c.2.5.7 1.4.9 1.7 1.5 2.3 3.8 3.4 6.2 3.1l5.8-.9-5.2 3.5c-2.1 1.4-3.6 4.1-4 7.1 0 .4-.1 1.5-.1 2v4.8zm-6-11.3c1.6.5 3.1 1.5 4.3 3 .4-2.1 1.2-4.1 2.4-5.6-1.6-.5-3.1-1.5-4.3-3-.4 2.1-1.3 4.1-2.4 5.6z" class="st0"/><path d="m374.8 66.4.8-3.6c.1-.4.3-1.2.3-1.5.2-2.3-.9-4.5-2.7-5.8l-4.6-3.2 5.6 1.3c2.3.5 4.8-.1 6.6-1.6.2-.2.8-.8 1.1-1.2l2.5-2.8-.8 3.6c-.1.4-.3 1.2-.3 1.5-.2 2.3.9 4.5 2.7 5.8l4.6 3.2-5.6-1.3c-2.3-.5-4.8.1-6.6 1.6-.2.2-.8.8-1.1 1.2l-2.5 2.8zm1.7-10.5c.9 1.3 1.4 2.9 1.4 4.5 1.4-1 3.1-1.6 4.7-1.8-.9-1.3-1.4-2.9-1.4-4.5-1.4 1-3 1.6-4.7 1.8z" class="st2"/><path d="M40.7 952.5c-.1-.2-.3-.7-.4-.9-.7-1.2-2-2.1-3.4-2.2l-3.4-.4 3.2-.9c1.3-.4 2.3-1.4 2.7-2.7 0-.2.1-.7.1-.9l.2-2.2.9 2.1c.1.3.3.7.4.9.7 1.2 2 2.1 3.4 2.2l3.4.4-3.2.9c-1.3.4-2.3 1.4-2.7 2.7 0 .2-.1.7-.1.9l-.2 2.2-.9-2.1zm-.4-6.2c-.3.9-.9 1.7-1.7 2.3.9.4 1.7 1.1 2.3 1.9.3-.9.9-1.7 1.7-2.3-.9-.4-1.7-1-2.3-1.9z" class="st3"/><path d="M1910.7 49.9c-.1-.2-.3-.7-.4-.9-.7-1.2-2-2.1-3.4-2.2l-3.4-.4 3.2-.9c1.3-.4 2.3-1.4 2.7-2.7.1-.2.1-.7.1-.9l.2-2.2.9 2.1c.1.3.3.7.4.9.7 1.2 2 2.1 3.4 2.2l3.4.4-3.2.9c-1.3.4-2.3 1.4-2.7 2.7-.1.2-.1.7-.1.9l-.2 2.2-.9-2.1zm-.4-6.2c-.3.9-.9 1.7-1.7 2.3.9.4 1.7 1.1 2.3 1.9.3-.9.9-1.7 1.7-2.3-.9-.4-1.7-1.1-2.3-1.9z" class="st2"/><circle cx="144.1" cy="180.4" r="2.9" class="st3"/><circle cx="51.6" cy="60.1" r="2.9" class="st3"/><circle cx="83" cy="439.2" r="2.9" class="st3"/><circle cx="80.1" cy="787.5" r="2.9" class="st3"/><circle cx="330" cy="1105.9" r="2.9" class="st3"/><circle cx="241.2" cy="1061.4" r="2.9" class="st3"/><circle cx="33.5" cy="528.2" r="2.4" class="st3" transform="rotate(-1.45 33.534 528.217) scale(1.00002)"/><circle cx="80.1" cy="1044.5" r="2.4" class="st3"/><circle cx="53" cy="316.4" r="1.5" class="st3"/><circle cx="55.9" cy="341.1" r="1.5" class="st3"/><circle cx="257.6" cy="956" r="1.5" class="st3"/><circle cx="271.4" cy="45.8" r="1.9" class="st3"/><circle cx="229.5" cy="131.9" r="1" class="st3"/><circle cx="466.4" cy="31.1" r="1" class="st3"/><circle cx="1808.6" cy="938.2" r="2.9" class="st3"/><path d="M1758.1 1018.7c1.6 0 2.9 1.3 2.9 2.9s-1.3 2.9-2.9 2.9-2.9-1.3-2.9-2.9 1.3-2.9 2.9-2.9z" class="st3"/><circle cx="1901.1" cy="1058.5" r="2.9" class="st3"/><circle cx="1790" cy="754.8" r="1.4" class="st3"/><circle cx="1899.1" cy="826.7" r="1.4" class="st3"/><circle cx="1684.2" cy="1090" r="2.9" class="st3"/><circle cx="1872.6" cy="331.2" r="2.9" class="st3"/><circle cx="1515.8" cy="11.6" r="2.9" class="st3"/><circle cx="1672.5" cy="60.1" r="2.9" class="st3"/><circle cx="1767.3" cy="850" r="2.9" class="st3"/><circle cx="1904.8" cy="702.6" r="2.4" class="st3"/><circle cx="1909.4" cy="523.3" r="2.4" class="st3"/><circle cx="1917.8" cy="454.8" r="2.4" class="st3"/><circle cx="1867.2" cy="644.8" r="1.4" class="st3"/><circle cx="1888.6" cy="374.3" r="1.4" class="st3"/><circle cx="1930.5" cy="262" r="1.4" class="st3"/><circle cx="1750.9" cy="190.1" r="1.4" class="st3"/><circle cx="1561.6" cy="63.1" r="1.4" class="st3"/><circle cx="1723.2" cy="986.7" r="1" class="st3"/><path d="M1812.9 112.3c-10.4-9.8-18.6-22-29.1-31.7 11.3 3.9 22.3 8.4 33.1 13.6.5-14.3 2-28.5 4.6-42.6 4.2 13 8.3 26 12.5 39 9.4-8.5 19.4-16.4 29.7-23.7-7.6 9.2-14.3 19.2-19.9 29.8 16.5-3.1 33.3-5 50.1-5.7-14.7 4.6-28.9 10.8-42.3 18.3 12.2 4.5 23.5 11.4 33.1 20.3-11.7-3.1-23.7-4.7-35.7-5l24.4 32c-11-5.1-21-12-29.6-20.4l-1-.7 4.2 24.5c1.5 8.7 3 17.6 1.5 26.3-9.2-16-16.4-33-21.3-50.7-7.2 14.4-15.2 28.4-24.1 41.9-.9-7.9 1.1-15.8 3.2-23.4 1.8-6.6 3.6-13.3 5.3-19.9-13.6 7.5-27.2 15.1-41.8 20.2 10.4-11.2 21.5-21.7 33.2-31.4l-40-7.9c16.9-1.9 34-2.6 51.1-2.2" style="fill:#ffec00"/><defs><path id="SVGID_1_" d="M1812.9 112.3c-10.4-9.8-18.6-22-29.1-31.7 11.3 3.9 22.3 8.4 33.1 13.6.5-14.3 2-28.5 4.6-42.6 4.2 13 8.3 26 12.5 39 9.4-8.5 19.4-16.4 29.7-23.7-7.6 9.2-14.3 19.2-19.9 29.8 16.5-3.1 33.3-5 50.1-5.7-14.7 4.6-28.9 10.8-42.3 18.3 12.2 4.5 23.5 11.4 33.1 20.3-11.7-3.1-23.7-4.7-35.7-5l24.4 32c-11-5.1-21-12-29.6-20.4l-1-.7 4.2 24.5c1.5 8.7 3 17.6 1.5 26.3-9.2-16-16.4-33-21.3-50.7-7.2 14.4-15.2 28.4-24.1 41.9-.9-7.9 1.1-15.8 3.2-23.4 1.8-6.6 3.6-13.3 5.3-19.9-13.6 7.5-27.2 15.1-41.8 20.2 10.4-11.2 21.5-21.7 33.2-31.4l-40-7.9c16.9-1.9 34-2.6 51.1-2.2"/></defs><clipPath id="SVGID_2_"><use xlink:href="#SVGID_1_" style="overflow:visible"/></clipPath><g style="clip-path:url(#SVGID_2_)"><g style="opacity:.7"><path d="M1831.6 133v-.2c-.1-.1-.2-.2-.3-.2v.2l.1-.2c-.2-.1-.4 0-.4.2l.2.1c.1.1.1.2.3.2v-.1h.1zm15 16.9-.2-.1c-.1 0-.1-.1-.2-.1v.1l-.2-.1c-.1.2.1.4.3.4l.1-.2-.1.2h.2s0-.1.1-.2zm5.2-41-.2-.2h-.3c-.1 0-.2-.1-.3 0v.3l.1.1c.1.1.2.2.4.2l.2-.1.1-.3zm28.4 4v-.2c-.1-.1-.3-.3-.5-.3-.1 0-.2.1-.2.2l.1.2v-.1l.1.2c.3.4.5.1.5 0zm-6.5 11.6c.2-.1.3-.2.4-.4.1-.2 0-.5-.2-.6l-.2-.1-.3.1-.2.2v.1c-.1.4.1.6.2.7h.3zm-6.5-8.3.3-.1c0-.1 0-.2-.1-.3-.1-.1-.1-.1-.2-.1l-.2.2v.1c-.1-.1-.2.1.2.2zm-3.8-11.1v-.3c-.1-.1-.2-.1-.3 0-.1 0-.2.1-.2.3v.1l.1.2c.1 0 .1 0 .1.1l.3-.1v-.3zm24.4 22.2.2-.1.1-.1.2-.2-.1-.3c-.1-.1-.3-.1-.4 0s-.2.1-.2.2c0 .2 0 .4.2.5zm-5.7-5.8c.1-.2-.1-.4-.2-.4l-.2.1s-.1.1-.1.2v.1l.1.2c.1.1.2.1.3 0 0 0 .1-.1.1-.2zm-45.3 24.6c.1 0 .2-.1.3-.2l-.1-.3c-.2 0-.5.1-.6.3 0 .1 0 .2.1.3l.3-.1zm18 4.5c.2.1.3.3.7.3.2 0 .5-.2.6-.4v-.3l-.1-.2-.1-.2v-.1c-.1-.2-.2-.5-.6-.6-.2-.1-.5 0-.7.1l-.2.4v.3h-.1c.2.4.3.6.5.7zm-11-13.2c.1 0 .3-.2.3-.4 0-.1.1-.4-.3-.6h-.2l-.3.1s-.2.1-.2.3v.3l.1.2.1.1h.5zm27.4 19.5.1-.1c.1-.4-.1-.6-.2-.8l-.1-.1h-.3c-.2.1-.3.2-.3.4s0 .3.1.5c.1.1.3.2.5.3h.2v-.2zm2.4-9.6c.1 0 .1-.1.2-.2v-.2l-.1-.3c0-.1-.1-.1-.2-.2h-.2l-.3.1-.2.2v.2l.1.3.2.2h.2l.3-.1zm-30.2-4.5.2-.2v-.2l-.1-.3c-.1-.1-.3-.2-.4-.2h-.2l-.2.1-.1.1-.1.2v.2l.1.2.1.1h.7zm-3.7 13.4c.2 0 .3 0 .4-.1l-.1-.3s-.1 0-.1-.1l-.3.1-.1.1c-.1.1-.2.1-.2.2 0 0 0 .2.1.3l.3-.2c.1 0 0 0 0 0zm30.6 9.6c.1-.2 0-.4-.2-.5l-.3.1c-.1 0-.1.1-.2.2l.1.3c0 .1.1.1.2.2h.2c.1 0 .2-.1.2-.3zm-21.7-6.4c-.2-.1-.4 0-.4.2l.1.2h.1c.1.1.2.1.3.1l.2-.1c.1-.1 0-.3-.3-.4zm7.1-3.6.2.2.2.1c.3.1.6 0 .7-.2v-.3c0-.4-.2-.5-.3-.6h-.3c-.3 0-.5.1-.6.4v.4h.1zm-4.4-.7v-.2l-.1-.3-.1-.1c-.2-.1-.4-.1-.7 0-.1.1-.2.2-.3.4v.1l.1.2.2.2.2.1c0-.1.4-.1.7-.4zm3.1 11.9c-.2-.2-.5-.4-.6-.7l-.3.1c0 .2.2.6.4.8.2.1.3.2.5.1v-.3zm7.6-4.9-.1-.3h-.1c-.1-.1-.2-.1-.3-.1l-.2.1v.1c-.1.2 0 .4.2.5l.3-.1.2-.2zm-7.3-33.3c.1 0 .3-.1.4-.2h.2l.2-.1h.1s.2-.1.2-.3v-.4l-.1-.3-.1-.1c-.1-.2-.3-.3-.6-.3l-.3.1-.2.1-.1.1-.3.1-.2.2-.2.3c-.1.5.1.8.4.9h.4l.2-.1zm9.9-3.6c0-.2 0-.3-.1-.4s-.2-.2-.4-.2h-.1l-.1.1-.2.1-.1.2v.5l.1.1c.1.2.3.2.5.2.2-.2.4-.4.4-.6zm5.6 7.7v-.5l-.1-.2-.1-.1-.2-.1-.4-.1-.3.1-.2.1-.2.3-.1.5.1.3.1.2.3.2c.4.1 1-.2 1.1-.7zm-11.6-2.5.2-.1.2-.3c.2-.6-.3-1-.4-1.1l-.1-.1-.3-.1h-.2l-.3.1c-.2.1-.3.3-.4.5-.1.3 0 .6.2.8s.5.4.8.4l.3-.1zm-16.6-12.1-.1-.3-.5-.1-.2.2c.1.2.1.3.1.4s0 .3.1.5l.2.1c.2-.1.3-.2.3-.5 0-.1 0-.2.1-.3zm41.5 25.7.1.3.3-.5-.4.2zm-25.6-5.4.1.2.3.2h.5l.3-.1c.1 0 .2-.1.2-.3v-.4l-.1-.3-.1-.1c-.1-.1-.2-.3-.6-.3l-.3.1-.2.1-.2.2-.1.2.2.5zm-5-.2h.2l.2-.1c.2-.1.3-.3.4-.5.1-.3 0-.6-.1-.8l-.3-.2-.2-.1h-.3c-.3.1-.4.3-.5.6 0 .2-.1.6.4.9l.2.2zm-10.7-5.8c0-.1-.1-.1-.2-.1l-.2.2c-.1 0-.2.1-.2.2v.1l.1.2c.1.1.3.1.4 0 0-.1.2-.4.1-.6zm3.2-2.8c.1-.2 0-.4-.1-.5s-.3-.2-.5-.1l-.1.1-.2.1-.1.1-.1.2v.1l.1.2.1.1c.2.1.3.2.5.1s.4-.2.4-.4zm15.3-15.9c0-.1.1-.3 0-.4s-.2-.1-.3-.1h-.1l-.2.2c-.1.2.1.4.2.5l.4-.2c0 .1 0 .1 0 0zm-7.6 30 .1-.2.1-.2c0-.4-.2-.7-.3-.9l-.2-.2-.2-.1h-.3c-.3.1-.6.3-.6.6-.1.3 0 .7.3 1 .3.2.6.3.9.1l.2-.1zm23.6-4.7.3-.1.1-.1v-.1c0-.2 0-.3-.1-.5-.2-.2-.4-.3-.6-.3h-.2l-.2.1-.1.1v.1c-.1.2-.1.4 0 .6l.1.1.1.1h.1c.2.1.4 0 .5 0zm-14.6.7c-.1 0-.2.1-.4.3v.4l.1.3.3.3.2.1.4-.1.2-.2.2-.3c.1-.6-.3-.9-.4-.9h-.3l-.3.1zm-19.9 31 .2-.2-.2-.1v-.1c-.1-.1-.2 0-.3 0v.1l-.2-.1c0 .1 0 .3.2.3 0 .2.2.2.3.1zm20.1-19 .3-.1.2-.1.2-.2c0-.1.1-.1.1-.2.2-.6-.1-1-.4-1.2l-.2-.1h-.2l-.2.1c-.2.1-.3.3-.4.6s0 .6.1.8c0 .2.2.4.5.4zm-8.9-31.2.2-.2v-.2l-.1-.3c0-.1-.1-.1-.2-.2h-.2l-.3.1-.2.2v.2l.1.3.2.2h.2l.3-.1zm27 34.6v.1c.1.2.3.3.5.2.2 0 .3-.1.3-.2v-.1c-.1-.1-.3-.3-.5-.2-.1 0-.2.1-.3.2zm.4-27.3v-.2c-.1-.2-.3-.2-.5-.3l-.2.1v.1c-.1.2.1.4.3.5.2.1.3 0 .4-.2zm-52.2 19.4c0-.1-.1-.1-.2-.1h-.3l.1.2-.1-.2c-.2.1-.3.3-.2.4l.2-.1c.1 0 .2 0 .3-.1v-.1h.2zm22.4 2.7-.2.1c-.1.1-.2 0-.3 0v.1l-.2.1c.1.2.3.2.5.1l-.1-.2.1.2c.1 0 .1-.1.2-.1.1-.1.1-.2 0-.3zm-23.5-34-.3-.1c-.1.1-.2.1-.2.2-.1.1-.2.1-.2.2l.2.2h.1c.1 0 .3 0 .5-.1l.1-.2-.2-.2zm23.9-16c-.2-.1-.5-.1-.7 0-.1.1-.1.2-.1.3l.2.1h-.1l.2.1c.6-.1.5-.4.5-.5zm2.8 12.9c.1-.2.1-.4 0-.5-.1-.2-.3-.3-.6-.3l-.2.1-.2.3v.2l.1.1c.2.4.5.4.6.3l.1-.1c.1.1.2-.1.2-.1zm-10.4-1.8.1-.3c0-.1-.1-.2-.2-.2s-.2 0-.3.1v.4c0 .1.2.3.4.2v-.2zm-10.2-5.7-.2-.2c-.1.1-.2.1-.3.2v.4l.2.1h.2l.2-.3c.1-.1 0-.2-.1-.2zm33 .3.1-.2v-.4l-.2-.2-.3.3v.3c0 .1.2.2.4.2zm-8.1-.6c-.1-.2-.3-.2-.5-.2l-.1.2v.1c0 .1 0 .2.1.3 0 0 0 .1.1.1l.2.1c.1 0 .2-.1.3-.2 0-.2 0-.3-.1-.4zm-17.4 48.6c0-.1.1-.2.1-.4l-.3-.1c-.2.1-.3.4-.2.6.1.1.2.1.3.1l.1-.2zm16.4-8.7c.2 0 .5 0 .7-.2s.2-.4.2-.7l-.2-.2-.2-.1-.2-.1h-.1c-.2-.1-.5-.2-.9 0-.2.1-.4.3-.4.6l.2.4.2.2v.1c.3.1.6 0 .7 0zm-17-2.5c.1-.1.1-.3 0-.5 0-.1-.2-.4-.6-.3l-.2.1-.2.3c0 .1 0 .2.1.4l.1.1.1.1.2.1h.2l.2-.1.1-.1v-.1zm33.5-3.7v-.2c-.2-.4-.5-.4-.7-.4h-.1l-.2.1-.1.1c-.1.2-.1.4 0 .5s.2.3.4.3.4 0 .5-.1l.1-.1.1-.2zm-4.6-8.8v-.3l-.1-.1-.3-.1h-.3l-.2.1-.2.3v.3l.1.1.3.2h.3l.1-.1.3-.4zm-25.6 16.7v-.3l-.1-.1-.3-.2c-.1 0-.3-.1-.5.1l-.1.1-.1.2v.1l.1.2.1.1.3.1h.2l.2-.1.1-.1.1-.1zm6.3 12.6s0-.1 0 0c.1-.1.2-.2.2-.4l-.3-.1h-.2l-.2.2v.4s.1.2.3.1l.2-.2zm29.2-13.3c-.1-.2-.3-.3-.5-.2l-.1.3c0 .1-.1.1 0 .2l.3.2c.1 0 .1.1.2 0l.1-.1c.1-.1 0-.3 0-.4zm-20.5 9.7c-.2.1-.3.3-.2.5l.2.1h.1c.1 0 .2 0 .3-.1l.1-.2c0-.3-.3-.4-.5-.3zm2.9-7.5h.2l.2-.1c.3-.2.4-.4.4-.6l-.1-.1h-.1c-.2-.3-.5-.3-.6-.2l-.1.1-.1.1c-.2.2-.3.4-.2.6.1.1.1.2.2.3l.2-.1zm-3.8 2.5-.1-.2-.3-.1h-.2c-.2.1-.4.2-.5.4-.1.1 0 .3 0 .5 0 0 0 .1.1.1l.1.1.3.1h.2c.1-.2.5-.5.4-.9zm10.3 6.8c-.3 0-.6 0-.9-.1l-.2.3c.2.2.5.3.8.3.2 0 .4-.1.5-.2l-.2-.3zm2.4-8.7-.2-.1h-.1c-.1 0-.2 0-.3.1l-.1.2s0 .1.1.1c.1.2.3.3.5.2l.1-.3v-.2zm-27.7-20c.1-.1.2-.2.2-.4l.1-.1.1-.2v-.5l-.2-.3-.3-.1h-.1c-.2 0-.5 0-.6.2l-.2.3-.1.2v.1l-.2.2-.1.3.1.4c.2.5.7.5.9.4l.3-.2.1-.3zm5-9.3c-.1-.1-.2-.3-.3-.3-.1 0-.3 0-.4.1l-.1.1v.1l-.1.2v.2l.1.2.1.1.2.1h.1c.2 0 .4-.1.5-.2 0-.2 0-.4-.1-.6zm9.4 2-.3-.3-.2-.1h-.2l-.2.1-.4.2-.2.3-.1.3v.3l.2.4.3.2.3.1h.3c.5-.4.7-1 .5-1.5zm-10.4 5.9.1-.2-.1-.4c-.3-.6-.9-.6-1.1-.6h-.1l-.3.1-.2.2-.2.2c-.1.2 0 .4.1.7.1.2.4.4.7.5.3.1.6 0 .9-.2l.2-.3zm-20.4 2.1-.3-.2-.4.2v.3c.1.1.2.2.3.2.1.1.2.2.4.3l.2-.1c.1-.2.1-.4-.2-.7 0 .2 0 .1 0 0zm48.1-8.5.3.1-.1-.6-.2.2v.3zm-22.8 13 .3.1h.3l.2-.1.2-.2.1-.3c0-.1.1-.2 0-.4l-.2-.3-.3-.1h-.1c-.1 0-.4-.1-.6.1l-.2.3-.1.2v.3l.1.2.3.2zm-3.8 3.2.2-.1.2-.2c.1-.2.1-.4-.1-.6-.1-.3-.4-.5-.7-.5h-.3l-.2.1-.2.2c-.1.3-.1.5 0 .8.1.1.3.5.9.4l.2-.1zm-11.9 2.8h-.2l-.1.3c0 .1-.1.2 0 .4l.1.1.2.1c.1 0 .2-.1.3-.2 0-.3-.1-.6-.3-.7zm.6-4.3c-.1-.2-.2-.3-.4-.3s-.4.1-.5.2v.4l.1.2.1.1.2.1h.1c.2 0 .4-.1.5-.2 0-.1 0-.3-.1-.5zm.8-21.9s0-.1 0 0c-.1-.1-.1-.3-.3-.3-.1 0-.2 0-.3.1v.1c-.1.1 0 .2 0 .3.1.2.4.2.5.2l.1-.4zm14.3 27.3v-.2l-.1-.2c-.3-.3-.6-.4-.8-.4h-.3l-.2.1-.2.2c-.2.3-.2.6-.1.9.2.3.5.5.9.5.3 0 .7-.2.8-.5v-.4zm14.5-19.2.2-.3v-.3c-.1-.1-.2-.3-.4-.3-.3-.1-.5.1-.7.2l-.1.1-.1.2v.3c.1.2.2.3.4.4h.3c.2 0 .3-.2.4-.3zm-10.4 10.3c0 .1-.1.3 0 .5l.2.3.3.1h.4l.2-.1.2-.3.1-.3-.1-.4c-.3-.6-.8-.5-.9-.4l-.3.2-.1.4zm5.8 36.4v-.2l-.2.1v-.1c-.1 0-.2.2-.2.2v.1l-.2.1c.1.1.2.2.3.1.2-.1.3-.2.3-.3z" class="st3"/><path d="m1864 141.1.2-.2.1-.2v-.3c0-.1-.1-.1-.1-.2-.3-.6-.8-.7-1.1-.6l-.2.1-.2.1-.1.2c-.1.2 0 .5.1.7.1.3.4.4.6.5s.5 0 .7-.1zm-27.4-17.3v-.3l-.1-.1-.3-.2h-.3l-.1.1-.2.3v.3l.1.2.3.2h.3l.1-.1.2-.4zm43.2 7.7.1.1c.2.1.4 0 .5-.1s.1-.3.1-.4l-.1-.1c-.2-.1-.4 0-.5.1s-.2.3-.1.4zm-17.9-20.6c-.3-.1-.5-.1-.7.1l-.1.2v.1c.1.2.4.3.6.2.2-.2.3-.4.2-.6zm-23.7-5.5c.1 0 .1-.1.2-.1.1-.1 0-.2 0-.3l-.2.1.2-.1c-.1-.2-.2-.3-.4-.3l.1.2c0 .1-.1.2 0 .3h.1v.2zm-6.6 21.6-.1-.2c0-.1.1-.1 0-.3h-.1l-.1-.2c-.2.1-.3.2-.2.5l.2-.1-.2.1c0 .1.1.1.1.2h.4zm37.6-17 .1-.3c-.1-.1-.1-.2-.1-.2 0-.1-.1-.2-.2-.3l-.3.2v.1c0 .1-.1.3 0 .5l.2.1.3-.1zm11.5 26.3.1-.1c.1-.1.1-.4 0-.6-.1-.1-.2-.1-.3-.1l-.2.2v-.1l-.2.2c.2.5.5.5.6.5zm-13.3.5c.2.2.4.2.5.1.2-.1.4-.2.4-.5l-.1-.2-.3-.2h-.3c-.4.1-.5.4-.5.6v.1l.3.1zm3.7-9.9.3.2c.1 0 .2-.1.2-.2v-.3l-.2-.1h-.1c-.1 0-.3.1-.2.4zm7.5-9s-.1 0 0 0l.2-.2c0-.1-.1-.2-.2-.3-.1 0-.2-.1-.3 0h-.1l-.1.2v.2l.2.2c.2 0 .2-.1.3-.1zm-6.2 32.4.2.2h.4l.2-.2c0-.1-.1-.3-.2-.4-.1-.1-.2-.1-.3-.1-.2.2-.4.2-.3.5zm2-7.9c.2-.1.3-.2.2-.4l-.2-.1h-.5l-.1.2c0 .1.1.2.2.3h.4zm-44.7-25.8c.1.1.2.1.3.1l.2-.2c-.1-.2-.3-.4-.6-.3-.1 0-.2.1-.2.3l.3.1c-.1 0 0 0 0 0zm5.6 17.7c0 .2-.1.5.1.7.1.2.4.3.7.3l.3-.1.2-.2.1-.1v-.1c.1-.2.3-.5.2-.9-.1-.2-.3-.4-.5-.5l-.5.1-.2.2h-.1c-.3.2-.3.5-.3.6zm5.5-16.3c.1.1.3.1.5.1.1 0 .4-.2.4-.6l-.1-.2-.3-.2s-.2-.1-.4 0h-.1l-.1.1-.1.2v.4l.2.2zm-2.3 33.6h.2c.4-.1.5-.4.5-.6v-.1l-.1-.2-.1-.1c-.2-.1-.3-.1-.5-.1s-.3.2-.4.3c-.1.2-.1.4 0 .5l.1.1.3.2zm9.4-2.9c.1 0 .2.1.3.1l.2-.1.2-.3s.1-.1.1-.3l-.1-.2-.3-.2s-.1-.1-.2-.1l-.2.1-.2.3s-.1.1-.1.3l.1.2.2.2zm-11.9-28.2s.1.1.3.1l.2-.1.2-.3c0-.1.1-.2 0-.5l-.1-.1-.2-.1h-.2l-.2.1-.1.1-.1.2v.2l.1.2.1.1v.1zm-13.4 3.9c.1.1.2.3.3.3l.2-.2v-.2l-.2-.2h-.1c-.1 0-.2-.1-.3 0 0 0-.2.1-.2.3h.3zm7.8 31.1c.2-.1.3-.2.3-.4l-.2-.2c-.1 0-.1-.1-.2-.1l-.2.2c0 .1-.1.1-.1.2l.1.2c.1.1.2.2.3.1zm-5.8-21.8c0-.2-.2-.3-.4-.3l-.2.2v.1c0 .1 0 .2.1.4l.2.1c.2-.1.3-.3.3-.5zm6.8 4.1-.1.2v.2c.1.4.3.5.6.5l.2-.1.1-.1c.3-.1.3-.4.3-.5v-.1l-.1-.2c-.1-.2-.4-.3-.6-.3-.1 0-.2.1-.3.2l-.1.2zm-1.7-4.1.2-.1.2-.2.1-.2c0-.2-.1-.5-.3-.6-.1-.1-.3-.1-.5-.1h-.1l-.1.1-.1.2v.2c-.1.2.1.7.6.7zm-8.6 8.9c0-.3.1-.6.2-.9l-.3-.2c-.2.1-.4.4-.4.8 0 .2 0 .4.1.5l.4-.2zm8.1 3.9.2-.2v-.5l-.2-.1h-.1c-.2.1-.3.2-.3.4l.2.2c0 .1.1.2.2.2zm24.6-23.7c.1.1.2.2.4.2l.1.2.2.1h.1c.1 0 .2.1.4.1l.3-.2.2-.2.1-.1c.1-.2.1-.4 0-.7l-.2-.2-.2-.1h-.1l-.2-.2-.3-.1h-.4c-.5.2-.6.5-.6.8l.2.4zm8.3 6.6c.2-.1.3-.2.3-.3.1-.1.1-.3 0-.4l-.1-.1-.1-.1-.1-.1h-.2l-.2.1-.1.1-.1.1-.1.1c-.1.2 0 .4.1.5.2.1.4.2.6.1zm-3.7 8.8c.2 0 .3-.1.4-.2l.1-.2.1-.2v-.2l-.1-.4-.2-.3-.2-.1h-.3l-.5.1-.3.2-.1.2v.3c.1.7.6 1 1.1.8zm-3.8-11.2.2.1h.4c.6-.2.7-.8.8-.9v-.4l-.1-.2-.2-.2c-.2-.1-.4-.1-.7 0-.3.1-.5.3-.6.6-.1.3-.1.6.2 1zm1.5-20.5.2-.2-.1-.5-.3-.1c-.1.1-.2.2-.3.2l-.3.3v.3c.2.1.4.1.6 0h.2zm-.2 48.9-.2.2h.6l-.2-.2h-.2zm-8.8-24.7-.1.2v.3l.1.2.2.2.3.2c.1 0 .2.1.4.1l.3-.2.2-.2.1-.1c0-.1.1-.3 0-.6l-.2-.2-.2-.1h-.3l-.2.1-.6.1zm-2.4-4.4.1.2.2.2c.2.1.4.1.7.1.3-.1.5-.3.6-.6v-.3l-.1-.2-.2-.2c-.3-.2-.5-.2-.7-.1s-.5.2-.6.9zm-.7-12.2c0-.1.1-.2 0-.2l-.3-.1c-.1-.1-.2-.1-.3-.1 0 0-.1 0-.1.1l-.1.2c0 .1.1.3.2.3.2.1.5 0 .6-.2zm4.1 1.4c.2-.1.3-.2.4-.4.1-.2 0-.4-.1-.5l-.1-.1-.2-.1h-.1l-.2.1-.1.1-.1.2-.1.1c0 .2 0 .4.2.5s.3.1.4.1zm21.5 4.7s.1 0 0 0c.2 0 .3-.1.3-.2s0-.2-.1-.3l-.1-.1c-.1-.1-.2-.1-.3 0-.2.1-.3.3-.3.4l.5.2c-.1 0 0 0 0 0zm-29.5 9.2h.2l.2-.1c.4-.2.5-.5.6-.8v-.5l-.1-.2c-.2-.2-.5-.3-.8-.2-.3.1-.6.4-.7.8-.1.4.1.7.4.9l.2.1zm16.3 17.6.3.2h.3c.2-.1.3-.1.4-.3.1-.3 0-.6 0-.7l-.1-.1-.2-.1h-.3c-.2.1-.4.2-.5.4v.3c-.1.1 0 .2.1.3zm-8.2-12.1c-.1 0-.2-.1-.5-.1l-.3.2-.2.2-.1.4.1.2.2.3.3.1h.4c.6-.2.6-.7.6-.8l-.2-.3-.3-.2zm-36.8-.7c.1 0 .2.1.2 0l-.1-.2h.1c0-.1-.1-.2-.2-.2h-.1l-.1-.2c-.2 0-.2.2-.2.3.2.1.2.2.4.3zm26.7 7.2.2.2.2.1.3.1c.1 0 .1 0 .2-.1.6-.2.8-.6.8-1l-.1-.2-.1-.2-.2-.2c-.2-.1-.5-.1-.7 0-.3.1-.5.3-.6.5-.1.3-.1.5 0 .8zm21.9-23.9s.1.1.3.1l.2-.1.2-.3c0-.1.1-.2.1-.3l-.1-.2-.3-.2s-.1-.1-.3-.1l-.2.1-.2.3s-.1.1-.1.3l.1.2.3.2zm-15.3 41.1-.1.1c-.1.1-.1.4 0 .5s.2.2.4.1l.1-.1c.1-.1.1-.4 0-.5-.1 0-.3-.1-.4-.1zm23.5-13.9.1-.1c.1-.2.1-.4-.1-.6l-.2-.1h-.1c-.2.1-.3.3-.3.5.2.2.3.3.6.3zm-3.1-7.8v.2l.2.2.1-.2-.1.2c.2.1.4.1.4-.1l-.2-.1c-.1-.1-.1-.2-.4-.2zm-11.7-19.3.2.1c.1.1.1.2.2.2v-.1l.2.1c.1-.2 0-.4-.2-.5l-.1.2.1-.2h-.2c-.1 0-.2.1-.2.2zM1841 157l.1.3c.1 0 .2.1.3.1.1 0 .2.1.3.1l.1-.3-.1-.1c-.1-.2-.2-.3-.4-.3l-.2.1-.1.1zm-27.3-9v.2c0 .1.2.3.4.4.1 0 .2 0 .3-.1v-.2.1l-.1-.3c-.3-.4-.5-.1-.6-.1zm8.5-10.2c-.3.1-.4.2-.4.3-.1.2-.1.5.1.7l.2.1.3-.1.2-.1v-.1c.2-.4 0-.6-.1-.7l-.1-.1h-.2zm5 9.4-.3.1c0 .1-.1.2 0 .3 0 .1.1.1.2.1l.2-.1v-.1s.1-.2-.1-.3c-.1 0-.1 0 0 0zm1.7 11.5v.3c.1.1.2.1.3.1.1 0 .2-.1.2-.2v-.1l-.1-.2c-.1 0-.1-.1-.1-.1h-.3v.2zm-20.1-26.2h-.2l-.1.1c-.1 0-.1.1-.2.1v.3c.1.1.3.1.4.1s.2-.1.2-.2c.1 0 .1-.2-.1-.4zm4.6 6.8c-.1.2 0 .4.2.5l.2-.1c.1 0 .1-.1.2-.2v-.1l-.1-.2c-.1-.1-.2-.1-.3-.1-.1 0-.2.1-.2.2zm49-16.2c-.1 0-.2 0-.3.2l.1.3c.2.1.6 0 .7-.2.1-.1 0-.2-.1-.3h-.4c.1 0 0 0 0 0zm-17-7.6c-.1-.2-.3-.4-.6-.4-.2 0-.5.1-.7.3l-.1.3v.2l.1.2v.1c.1.2.2.5.5.7.2.1.5.1.7 0l.3-.4v-.3h.1c0-.4-.1-.6-.3-.7zm8.5 15c-.2.1-.3.1-.4.3 0 .1-.1.4.2.7l.2.1.4-.1s.2-.1.3-.3v-.3l-.1-.2-.1-.1-.2-.1h-.3zm-23.5-24.2c-.3.5-.1.7 0 .9l.1.1.2.1h.1c.2-.1.3-.2.4-.3s.1-.3 0-.5-.2-.3-.4-.3h-.4zm-4.1 9.1c-.1 0-.2.1-.2.2v.2l.1.3.2.2.2.1.3-.1.2-.2.1-.2-.1-.3-.2-.2h-.6z" class="st3"/><path d="m1855.2 125.2-.2.2v.2l.1.4c0 .1.1.2.4.3h.2l.2-.1.1-.1.1-.2v-.2l-.1-.2-.1-.1-.2-.1h-.2l-.3-.1zm6.1-12.6s-.1 0 0 0c-.2 0-.3-.1-.4.1l.1.3s.1 0 .1.1h.3s.1 0 .1-.1c.1-.1.2-.1.2-.2 0 0 .1-.2-.1-.3l-.3.1c-.1.1 0 0 0 0zm-28.5-14.8c-.1.2 0 .4.2.5l.3-.1c.1 0 .1-.1.2-.1l-.1-.3c0-.1-.1-.2-.1-.2h-.2c-.1-.1-.2 0-.3.2zm20.3 10.1c.2.1.4 0 .5-.2l-.1-.2c-.1-.1-.2-.2-.3-.2l-.2.1c-.2.2-.1.4.1.5zm-7.7 2.3-.1-.2-.2-.1c-.3-.2-.6-.1-.7.1v.3c-.1.3.1.5.2.6h.3c.3.1.5-.1.6-.3 0-.1.1-.2.1-.4h-.2zm4.3 1.5-.1.2v.3l.1.2c.1.1.4.2.7.1.2-.1.3-.2.4-.3v-.3l-.1-.2-.1-.1c-.2-.1-.6-.2-.9.1zm-.9-12.3c.2.2.4.5.5.8l.4-.1c0-.2-.1-.6-.3-.8-.1-.2-.3-.2-.5-.2l-.1.3zm-8.4 3.5v.3c.1.1.1.2.3.2l.2-.1s0-.1.1-.1c.1-.2.1-.4-.1-.5l-.3.1c0-.1-.1 0-.2.1zm1.3 34.1c-.1 0-.3 0-.4.1h-.2l-.2.1h-.1c-.1 0-.2.1-.3.2l-.1.4.1.3.1.1c.1.2.3.3.5.4h.3l.2-.1.1-.1h.3l.3-.1.2-.3c.2-.5 0-.8-.2-1l-.3-.1-.3.1zm-10.5 1.8c-.1.2-.1.3 0 .5l.3.3h.2l.1-.1h.2l.2-.1.1-.1v-.3l-.1-.1c-.1-.2-.3-.3-.5-.2-.2-.3-.4-.1-.5.1zm-4.1-8.7c-.1.1-.1.3-.1.4l.1.2.1.2.2.2.4.2h.3l.2-.1.2-.2.2-.4v-.4l-.1-.2-.2-.2c-.5-.3-1.1-.1-1.3.3zm11 4.6-.2.1-.2.3c-.3.6.1 1 .2 1.2l.1.1.2.2.2.1h.3c.2-.1.4-.3.5-.5.1-.3.1-.6 0-.8-.1-.3-.4-.5-.8-.6l-.3-.1zm14.2 14.8v.3l.5.2.3-.2v-.9l-.2-.1c-.2 0-.3.2-.4.4s-.1.2-.2.3zm-36.3-32.7-.1-.3-.4.4h.3c.1 0 .2 0 .2-.1zm24.3 10-.1-.2-.2-.2-.2-.1h-.3l-.3.1c-.1 0-.2.1-.3.2l-.1.4.1.3.1.1c.1.2.3.4.5.4h.3l.2-.1.2-.2.1-.2v-.5zm4.9 1-.2-.1h-.2c-.2.1-.4.2-.5.5s-.1.6 0 .9l.2.2.2.1h.3c.3-.1.5-.2.6-.5.1-.1.2-.6-.2-1l-.2-.1zm9.5 7.7c0 .1.1.1.2.2l.3-.1c.1 0 .2 0 .3-.2v-.1l-.1-.2c-.1-.1-.2-.1-.4-.1s-.4.2-.3.5zm-3.8 2.1c-.1.2-.1.4 0 .5s.3.2.5.2h.1l.2-.1.1-.1.1-.2v-.3l-.1-.1c-.1-.1-.3-.2-.5-.2-.1 0-.3.1-.4.3zm-17.8 12.9s0 .1 0 0c-.1.1-.1.3-.1.4.1.1.1.1.3.1h.1c.1-.1.2-.1.2-.2.1-.2-.1-.4-.1-.5l-.4.2zm12.8-28.1-.2.3c-.1.4.1.7.2.9l.2.2.2.1.2.1c.3 0 .6-.2.7-.5.2-.3.1-.7-.1-1s-.6-.4-.9-.3l-.3.2zm-24 .4-.3.1-.1.1s0 .1-.1.1c-.1.2-.1.3 0 .5.1.3.4.4.6.4h.2l.2-.1.1-.1v-.1c.1-.2.1-.4.1-.6v-.1l-.1-.1-.1-.1h-.5zm14.5 1.9c.1 0 .3-.1.4-.3l.1-.4-.1-.3-.2-.3-.2-.1h-.4l-.3.1-.3.3c-.2.6.1.9.2 1l.3.1.5-.1zm25.1-27c-.1 0-.2.1-.2.2l.2.1v.1c0 .1.2.1.3 0V98l.2.1c.1-.1 0-.3-.1-.3-.2-.1-.3-.1-.4-.1zm-23.2 15.2h-.3l-.2.1-.2.2c0 .1-.1.1-.1.2-.3.6-.1 1 .2 1.3l.2.1h.4c.2-.1.4-.3.5-.5.1-.3.1-.6 0-.8 0-.4-.2-.6-.5-.6zm3.2 32.2-.2.2v.2l.1.3c0 .1.1.1.2.2h.2l.3-.1.2-.2.1-.2-.1-.3-.2-.2h-.2l-.4.1zm-20.5-38.8v-.2c0-.2-.2-.3-.4-.3-.1 0-.3.1-.3.2v.2c0 .2.2.3.4.3.1 0 .3-.1.3-.2zm-5.2 26.8v.2c.1.2.2.3.5.3l.2-.1c.1-.2 0-.4-.2-.5s-.4-.1-.5.1zm-3.3 2.2c0-.1-.1-.1-.2-.1s-.2 0-.3.1l.1.2-.1-.2c-.2.1-.3.3-.2.4l.2-.1c.1 0 .2 0 .3-.1v-.1l.2-.1zm22.5 1.9-.2.1c-.1.1-.2 0-.3.1v.1l-.2.1c.1.2.3.2.5.1l-.1-.2.1.2c.1 0 .1-.1.2-.1v-.4zm-24.6-33.2h-.3c-.1.1-.2.1-.2.2-.1.1-.2.1-.2.2l.2.2h.1c.1 0 .3 0 .5-.1l.1-.2c-.1-.1-.2-.3-.2-.3zm23.3-16.8c-.2-.1-.5-.1-.7.1-.1.1-.1.2-.1.3l.2.1h-.1l.2.1c.6-.2.5-.5.5-.6zm3.3 12.8c.1-.3.1-.4 0-.5-.1-.2-.3-.3-.6-.3l-.2.1-.2.3v.3c.2.4.5.4.6.3l.1-.1.3-.1zm-10.5-1.5.1-.3c0-.1-.1-.2-.3-.2-.1 0-.2 0-.2.1v.4c0 .1.2.3.4.2v-.2zm-10.4-5.3s.1 0 0 0l-.2-.2c-.1.1-.2.1-.3.2v.4l.3.1h.2l.2-.3c0-.1-.1-.2-.2-.2zm33-.9.1-.2v-.4l-.3-.2-.3.3v.3c.1.2.2.3.5.2zm-8.1-.3c-.1-.2-.3-.2-.5-.2l-.1.2v.1c0 .1 0 .2.1.3 0 0 0 .1.1.1l.2.1c.1-.1.3-.3.2-.6 0 .1 0 .1 0 0zm-15.8 49.2c0-.1.1-.2 0-.4l-.3-.1c-.2.1-.3.4-.2.6.1.1.2.1.3.1l.2-.2c0 .1 0 0 0 0zm16.2-9.2c.2 0 .5 0 .7-.2s.2-.4.2-.7l-.2-.2-.2-.1-.2-.1h-.1c-.2-.1-.5-.2-.9 0-.2.1-.3.3-.4.6l.2.4.2.2v.1h.7zm-17.1-2v-.1c0-.1 0-.2-.1-.4-.1-.1-.2-.3-.7-.2l-.2.1-.2.3c0 .1 0 .2.1.4l.1.1.1.1.2.1h.2l.2-.1.1-.1.2-.2zm33.3-4.8v-.2c-.2-.3-.5-.4-.7-.4l-.1.1-.2.1-.1.1c-.1.2 0 .4.1.5.2.3.5.4.8.2 0 0 .1 0 .1-.1l.1-.1v-.2zm-4.9-8.7v-.3l-.1-.1-.3-.1h-.3l-.2.1-.2.3v.3l.1.1.3.2h.3l.1-.1.3-.4zm-25 17.7v-.3l-.1-.1-.3-.1c-.1 0-.3 0-.5.1l-.1.1-.1.2v.1l.1.2.1.1.3.1h.2l.2-.1.1-.1.1-.2zm6.7 12.3c.1-.1.2-.2.2-.4l-.3-.1h-.2l-.2.3v.4s.1.2.3.1l.2-.3zm28.7-14.3c-.1-.2-.3-.3-.5-.2l-.1.3v.2l.3.1c.1 0 .1.1.2 0l.1-.1c.1 0 .1-.2 0-.3zm-20.1 10.4c-.2.1-.2.3-.2.5l.2.1h.1c.1 0 .2 0 .3-.1l.1-.2c0-.3-.3-.4-.5-.3zm2.6-7.5h.2l.2-.1c.3-.2.4-.4.4-.7l-.1-.1h-.1c-.2-.3-.5-.2-.6-.2l-.1.1-.1.1c-.2.2-.2.4-.1.6.1.1.1.2.3.3z" class="st3"/><path d="m1841.9 137.6-.1-.2-.3-.1h-.2c-.2.1-.4.2-.5.5-.1.1 0 .3.1.5 0 0 0 .1.1.1l.2.1h.5c-.1-.1.3-.4.2-.9zm10.5 6.5h-.9l-.2.3c.2.2.5.3.8.2.2 0 .4-.1.4-.2l-.1-.3zm2.1-8.7-.2-.1h-.1c-.1 0-.2 0-.3.1l-.1.2s0 .1.1.1c.1.2.3.3.5.2l.1-.3c0-.1.1-.1 0-.2zm-28.3-19.1c.1-.1.2-.2.2-.4l.1-.2.1-.2v-.5l-.2-.3-.3-.1h-.1c-.2 0-.4 0-.6.2l-.2.3-.1.2v.1l-.2.2-.1.3.1.4c.3.5.7.5.9.4l.4-.4zm4.7-9.5c-.1-.1-.2-.2-.4-.3-.1 0-.3 0-.4.1l-.1.1v.1l-.1.2v.2l.1.2.1.1.2.1h.1c.2 0 .4-.1.5-.2.1-.2.1-.4 0-.6zm9.4 1.7-.3-.3-.2-.1h-.4l-.4.2-.2.3-.1.3v.3l.2.4.3.2.3.1h.3c.6-.3.8-.9.5-1.4zm-10.2 6.2.1-.2-.1-.4c-.3-.6-.9-.5-1.1-.5h-.1l-.3.1-.2.2-.2.2c-.1.5.2 1 .7 1.1.3.1.6-.1.9-.3l.3-.2zm-20.3 2.8-.3-.2-.4.2v.3c.1.1.2.2.3.2.1.1.2.2.4.3l.2-.1c.1-.2 0-.4-.1-.6 0 .1-.1 0-.1-.1zm47.8-10.1.3.1-.1-.6-.1.3c-.1 0-.2.1-.1.2zm-22.3 13.8.3.1h.3l.2-.1.2-.2.1-.3v-.4l-.2-.3-.3-.1h-.1c-.1 0-.4 0-.6.2l-.2.3-.1.2.1.3.1.2.2.1zm-3.7 3.3.2-.1.1-.2c.1-.2 0-.5-.1-.7-.1-.3-.4-.4-.7-.5l-.3.1-.2.1-.2.2c-.1.3-.1.5 0 .8.1.2.3.5.9.4l.3-.1zm-11.8 3.2h-.2l-.1.3c-.1.1-.1.2 0 .4 0 0 0 .1.1.1l.2.1c.1 0 .2-.1.3-.2 0-.3-.1-.6-.3-.7zm.4-4.3c-.1-.2-.3-.3-.4-.3-.2 0-.3.1-.5.2v.4l.1.2.1.1.2.1h.1c.2 0 .4-.1.4-.3.1 0 .1-.2 0-.4zm.1-22s-.1 0 0 0c-.1-.1-.1-.3-.3-.3-.1 0-.2 0-.3.1v.4c.1.2.4.2.5.2l.1-.4zm15.2 26.9v-.2l-.1-.2c-.3-.3-.6-.4-.9-.4h-.3l-.2.1-.2.2c-.2.3-.2.6 0 .9.2.3.5.5.9.5.3 0 .7-.2.8-.6v-.3zm13.8-19.7.2-.3v-.2s0-.1-.1-.1c-.1-.1-.2-.3-.4-.3-.3-.1-.5.1-.7.2l-.1.1-.1.2v.3c.1.2.3.3.4.4h.3c.4-.1.5-.2.5-.3zm-10.1 10.6c0 .1-.1.3 0 .5l.3.3.3.1h.4l.2-.1.2-.3.1-.3-.1-.4c-.3-.6-.8-.4-.9-.4l-.3.2-.2.4zm7.1 36.2v-.2l-.2.1v-.1c-.1 0-.2.2-.2.2 0 .1 0 .1.1.1l-.2.1c.1.1.2.2.4.1 0-.1.1-.2.1-.3zm1.4-27.7.2-.2.1-.2v-.3c0-.1-.1-.1-.1-.2-.3-.6-.8-.7-1.1-.6l-.2.1-.2.2-.1.2c-.1.2 0 .5.1.7s.4.4.7.5c.1 0 .4 0 .6-.2zm-28-16.3v-.3l-.1-.1-.3-.1h-.3l-.1.1-.1.3v.3l.1.1.3.2h.3l.1-.1.1-.4zm43.5 6.2c.3.2.5.1.6-.1.1-.1.1-.3.1-.4l-.1-.1c-.2 0-.4 0-.5.2-.2.1-.2.3-.1.4zm-18.7-19.9-.2-.1c-.2 0-.4 0-.6.2l-.1.2v.1c.1.2.4.2.6.2.3-.3.4-.5.3-.6zm-18.5 46.1c-.1 0-.2 0-.2.1-.1.1-.1.2-.2.3h.2-.2c0 .2.1.4.2.4v-.2c.1-.1.1-.1.1-.3h-.1l.2-.3zm15.6-16.4v.2c0 .1-.1.1-.1.2h.1v.2c.2 0 .4-.1.4-.3h-.2.2v-.2c-.3 0-.4-.1-.4-.1zm-41.4-1.4-.2.2v.6h.3s0-.1.1-.1c.1-.1.2-.2.2-.4l-.2-.2-.2-.1zm1.4-28.7h-.2c-.1.1-.3.3-.2.5 0 .1.1.2.2.2l.2-.1s-.1 0-.1.1l.2-.1c.3-.4 0-.6-.1-.6zm12.1 5.4c-.1-.2-.2-.3-.4-.3s-.5.1-.6.2v.2l.1.3.2.1h.1c.4.1.6-.2.7-.3l-.1-.2zm-7.7 7.3-.2-.3c-.1 0-.2 0-.3.1-.1.1-.1.2-.1.2l.2.2h.1c.1 0 .3.1.3-.2zm-10.6 4.7-.3.1v.3c0 .1.1.1.3.2h.1l.2-.2c0-.1 0-.1.1-.1l-.1-.3h-.3zm19.9-26.3-.1-.2-.1-.1c-.1 0-.1-.1-.2-.1l-.3.1c0 .1 0 .3.1.4l.2.2c.1 0 .3 0 .4-.3zm-5.3 6.2c-.2 0-.4.1-.4.3l.1.2h.1c.1 0 .1.1.2.1h.1l.2-.1c.1-.1 0-.2 0-.3-.1-.1-.2-.2-.3-.2zm28.6 42.9c0-.1-.1-.2-.3-.2l-.2.2c0 .2.1.5.4.6.1 0 .2 0 .3-.1l-.2-.5z" class="st3"/><path d="M1841.4 119.2c.1-.2.3-.4.2-.7 0-.3-.2-.5-.4-.6h-.3l-.2.1-.2.1h-.1c-.2.1-.5.3-.5.7 0 .2 0 .5.2.7l.5.1.2-.1v.1c.4-.1.6-.3.6-.4zm-12.1 12.2c-.1-.1-.2-.3-.4-.3-.1 0-.4 0-.6.4v.2l.2.3s.1.1.3.2h.1l.2-.1.2-.2.1-.1v-.3l-.1-.1zm17-29.1-.2-.1c-.4 0-.6.1-.7.3v.4c.1.2.3.2.4.3s.3 0 .5-.1c.1-.1.2-.3.2-.5l-.1-.2-.1-.1zm-9.9-1.6-.2-.2h-.2l-.3.2-.2.2v.2l.2.3.2.2h.2l.3-.2.2-.2v-.2l-.2-.3zm-1.7 30.5-.2-.2h-.2l-.3.2c-.1.1-.2.2-.2.4l.1.1.2.2.1.1h.4l.2-.2.1-.1v-.4l-.2-.1zm13.7 2.5c0-.2 0-.3-.2-.4l-.3.1c0 .1 0 .1-.1.1l.1.3s.1 0 .1.1c.1.1.2.1.3.2.1 0 .2 0 .3-.2l-.2-.2c0-.1 0 0 0 0zm6.8-31.4c-.2 0-.4.1-.4.3l.2.2.2.2.3-.1.2-.2v-.2c-.3-.1-.4-.2-.5-.2zm-4.4 22.2c0 .2.1.4.3.4l.2-.1v-.1c.1-.1.1-.2.1-.3l-.1-.2c-.3 0-.5.1-.5.3zm-4.3-6.7.1-.2.1-.2c.1-.3 0-.6-.3-.7h-.2l-.1.1c-.4 0-.5.2-.5.3v.3c0 .3.2.5.4.5h.4l.1-.1zm-.3 4.4h-.2l-.3.1-.1.2c0 .2-.1.4.1.7.1.1.2.2.4.3h.1l.2-.1.2-.2.1-.2c-.1-.1-.1-.5-.5-.8zm11.6-4.1c-.2.2-.4.5-.6.7l.1.3c.2 0 .5-.2.7-.5.1-.2.1-.3.1-.5h-.3zm-5.5-7.1-.3.1v.1c-.1.1-.1.2-.1.3l.1.2h.1c.2 0 .4-.1.5-.3l-.1-.3s-.1-.1-.2-.1zm-32.6 10.3c0-.1-.1-.3-.2-.4v-.2l-.1-.2-.1-.1s-.1-.2-.3-.2h-.4l-.3.1-.1.1c-.2.2-.2.4-.2.6l.1.3.2.2.1.1.1.3.2.2.3.2c.5.1.8-.2.9-.5v-.3l-.2-.2zm-4.5-9.6c-.2 0-.3 0-.4.1s-.2.2-.2.4l.1.1.1.1.1.1.2.1h.3l.2-.1.1-.1c.1-.2.2-.3.1-.5s-.4-.2-.6-.2zm7.2-6.3h-.5l-.2.1-.1.2-.1.2-.1.4.1.3.2.2.3.2.5.1.3-.1.2-.2.2-.3c.1-.5-.2-1-.8-1.1zm-1.5 11.8-.1-.2-.3-.2c-.7-.1-1 .4-1.1.5l-.1.1-.1.3v.2l.1.3c.2.2.3.3.6.3.3.1.6 0 .8-.2.2-.2.4-.5.3-.9 0 .1-.1-.2-.1-.2zm-10.4 17.7-.3.1-.1.5.3.2c.2-.1.3-.1.4-.1s.3 0 .4-.1l.1-.2c-.1-.2-.3-.3-.5-.3-.1 0-.2 0-.3-.1zm21.8-43.7.3-.1-.5-.2.2.3c-.1-.1-.1 0 0 0zm-3.1 26 .2-.2.2-.3v-.2l-.1-.3-.2-.3s-.1-.2-.3-.2h-.4l-.3.2-.1.1c-.1.1-.3.2-.3.6l.1.3.2.2.3.2h.2l.5-.1zm.3 5v-.2l-.1-.2c-.1-.2-.3-.3-.6-.3-.3-.1-.6 0-.8.2l-.2.3v.2l.1.3c.2.2.4.4.6.4s.6 0 .9-.5l.1-.2zm-4.8 11.2c-.1.1-.1.1-.1.2l.2.2c0 .1.1.2.3.2h.1l.2-.1c.1-.1.1-.3 0-.4-.2-.1-.6-.2-.7-.1zm-3.1-3c-.2 0-.4 0-.5.2-.1.1-.2.3-.1.5l.1.1.2.1.1.1h.3l.2-.1.1-.1c.1-.1.1-.3.1-.5-.2-.2-.3-.3-.5-.3zm-17.2-13.8s-.1 0 0 0c-.2 0-.3 0-.4.1s-.1.2-.1.3v.1l.2.2c.2 0 .4-.2.4-.3l-.1-.4c.1.1 0 .1 0 0zm30.5 4.8-.2-.1-.2-.1c-.4 0-.7.2-.9.4l-.1.2-.1.2v.3c.1.3.4.5.7.6.3.1.7-.1.9-.4.2-.3.2-.7.1-1l-.2-.1zm-6.8-23-.1-.3-.1-.1h-.1c-.2 0-.3 0-.5.1-.2.2-.3.5-.3.6v.2l.2.2.1.1h.1c.2.1.4 0 .6-.1l.1-.1.1-.1v-.1c0-.1 0-.3-.1-.4zm2.1 14.5c.1.1.2.2.4.3h.4l.3-.2.2-.3v-.2l-.1-.4-.2-.2-.3-.2c-.6-.1-.8.3-.9.5v.3l.2.4zm32.6 17c0-.1-.1-.1-.2-.1v.2h-.1c-.1.1 0 .2 0 .3h.1v.2c.2 0 .3-.1.3-.2 0-.2 0-.3-.1-.4zm-20.7-18.3-.1-.3-.1-.2-.2-.2c-.1 0-.1 0-.2-.1-.6-.1-1 .2-1.2.5v.4l.1.2c.2.2.4.3.6.3.3.1.6 0 .8-.2.1.1.3-.1.3-.4zm-30.3 11.7-.2-.2h-.2l-.3.2c-.1 0-.1.1-.2.2v.2l.2.3.2.2h.2l.3-.2.2-.2v-.2l-.2-.3zm32-30.1c.3-.1.3-.3.3-.5 0-.1-.1-.3-.3-.3h-.2c-.1.1-.2.3-.2.5.1.2.2.3.4.3zm-27.2 2.1-.2.1c-.1.1-.2.3-.2.5l.1.2h.1c.2.1.4-.1.5-.3 0-.3-.1-.4-.3-.5zm25 38.1c-.1.1-.1.1-.1.2s.1.2.1.3l.1-.1-.2.1c.1.2.3.2.4.1l-.1-.2c-.1-.1 0-.2-.2-.3l-.1.1.1-.2zm-2.2-22.4.2.2c.1.1 0 .2.1.2h.1l.2.2c.2-.1.2-.3 0-.5l-.2.2.2-.2c0-.1-.1-.1-.2-.1-.2-.1-.3-.1-.4 0zm-28.3 30.1v.3c.1.1.2.1.2.2.1.1.2.2.3.2l.2-.3v-.1c0-.2-.1-.3-.2-.4h-.2l-.3.1zm-20.6-19.9c-.1.2 0 .5.1.6s.2.1.3 0l.1-.2v.1l.1-.3c-.3-.4-.6-.3-.6-.2zm12-5.6c-.3 0-.4 0-.5.1-.2.1-.3.4-.2.6l.2.2.3.1.2-.1.1-.1c.3-.3.3-.6.2-.7l-.1-.1h-.2zm.4 10.6-.3-.1c-.1.1-.2.2-.1.3 0 .1.1.2.1.2h.3c.1-.1.2-.2 0-.4zm-3.4 11.2s0-.1 0 0l-.1.2c.1.1.2.2.3.2.1 0 .2 0 .3-.1v-.4l-.3-.1c-.2 0-.2.1-.2.2zm-6.7-32.4-.2-.1h-.2c-.1 0-.1 0-.2.1l-.1.3c.1.1.2.2.3.2.1 0 .2 0 .3-.1.1 0 .2-.1.1-.4zm1.1 8.1c-.2.1-.2.3-.1.5l.2.1h.1c.1 0 .2 0 .2-.1l.1-.1v-.2c-.1-.1-.2-.2-.3-.2 0-.1-.1-.1-.2 0zm51.2 6.7c-.1 0-.2-.1-.4 0v.3c.1.2.5.2.7.1.1-.1.1-.2.1-.3l-.4-.1c.1 0 0 0 0 0zm-12-14.2c0-.2-.1-.5-.3-.6-.2-.1-.5-.2-.7 0l-.2.2-.1.2v.3c0 .2-.1.6.2.8.2.2.4.3.6.3l.4-.2.1-.2h.1c.1-.4 0-.6-.1-.8z" class="st3"/><path d="M1834.3 122.8c-.2 0-.3 0-.5.1-.1.1-.3.3-.1.7l.2.1.4.1c.1 0 .2 0 .4-.1l.1-.1.1-.2v-.2l-.1-.1-.1-.1-.1-.1-.3-.1zm-10.7-31.9-.2.1c-.3.3-.3.6-.3.7l.1.1.2.2.1.1c.2 0 .4 0 .5-.1s.2-.3.2-.4c0-.2-.1-.3-.2-.5l-.2-.1-.2-.1zm-7.7 6.3c-.1 0-.2 0-.3.1l-.1.1-.1.3s0 .2.1.3l.1.1.3.1s.1 0 .2-.1l.1-.1.1-.3s0-.2-.1-.3l-.1-.1-.2-.1zm21.8 21.4s-.2 0-.3.1l-.1.1-.1.3c0 .1 0 .3.2.4l.1.1h.2l.1-.1.2-.2.1-.2v-.3l-.1-.2-.1-.1-.1-.1-.1.2zm11-8.7s-.1 0 0 0c-.1-.1-.3-.2-.4-.1l-.1.3s0 .1.1.1l.3.1h.1c.1 0 .2 0 .3-.1 0 0 .2-.1.1-.3h-.4c-.1 0 0 0 0 0zm-19.2-25.7c-.2.1-.2.4-.1.5l.3.1h.2l.1-.3v-.2l-.2-.1c-.1-.2-.2-.1-.3 0zm13.8 17.9c.1.2.3.2.5.1l.1-.2v-.1c0-.1 0-.2-.2-.3h-.2c-.3.1-.3.3-.2.5zm-7.9-1.2v-.2l-.1-.2c-.2-.3-.5-.4-.7-.2l-.1.2v.1c-.2.3-.2.5-.1.6l.1.1.2.1c.2.2.5.2.7 0 .1-.1.2-.2.2-.3l-.2-.2zm3.2 3.1-.2.4v.2c.1.1.3.4.6.4.2 0 .3 0 .5-.1l.1-.1.1-.2v-.3l-.1-.2c-.2.1-.6-.2-1-.1zm4.5-11.4c.1.3.2.6.1.9l.3.1c.1-.2.2-.6.1-.8-.1-.2-.2-.3-.3-.4l-.2.2zm-9-.6-.1.3v.1c0 .1 0 .2.2.3h.2s.1 0 .1-.1c.2-.2.2-.4.1-.5l-.3-.1h-.2zm-13.7 31.4c-.1-.1-.3-.1-.4-.1l-.2-.1h-.3c-.1 0-.2 0-.4.1l-.2.3-.1.3v.1c0 .2.1.4.3.6l.3.1h.3l.3.1h.3l.3-.1c.4-.3.4-.7.2-1l-.3-.2-.1-.1zm-10.2-3c-.1.1-.2.3-.2.4s.1.3.2.4l.1.1h.5l.1-.1.1-.1.1-.2v-.1c0-.2-.1-.4-.3-.4-.2-.2-.4-.1-.6 0zm.1-9.6c-.1.1-.2.2-.3.4v.4l.1.2.3.3.3.2h.3l.3-.1.4-.3.2-.3v-.3l-.1-.3c-.5-.4-1.1-.5-1.5-.2zm7.9 8.9h-.2l-.3.1c-.5.4-.4 1-.3 1.2v.1l.2.2.2.2.3.1c.2 0 .4-.1.6-.2.2-.2.3-.4.3-.7 0-.3-.2-.6-.4-.8l-.4-.2zm6.4 19.5-.1.3.3.4.3-.1c.1-.2.1-.2.2-.3s.2-.2.2-.4l-.1-.2c-.2-.1-.4 0-.6.2-.1.1-.1.1-.2.1zm-18.5-45.1.1-.3-.5.2.4.1c-.1 0 0 0 0 0zm17.5 19.4v-.3l-.1-.3-.1-.1-.3-.2-.3-.1c-.1 0-.2 0-.4.1l-.2.3-.1.3v.1c0 .1 0 .4.3.6l.3.1h.2l.3-.1.2-.2.2-.2zm4 3.1-.2-.1-.2-.1c-.2 0-.5 0-.6.2-.2.2-.4.5-.4.8l.1.3.2.2.3.2c.3 0 .5 0 .7-.2.1-.1.4-.4.2-1 0-.1-.1-.3-.1-.3zm5.2 11c0 .1 0 .2.1.2h.3c.1 0 .2.1.3-.1l.1-.1v-.2c-.1-.1-.2-.2-.3-.2-.2 0-.5.2-.5.4zm-4.3.3c-.2.1-.2.3-.2.5s.1.3.3.4h.3l.1-.1.2-.2.1-.1.1-.2v-.1c0-.2-.2-.3-.3-.4-.3.1-.5.1-.6.2zm-21.7 3.9s0 .1 0 0c-.1.1-.2.2-.2.3s.1.2.2.2h.1c.1 0 .2 0 .3-.1.2-.1.1-.4.1-.5l-.5.1c.1 0 .1 0 0 0zm23.8-19.8-.2.1-.2.2c-.3.3-.2.7-.2.9l.1.2.1.2.2.2c.3.1.6.1.9-.1s.4-.6.3-1c-.1-.3-.3-.6-.7-.7h-.3zm-21.9-10-.3-.1h-.2s-.1 0-.1.1c-.1.1-.2.2-.2.4 0 .3.2.5.3.6l.1.1h.2l.2-.1c.2-.1.3-.3.3-.5v-.3c0-.1-.2-.2-.3-.2zm12.3 8c.1 0 .3 0 .5-.1l.2-.3.1-.3-.1-.4-.2-.2-.3-.2h-.3l-.4.1c-.5.4-.3.9-.2 1l.3.2.4.2zm34.3-13.5c-.1 0-.2 0-.2.1l.1.2v.1c0 .1.2.2.2.1.1 0 0 0 .1-.1l.1.2c.1-.1.1-.2 0-.4-.1-.1-.2-.1-.3-.2zm-27.5 3.6-.3-.1h-.2l-.3.1c-.1 0-.1.1-.2.1-.5.4-.5.9-.4 1.2l.2.2.2.1.2.1c.2 0 .5-.1.7-.2.2-.2.4-.4.4-.7 0-.3-.1-.6-.3-.8zm-11.1 30.5s-.2 0-.3.1l-.1.1-.1.3c0 .1 0 .2.1.3l.1.1.3.1s.2 0 .3-.1l.1-.1.1-.3s0-.1-.1-.3l-.1-.1-.3-.1zm-1.5-43.9c.1-.3 0-.5-.1-.6s-.3-.1-.4 0l-.1.1c0 .2.1.4.2.5s.3.1.4 0zm-16.4 21.9-.1.2c0 .2.1.3.3.5h.2c.2-.2.2-.4.1-.6s-.3-.2-.5-.1zm46 5.4v.2c.1.1.2.2.3.2v-.2.2c.2.1.4 0 .4-.2h-.2c-.1-.1-.1-.2-.3-.2v.1l-.2-.1zm-15.7-16.3.2.1c.1 0 .1.1.2.1v-.1l.2.1c0-.2-.1-.4-.3-.4l-.1.2.1-.2h-.2s-.1.1-.1.2zm-3.2 41.3.2.2h.6v-.3s-.1 0-.1-.1c-.1-.1-.2-.2-.4-.2l-.2.1-.1.3zm-28.6-2.7v.2c.1.1.3.3.5.2.1 0 .2-.1.2-.2l-.1-.2s0 .1.1.1l-.1-.2c-.4-.3-.6 0-.6.1zm5.9-11.8c-.2.1-.3.2-.3.4-.1.2 0 .5.2.6h.2l.3-.1.1-.2v-.1c.1-.4-.1-.6-.3-.7l-.2.1c.1-.1 0 0 0 0zm7 8-.3.1c0 .1 0 .2.1.3s.1.1.2.1l.2-.2v-.1s.1-.2-.2-.2zm4.2 10.8.1.3h.3c.1 0 .2-.1.2-.3v-.1l-.1-.2c-.1 0-.1 0-.1-.1l-.3.1c-.1.2-.1.3-.1.3zm-25.4-21-.2.1-.1.1c-.1.1-.1.1-.1.2l.1.3c.1.1.3 0 .4 0 .1-.1.2-.1.2-.2-.1-.2 0-.4-.3-.5zm6 5.5c0 .2.1.4.3.4l.2-.1v-.1c0-.1.1-.1.1-.2v-.1l-.1-.2c-.1-.1-.2-.1-.3 0-.2.2-.2.2-.2.3zm44.1-26.7c-.1 0-.2.1-.3.2l.2.2c.2 0 .5-.1.6-.3 0-.1 0-.2-.1-.3l-.4.2zm-18.2-3.6c-.2-.1-.4-.3-.7-.3-.2 0-.5.2-.6.4v.3l.1.2.1.2v.1c.1.2.3.5.7.6.2.1.5 0 .7-.2l.2-.4-.1-.2h.1c-.2-.4-.3-.6-.5-.7zm11.6 12.7c-.1.1-.3.2-.3.4 0 .1-.1.4.3.6h.2l.3-.2s.2-.1.2-.3v-.3l-.2-.2-.1-.1h-.3l-.1.1zm-28.3-18.3c-.2.5 0 .7.1.8l.1.1h.3c.2-.1.3-.2.3-.4s0-.3-.1-.5c-.1-.1-.3-.2-.5-.2l-.2.1v.1zm-2 9.8c-.1 0-.1.1-.2.2v.2l.1.3.2.2h.2l.3-.1.2-.2v-.3l-.1-.3-.2-.2h-.2l-.3.2zm30.4 3.1-.2.2v.2l.2.3c0 .1.2.2.4.2l.2-.1.2-.2.1-.1.1-.2v-.2l-.2-.2-.1-.1h-.4l-.3.2zm3.1-13.7c-.2 0-.3 0-.4.2l.1.3c.1 0 .1 0 .1.1l.3-.1.1-.1c.1-.1.2-.1.2-.2s0-.2-.2-.3l-.2.1c0 .1 0 0 0 0zm-31-8.1c-.1.2.1.4.3.5l.3-.1c.1 0 .1-.1.2-.2l-.1-.3c0-.1-.1-.1-.2-.2h-.2c-.2.1-.3.2-.3.3zm21.9 5.4c.2.1.4-.1.4-.2l-.1-.2h-.1c-.1-.1-.2-.1-.3-.1l-.2.1c0 .1.1.3.3.4zm-6.9 4-.2-.2-.2-.1c-.3-.1-.6 0-.7.3v.3c0 .4.2.5.3.6h.3c.3 0 .5-.2.5-.4v-.5zm4.5.5v.2l.1.3.2.1c.2.1.4.1.7 0 .1-.1.2-.2.3-.4V93l-.1-.2-.2-.2-.2-.1c-.1 0-.6 0-.8.4zm-3.7-11.8c.2.2.5.4.7.6l.3-.1c0-.2-.2-.6-.5-.7-.2-.1-.3-.2-.5-.1v.3zm-7.3 5.2.1.3h.1c.1.1.2.1.3.1l.2-.1v-.1c.1-.2 0-.4-.2-.5l-.3.1c-.1.1-.2.1-.2.2zm8.8 33c-.1 0-.3.1-.4.2h-.2l-.2.1-.1.1s-.2.1-.2.3v.4l.1.3.1.1c.2.2.3.3.6.3l.3-.1.2-.2.1-.1.3-.1.2-.2.2-.3c.1-.5-.2-.8-.5-.9l-.5.1zm-9.7 4c0 .2 0 .3.1.4s.2.2.4.2l.1-.1.1-.1.2-.1.1-.2v-.3l-.1-.2-.1-.1c-.2-.1-.3-.2-.5-.1-.1.2-.3.4-.3.6zm-6-7.4v.5l.1.2.1.1.2.1.4.1.3-.1.2-.2.2-.3.1-.5-.1-.3-.2-.2-.3-.2c-.3-.1-.9.2-1 .8zm11.7 2-.2.1-.2.3c-.1.7.3 1 .5 1.1l.1.1.3.1h.2l.3-.1c.2-.1.3-.3.3-.6.1-.3 0-.6-.2-.8-.2-.2-.5-.4-.9-.4l-.2.2zm17.2 11.2.1.3.5.1.2-.2c-.1-.2-.1-.3-.1-.4 0-.1 0-.3-.1-.4l-.2-.1c-.2.1-.3.3-.3.5 0 0 0 .1-.1.2zm-42.7-23.7-.1-.3-.3.5.4-.2zm25.9 4.2-.2-.2-.3-.2h-.2l-.3.1-.3.2s-.2.1-.2.3v.4l.1.3.1.1c.1.1.2.3.6.3l.3-.1.2-.2.2-.3.1-.2-.1-.5zm5-.1h-.2l-.2.1c-.2.1-.3.3-.4.5-.1.3 0 .6.2.8l.3.2.2.1.3-.1c.2-.2.4-.3.5-.6 0-.2.1-.6-.4-.9l-.3-.1zm11 5.4c.1.1.1.1.2.1l.2-.2c.1 0 .2-.1.2-.3v-.1l-.1-.2c-.1-.1-.3-.1-.4 0-.2.2-.3.5-.1.7zm-3.2 2.9c0 .2 0 .4.1.5s.3.2.5.1l.1-.1.1-.1.1-.1.1-.2v-.1l-.1-.2-.1-.1c-.1-.1-.3-.2-.5-.1-.1.1-.2.3-.3.4zm-14.5 16.6v.1c0 .1 0 .2.1.3s.2.1.3.1h.1l.2-.2c.1-.2-.2-.4-.2-.4l-.5.1c.1-.1.1 0 0 0zm6.2-30.3-.1.2-.1.2c0 .4.2.7.4.9l.2.2.2.1h.3c.3-.1.5-.3.6-.6.1-.4-.1-.7-.4-.9-.3-.2-.6-.3-.9-.1h-.2zm-23.3 5.8-.3.1-.1.1v.1c0 .2 0 .3.1.5.2.2.5.3.6.3h.2l.2-.1.1-.1v-.1c.1-.2 0-.4-.1-.6l-.1-.1-.1-.1h-.1c-.2-.1-.3 0-.4 0zm14.5-1.4c.1 0 .2-.1.3-.3v-.4l-.1-.3-.3-.2-.2-.1-.4.1-.2.2-.2.3c-.1.6.3.8.4.9h.3l.4-.2zm18.4-31.9-.2.2.2.1v.1c.1.1.2 0 .3 0v-.1l.2.1c0-.2-.1-.3-.2-.3 0-.2-.2-.2-.3-.1zm-19.2 19.9-.3.1-.2.1-.2.2c0 .1 0 .1-.1.2-.1.6.2 1 .5 1.2l.2.1h.2l.2-.1c.2-.1.3-.3.4-.6.1-.3 0-.6-.2-.8 0-.2-.2-.4-.5-.4zm10.4 30.7-.2.2v.2l.1.3c0 .1.1.1.2.2h.2l.3-.1.2-.2v-.2l-.1-.3-.2-.2h-.2l-.3.1zM1795.1 94v-.2c-.1-.2-.3-.2-.5-.2-.1 0-.3.1-.3.3v.2c.1.2.3.2.5.2l.3-.3zm.9 27.3v.2c.1.1.3.2.5.2l.2-.1v-.1c.1-.2-.1-.4-.3-.5-.2 0-.4.1-.4.3zm43.5-20.6c0 .1.1.1.1.2.1.1.2.1.3.1v-.2.2c.2 0 .3-.2.3-.3h-.2c-.1 0-.2-.1-.3 0v.1l-.2-.1zm-20.2-10h.2c.1 0 .1.1.3.1v-.1h.2c0-.2-.2-.3-.4-.3v.2-.2c-.1 0-.1 0-.2.1 0 0-.1.1-.1.2zm10.6 39.9.3.1c.1 0 .2-.1.3-.1.1 0 .2 0 .3-.1l-.1-.3h-.1c-.1-.1-.2-.1-.5-.1l-.1.2-.1.3zm-27.9 7 .1.1c.1.1.4.2.6.1.1-.1.2-.1.2-.3l-.2-.2h.1l-.2-.2c-.5.1-.6.4-.6.5z" class="st3"/><path d="M1803.7 124.4c-.2.2-.2.3-.2.5s.2.4.4.5h.2l.3-.2.1-.2v-.1c-.1-.4-.3-.5-.5-.5h-.3zm9.2 5.3-.2.2c0 .1.1.2.2.3.1 0 .2.1.3 0l.1-.2v-.1c0-.1-.1-.3-.3-.3l-.1.1zm7.7 8.8s-.1 0 0 0l.1.2c.1 0 .2-.1.3-.1.1-.1.1-.2.1-.3v-.1l-.2-.1h-.2l-.3.2c.1.1.1.2.2.2zm-31-11.4-.2.2c0 .1 0 .1-.1.1 0 .1-.1.1-.1.2l.2.2c.2 0 .3-.1.4-.2s.1-.2.1-.3c0 0 0-.2-.3-.2zm7.5 3.3c0 .2.2.3.4.3l.2-.2v-.1c0-.1.1-.1 0-.3v-.1l-.2-.1c-.1 0-.2 0-.3.1-.1.2-.2.3-.1.4zm32.8-39.9c-.1.1-.2.2-.2.3l.2.2c.2 0 .5-.3.4-.5 0-.1-.1-.2-.2-.2l-.2.2zm-18.5 2.7c-.2-.1-.4-.2-.7-.1-.2.1-.4.3-.4.6l.1.3.1.2.1.1.1.1c.2.1.4.4.8.3.2 0 .4-.2.6-.4v-.5l-.1-.2c-.1-.3-.3-.4-.6-.4zm15.2 8.1c-.1.2-.2.3-.2.5 0 .1.1.4.5.5l.2-.1.3-.3s.1-.2.1-.4v-.1l-.1-.1-.2-.1h-.5l-.1.1zm-32.7-7.9v.2c.1.4.3.6.5.6h.1l.2-.1.1-.1c.1-.1.2-.3.1-.5s-.1-.3-.2-.4c-.2-.1-.4-.1-.5-.1l-.1.1-.2.3zm1.3 9.9c0 .1-.1.1-.1.3l.1.2.2.2s.1.1.2.1l.2-.1.3-.2s.1-.1.1-.2l-.1-.2-.2-.2s-.1-.1-.3-.1l-.2.1-.2.1zm29.7-7.1s-.1.1-.1.2l.1.2.3.3c.1 0 .2.1.5.1l.1-.1.1-.2v-.4l-.1-.2-.2-.2-.2-.1h-.2l-.1.1-.2.3zm-1.6-13.9c-.2 0-.3.1-.3.3l.2.2h.1l.3-.2v-.1c.1-.1.1-.2.1-.3 0-.1 0-.2-.2-.2l-.2.3zm-32 2.6c0 .2.2.4.4.3l.2-.2s.1-.1.1-.2l-.2-.2s-.1-.1-.2-.1l-.2.1s-.1.2-.1.3zm22.6-2.2c.2 0 .3-.2.3-.4l-.2-.2h-.1c-.1-.1-.3-.1-.4 0l-.1.2c0 .2.2.4.5.4zm-5.2 6-.2-.1h-.2c-.4 0-.6.2-.6.5l.1.2.1.1c.1.3.3.4.5.4h.1l.2-.1c.3-.1.4-.3.4-.6 0-.1-.1-.2-.1-.3l-.3-.1zm4.3-1 .1.2.2.2.2.1c.2 0 .5 0 .7-.2.1-.1.2-.3.1-.5v-.1l-.1-.1-.2-.1h-.2c-.2 0-.7.1-.8.5zm-7.3-9.9c.3.1.6.2.8.4l.3-.2c-.1-.2-.4-.4-.7-.5-.2-.1-.4 0-.5.1l.1.2zm-5.2 7.3.2.2h.1c.1 0 .2.1.4 0l.1-.2V85c0-.2-.2-.4-.4-.4l-.2.2c-.1.1-.2.2-.2.3zm19.3 28.2-.3.3-.2.1-.2.2-.1.1s-.1.2-.1.4l.1.3.2.2.1.1c.2.1.4.1.6.1l.2-.2.1-.2v-.1l.3-.2.2-.2.1-.4c-.1-.5-.4-.7-.7-.7l-.3.2zm-7.9 7.1c0 .2.1.3.2.4s.3.1.4.1l.1-.1.1-.1.1-.1.1-.2v-.3l-.1-.2-.1-.1c-.2-.1-.4-.1-.5 0-.3.2-.4.4-.3.6zm-8.1-5.1c0 .2.1.3.2.4l.2.2.2.1h.2l.4-.1.3-.2.2-.2.1-.3-.1-.5-.2-.3-.2-.2-.3-.1c-.7.2-1.1.7-1 1.2zm11.7-2-.1.2-.1.4c.1.7.6.8.8.9h.4l.2-.1.2-.2c.3-.4.2-1-.2-1.3h-.1c-.3-.2-.6-.2-.9-.1l-.2.2zm19.9 4.9.2.3.5-.1.1-.3c-.1-.1-.2-.2-.2-.3-.1-.1-.1-.2-.2-.4h-.3c-.2.2-.2.3-.1.6.1.1.1.1 0 .2zm-48.1-8.2-.2-.2-.1.6.2-.2c.1-.1.1-.1.1-.2zm25.8-4.6-.2-.2-.3-.1h-.2l-.3.2-.2.2c0 .1-.1.2-.1.4l.1.3.2.2.1.1c.1 0 .3.2.7.1l.2-.2.1-.2.1-.3v-.2l-.2-.3zm4.7-1.7-.2.1-.2.1c-.1.2-.2.4-.2.6 0 .3.2.6.4.7l.3.1h.2l.3-.2c.2-.2.3-.5.2-.7 0-.2-.1-.6-.7-.7h-.1zm12.1 1.4c.1.1.2.1.2.1l.2-.3c.1-.1.2-.1.1-.3v-.1l-.2-.1c-.1 0-.3 0-.4.1 0 .1 0 .4.1.6zm-2 3.8c0 .2.1.4.3.4.2.1.4.1.5-.1l.1-.1.1-.2v-.3l-.1-.1-.1-.2-.1-.1c-.2-.1-.4 0-.5.1-.1.2-.2.4-.2.6zm-8.1 20.4v.1c0 .1 0 .2.2.3.1.1.2 0 .3 0l.1-.1c.1-.1.1-.2.1-.3 0-.2-.3-.3-.4-.4l-.3.4zm-4.3-30.6v.4c.1.4.4.6.7.7l.2.1h.2l.2-.1c.3-.2.4-.5.4-.8s-.3-.7-.7-.8c-.3-.1-.7 0-.9.2l-.1.3zm-20.1 13.2-.2.2-.1.2v.1c0 .2.1.3.2.4.2.2.5.1.7.1l.1-.1.2-.2v-.3c0-.2-.1-.4-.3-.5h-.1l-.1-.1h-.1c0 .1-.1.1-.3.2zm13.3-6.1c.1-.1.2-.2.2-.4l-.1-.4-.2-.2-.4-.1h-.2l-.3.2-.2.2-.1.4c.1.6.6.7.7.7l.3-.1.3-.3zm6.8-36.2c-.1.1-.1.2-.1.2h.2v.1c.1.1.2-.1.2-.1v-.1h.2c0-.1-.1-.2-.3-.2 0-.1-.1 0-.2.1zM1804 94.7l-.2.2-.2.2-.1.3v.2c.1.6.5.9.8 1h.3l.2-.1.2-.2c.3-.5.2-1.1-.3-1.4-.2-.2-.4-.2-.7-.2zm19.9 25.6s-.1.1-.1.3l.1.2.2.2c.1 0 .1.1.3.1l.2-.1.2-.2s.1-.1.1-.3l-.1-.2-.2-.2s-.1-.1-.3-.1l-.2.1-.2.2zm-38-21.9c-.3-.2-.5-.2-.6-.2-.1.1-.2.2-.2.3l.1.1c.1.1.4.1.5.1.2 0 .2-.1.2-.3zm9.9 25.4.1.2c.2.1.3.1.6.1l.1-.2v-.1c0-.2-.3-.4-.5-.3-.2 0-.3.1-.3.3zm23.7-47.2h.2c.1 0 .2-.2.2-.2l-.2-.1.2.1c.1-.2.1-.4-.1-.4l-.1.2c-.1.1-.2.1-.2.4zm-19.8 10.9.1-.2c.1-.1.2-.1.2-.2h-.1l.1-.2c-.2-.1-.4 0-.5.2l.2.1-.2-.1c0 .1-.1.1-.1.2.1 0 .2.1.3.2zm38.9 14.1.3-.1c0-.1.1-.2.1-.2.1-.1.1-.2.1-.3l-.3-.1-.1.1c-.1.1-.2.1-.3.4l.1.2h.1zm-10.2 26.8h.2c.1 0 .3-.2.4-.4 0-.1 0-.2-.1-.3h-.2.1l-.3.1c-.4.4-.2.6-.1.6zm-9.8-8.9c.1.3.2.4.3.4.2.1.5.1.7 0l.1-.2v-.3l-.2-.2h-.1c-.4-.2-.6 0-.7.1l-.1.2zm9.6-4.5.1.3c.1 0 .2.1.3 0 .1 0 .1-.1.2-.2l-.1-.2h-.1c-.1-.1-.4-.2-.4.1-.1 0-.1 0 0 0zm11.6-1.3h.2c.1-.1.1-.2.1-.3 0-.1-.1-.2-.2-.2h-.1l-.2.1-.1.1v.3h.3zm-27.1 19v.2l.1.1c0 .1.1.1.1.2h.3c.1-.1.1-.3.1-.4 0-.1-.1-.2-.2-.2 0-.1-.2-.2-.4.1zm7-4.3c.2.1.4 0 .5-.1v-.3c-.1-.1-.2-.2-.3-.2l-.2.1c-.1.1-.1.2-.1.3-.1.1-.1.1.1.2zm-14.1-49.7c0 .1 0 .2.2.3l.3-.1c.1-.2 0-.6-.2-.7-.1-.1-.2 0-.3.1v.4zm-8.3 16.6c-.2.1-.4.3-.4.6 0 .2.1.5.3.7l.3.1h.5c.2-.1.5-.1.7-.5.1-.2.1-.5 0-.7l-.4-.3h-.3v-.1c-.4 0-.6.1-.7.2z" class="st3"/><path d="M1812.6 87.5c.1.2.1.3.3.4.1 0 .4.2.7-.2l.1-.2-.1-.4s-.1-.2-.3-.3h-.3l-.2.1-.1.1-.1.2v.3zm-25.1 22.4c.5.3.7.2.9.1l.1-.1.1-.2v-.1c0-.2-.2-.3-.3-.4s-.3-.1-.5 0-.3.2-.4.4v.2l.1.1zm8.8 4.6c0 .1.1.2.2.2l.2.1.3-.1.2-.2.1-.2-.1-.4-.2-.2-.2-.1-.3.1-.2.2-.1.2.1.4zm11.1-28.5.2.2.2.1.4-.1c.1 0 .2-.1.3-.4v-.2l-.1-.2-.1-.1-.2-.1h-.2l-.3.1-.1.1-.1.2v.4zm-12.3-6.6c0 .1-.1.3 0 .4l.3-.1s0-.1.1-.1v-.3s0-.1-.1-.1c-.1-.1-.1-.2-.2-.2-.1-.1-.3 0-.3.1l.2.3zm-16.1 27.8c.2.1.4.1.5-.1l-.1-.3c0-.1 0-.1-.1-.2h-.3c-.1 0-.1 0-.2.1v.2c0 .1.1.2.2.3zm11-19.8c.1-.2 0-.4-.1-.5h-.3c-.1.1-.2.1-.2.3l.1.2c.2.2.4.2.5 0zm2 7.7-.2.1-.1.2c-.2.3-.2.6.1.8l.2.1h.1c.4.1.6-.1.6-.2v-.3c.1-.3 0-.5-.2-.6-.1-.1-.2-.1-.3-.1h-.2zm1.7-4.1.2.1h.3l.2-.1c.1-.1.2-.4.2-.7 0-.2-.2-.3-.3-.4 0 0-.1 0-.1-.1h-.2l-.2.1-.1.1c-.2.2-.3.6 0 1zm-12.4.3c.2-.2.5-.4.8-.5v-.4c-.2-.1-.6.1-.8.2-.2.1-.2.3-.2.4l.2.3zm3.1 8.5h.4c.1-.1.2-.1.2-.3l-.1-.2s-.1 0-.1-.1c-.2-.1-.4-.1-.5.1l.1.3c-.1 0 0 .1 0 .2zm34.2.2c0 .1 0 .3.1.4v.2l.1.2v.1c0 .1.1.2.2.3l.4.1.3-.1h.1c.2-.1.3-.3.4-.5v-.3l-.1-.2-.1-.1v-.3l-.1-.3-.3-.3c-.5-.2-.8-.1-1 .2l-.1.3.1.3zm1.3 10.5c.2.1.3.1.5 0l.3-.3v-.2l-.1-.1v-.2l-.1-.2-.2-.1h-.4c-.2.1-.3.3-.3.5 0 .3.1.5.3.6zm-8.8 3.8c.1.1.3.1.4.1l.2-.1.2-.1.2-.2.2-.4v-.3l-.1-.3-.2-.3-.4-.2h-.3l-.3.1-.3.2c-.2.6-.1 1.2.4 1.5zm5.1-10.8.1.2.3.3c.6.3 1 0 1.2-.2l.1-.1.2-.2.1-.2v-.3c-.1-.2-.2-.4-.4-.5-.3-.1-.6-.1-.8 0-.3.1-.5.4-.6.7l-.2.3zm15.4-13.6h.3l.2-.4-.2-.3h-.4c-.1 0-.3-.1-.5 0l-.2.2c0 .2.2.3.4.4.2 0 .3.1.4.1zm-34.3 34.9h-.3l.4.4-.1-.4c.1.1.1 0 0 0zm11-23.8-.3.1-.3.2-.1.2v.3l.1.3c0 .1.1.2.2.3l.4.1.3-.1h.1c.1 0 .3-.2.4-.5v-.3l-.1-.2-.2-.2-.2-.1-.3-.1zm1.3-4.9-.1.2v.2c.1.2.2.4.4.5.3.1.6.2.8.1l.2-.2.1-.2v-.3c-.1-.3-.2-.5-.4-.6-.2-.1-.5-.2-1 .2v.1zm8-9.1c.1 0 .2-.1.2-.2l-.1-.3c0-.1-.1-.2-.2-.3h-.1l-.2.1c-.1.1-.1.2-.1.4s.3.4.5.3zm2 3.8c.2.1.4.1.5 0 .2-.1.2-.3.3-.5v-.1l-.1-.2-.1-.1-.2-.1h-.3l-.1.1c-.2.1-.2.3-.2.5-.1.1.1.3.2.4zm12.1 18.3s.1.1 0 0c.1.1.3.1.4.1s.1-.1.2-.3v-.1c0-.1-.1-.2-.2-.2-.2-.1-.4.1-.5.1l.1.4zm-27.5-13.9.1.2.2.1c.4.1.7 0 .9-.1l.2-.2.1-.2.1-.2c0-.3-.2-.6-.4-.8-.3-.2-.7-.1-1 .1s-.4.6-.3.9l.1.2zm-.6 24v.3l.1.1.1.1c.2.1.3.1.5 0 .3-.1.4-.4.5-.5v-.2l-.1-.2-.1-.1h-.1c-.2-.1-.4-.1-.6-.1h-.1l-.1.1-.1.1c-.1.1-.1.3 0 .4zm2.5-14.4c0-.2-.1-.3-.2-.4l-.4-.1-.3.1-.3.2-.1.2v.4l.1.3.3.3c.6.3.9-.1 1-.2l.1-.3-.2-.5zm-25.9-26.2c0 .1.1.2.2.2l.1-.2h.1c.1 0 .1-.2 0-.3h-.1l.1-.2c-.1-.1-.3 0-.3.1-.1.1-.1.2-.1.4zm14.1 23.8v.3l.1.2.2.2c.1 0 .1.1.2.1.6.3 1 .1 1.3-.1l.1-.2v-.4c-.1-.2-.3-.4-.5-.5-.3-.1-.6-.2-.8-.1-.3 0-.5.2-.6.5zm32.4-1.8.2.2.2.1.3-.1c.1 0 .2-.1.2-.2l.1-.2-.1-.3-.2-.2-.2-.1-.3.1-.2.2-.1.2.1.3zm-39.7 18.7h-.2c-.2.1-.3.2-.3.4s.1.3.2.4h.2c.2-.1.3-.2.3-.4s0-.3-.2-.4zm26.6 6.4h.2c.2-.1.3-.2.4-.4l-.1-.2c-.2-.1-.4 0-.6.2-.1.1-.1.3.1.4zm13.7-38.4c0 .1.1.1.1.2.1.1.2 0 .3 0l-.1-.2.1.2c.2-.1.3-.2.3-.4l-.2.1c-.1 0-.2-.1-.3 0v.1h-.2zm-21.7-6.1.2-.1c.1 0 .1.1.3 0V81l.2-.1c-.1-.2-.3-.3-.5-.2l.1.2-.1-.2c-.1 0-.1.1-.2.1-.1.2-.1.3 0 .4zm17.8 37.2.3.1c.1-.1.2-.1.2-.1.1 0 .2-.1.3-.2l-.2-.3h-.1c-.2-.1-.3 0-.5 0l-.1.2.1.3zm-26 12.1.1.1c.1 0 .4.1.6 0 .1-.1.1-.2.1-.3l-.2-.1h.1l-.2-.1c-.6 0-.5.3-.5.4zm-.8-13.2c-.1.2-.2.4-.1.5.1.2.3.4.5.4l.2-.1.2-.3v-.3c-.1-.4-.4-.4-.6-.4h-.1l-.1.2zm10 3.4-.2.3c0 .1.1.2.2.2h.3l.1-.2v-.1c0-.1-.1-.3-.4-.2zm9.2 7.3s-.1-.1 0 0l.2.2c.1 0 .2-.1.3-.2 0-.1.1-.2 0-.3v-.1l-.2-.1h-.2l-.2.3c-.1.1 0 .1.1.2zm-32.6-5.5-.2.2v.4l.2.2c.1 0 .3-.1.3-.2.1-.1.1-.2 0-.3 0-.1 0-.3-.3-.3zm7.9 1.8c.1.2.2.3.4.2l.1-.2v-.4s0-.1-.1-.1l-.2-.1c-.2 0-.4.2-.4.4l.2.2zm24.8-45.2c-.1.1-.1.2-.1.3l.2.2c.2-.1.4-.4.3-.6 0-.1-.1-.2-.3-.2l-.1.3c0-.1 0 0 0 0zm-17.6 6c-.2 0-.5-.1-.7.1s-.3.4-.3.7l.1.3.2.2.2.1h.1c.2.1.5.3.9.2.2-.1.4-.2.5-.5l-.1-.5-.2-.2v-.1c-.2-.2-.4-.3-.7-.3zm16.5 5.1c-.1.1-.1.3-.1.5 0 .1.2.4.6.4l.2-.1.2-.3s.1-.2 0-.4v-.1l-.1-.1-.2-.1h-.2l-.2.1-.1.1h-.1zm-33.7-1.6v.2c.2.4.4.5.6.5h.1l.2-.1.1-.1c.1-.2.1-.3.1-.5s-.2-.3-.3-.4c-.2-.1-.4-.1-.5 0l-.1.1-.2.3zm3.2 9.5c0 .1-.1.2-.1.3l.1.2.3.2s.1.1.3.1l.2-.1.2-.3s.1-.1 0-.2l-.1-.2-.3-.2s-.1-.1-.3-.1l-.2.1-.1.2zm27.8-12.6s-.1.1 0 .3l.1.2.3.2c.1 0 .2.1.5 0l.1-.1.1-.2v-.2l-.1-.2-.1-.1-.2-.1h-.4l-.1.1-.2.1zm-4.2-13.3c-.1.1-.3.2-.3.4l.3.2h.2l.2-.2v-.1c0-.1.1-.2 0-.3 0-.1-.2-.2-.3-.2l-.1.2zm-30.9 8.5c.1.2.3.3.4.3l.2-.2c0-.1.1-.1.1-.2l-.2-.2c-.1 0-.2-.1-.2-.1l-.2.1c-.1 0-.1.2-.1.3zm21.7-6.4c.2-.1.3-.2.2-.4l-.2-.1h-.1c-.1 0-.2 0-.4.1l-.1.2c.2.2.4.3.6.2zm-4 6.9-.2-.1h-.2c-.3.1-.5.3-.5.6l.1.2.1.1c.2.3.4.3.5.3h.1l.2-.1c.2-.2.3-.4.2-.6 0-.1-.1-.2-.3-.4zm4.1-1.8.1.2.2.2h.2c.2 0 .5-.1.6-.4.1-.1.1-.3 0-.5v-.1l-.1-.1-.2-.1h-.2c-.1.2-.6.4-.6.8zm-9-8.3c.3 0 .6.1.9.2l.2-.3c-.1-.2-.5-.4-.8-.4-.2 0-.4 0-.5.2l.2.3zm-3.8 8.2.2.2h.1c.1 0 .2 0 .4-.1l.1-.2v-.1c-.1-.2-.2-.3-.5-.3l-.2.2c0 .1-.1.2-.1.3zm24.3 24.1c-.1.1-.2.2-.2.4l-.2.1-.1.2v.1c0 .1-.1.2-.1.4l.2.3.2.2.1.1c.2.1.4.1.7-.1l.2-.2.1-.2v-.1l.2-.2.1-.3v-.4c-.2-.5-.6-.6-.9-.6l-.3.3zm-6.5 8.4c.1.2.2.3.3.3.1.1.3 0 .4 0l.1-.1.1-.1.1-.1v-.2l-.1-.2-.1-.1-.1-.1-.1-.1c-.2-.1-.4 0-.5.1s-.1.4-.1.6zm-8.9-3.5c.1.1.1.3.2.4l.2.1.2.1h.2l.4-.1.3-.2.1-.2v-.3l-.2-.5-.2-.3-.2-.1h-.3c-.5 0-.8.6-.7 1.1z" class="st3"/><path d="m1806.1 104.2-.1.2v.4c.2.6.8.7 1 .7h.4l.2-.1.2-.2c.1-.2.1-.4 0-.7-.1-.3-.3-.5-.6-.6-.3-.1-.6-.1-.9.1l-.2.2zm20.5 1 .2.2.5-.2.1-.3c-.1-.1-.2-.2-.2-.3l-.3-.3-.3.1c-.1.2-.1.4 0 .6v.2zm-48.8.9-.2-.2v.6l.2-.2c-.1 0 0-.1 0-.2zm24.4-9.3-.2-.1h-.3l-.2.1-.2.2-.2.3c0 .1-.1.2-.1.4l.2.3.2.2.1.1c.1 0 .3.1.7-.1l.2-.2.1-.2v-.3l-.1-.2-.2-.5zm4.3-2.5-.2.1-.2.2c-.1.2-.1.4-.1.7.1.3.3.5.6.6h.3l.2-.1.2-.2c.1-.3.2-.5.1-.7s-.2-.5-.9-.6zm12.2-.9h.2l.1-.3c0-.1.1-.2.1-.3 0 0 0-.1-.1-.1l-.2-.1c-.1 0-.3.1-.3.2-.1.1 0 .5.2.6zm-1.2 4.1c.1.2.2.3.4.4.2 0 .4 0 .5-.2l.1-.1.1-.2v-.1l-.1-.2-.1-.1-.2-.1-.1-.1c-.2 0-.4 0-.5.2s-.2.3-.1.5zm-4.3 21.6s.1 0 0 0c0 .1.1.3.2.3s.2 0 .3-.1l.1-.1c.1-.1.1-.2 0-.3-.1-.2-.3-.2-.4-.3l-.2.5c0-.1 0 0 0 0zm-9.8-29.3v.2l.1.2c.2.4.5.5.8.6h.3l.2-.1.2-.1c.2-.2.3-.6.2-.8-.1-.3-.4-.6-.8-.6-.3 0-.7.1-.9.4l-.1.2zm-17.3 16.7-.2.3v.3c.1.2.2.3.3.4.3.1.6 0 .7-.1l.1-.1.1-.2v-.2c-.1-.2-.2-.4-.3-.5h-.3c-.2-.1-.3 0-.4.1zM1798 98c.1-.1.1-.3.1-.5l-.2-.3-.2-.2-.4-.1-.3.1-.3.2-.1.3v.4c.2.6.7.6.8.6l.3-.2.3-.3zm-.1-36.9c0 .1-.1.2 0 .2l.2-.1v.1c.1 0 .2-.1.2-.2V61l.2-.1c0-.1-.2-.2-.3-.2-.2.2-.3.3-.3.4zm-6.6 26.9-.2.2-.1.2v.3c0 .1 0 .1.1.2.2.6.7.8 1 .8l.2-.1.2-.1.2-.2c.1-.2.1-.5 0-.7-.1-.3-.3-.5-.5-.6-.4-.1-.7-.1-.9 0zm24.4 21.4s-.1.1-.1.3l.1.2.3.2c.1 0 .2.1.3.1l.2-.1.2-.3s.1-.1.1-.3l-.1-.2-.3-.2s-.1-.1-.3-.1l-.2.1-.2.3zM1774.2 95c-.3-.2-.5-.2-.6 0-.1.1-.2.2-.1.4l.1.1c.2.1.4.1.5-.1.1-.1.2-.2.1-.4zm14.5 23.2c.3.2.5.1.7 0l.1-.2c-.1-.2-.3-.3-.5-.2s-.4.2-.3.4z" class="st3"/></g></g><path d="M1794.2 102.3c2.4 4.8 7 11.9 14.5 14.4 1.8.6 3.6.9 5.3 1.1 8.4.6 15-4.1 16.4-5.1.9 0 1.9-.1 2.7-.1 1-.1 2.1-.2 3.2-.3 1.3.7 5.3 2.8 10.6 3.2 3.3.2 5.1.5 8.9-1.6 8.5-4.9 8.3-14.6 8.4-15.2l.3-3.4-28.7 14.7c-1 0-2 .1-2.9.1-.9.1-1.9.2-2.8.3L1791.4 95l.8 2.5c0 .1.2.8.6 1.7"/><path d="M1806 108.6c.7.5 1.5 1 2.3 1.5-.6-1-1.2-2-1.9-3-.7-.9-1.4-1.9-2.2-2.7l-3.4-3.4 1.6 4.6c.1.3.2.7.3 1l-.9-.6c-.7-.4-1.3-.9-2-1.3-.6-.3-1.7-.9-1.9-1.1-.3-.3-.1.4 0 .4l.4.5.7 1c.5.6 1.1 1.2 1.6 1.8.5.6 1.1 1.2 1.7 1.7l.9.8c.2.1.2.2.6.5.2.1.4.2.8.3.3.1 1.2-.2 1.4-.7l.2-.5-.1-.4c0-.1-.1-.2-.1-.4zm-1-.2c.1.1 0 .1 0 0zm58.1-5.5c-.2.1-1.4.6-2 .8-.8.3-1.5.7-2.2 1.1-.3.2-.7.3-1 .5.2-.3.3-.7.5-1l2.2-4.4-3.8 2.9c-.9.7-1.7 1.6-2.5 2.4s-1.6 1.7-2.3 2.7c.8-.3 1.7-.7 2.5-1.2-.1.2-.2.3-.2.5l-.2.4.2.6c.2.6 1 .9 1.3.9.4 0 .6-.1.8-.2.5-.2.5-.3.7-.4l1-.7c.7-.4 1.3-.9 1.9-1.5.6-.5 1.2-1 1.8-1.6l.9-.9.4-.4s.3-.7 0-.5zm-7.7 3.8c0 .1 0 .1 0 0z" class="st3"/><path d="M1833.9 114.7s2.7 3.8 4.2 5.2c1.4 1.3-1.2 2.2-3.7 2-1.6-.1 3.4-.5 2.5-2.1-.3-.5-1.3-2.3-3-5.1z"/><path d="M1843.3 121.6c-.7 2.1-2.1 3.7-3.7 4.8-1.6 1.1-3.6 1.5-5.5 1.3s-3.7-1.1-5.4-2.3c-1.7-1.2-3.5-2.4-4.3-4.4 0 2.3 1.8 4.2 3.4 5.6 1.6 1.5 3.7 2.8 6.2 3 2.4.2 4.8-.5 6.6-2 1.7-1.5 2.7-3.8 2.7-6z"/><path d="M1814.5 119.9c.8 0 1.6-.1 2.3.3s1.2 1.2.9 1.9c-.3.8-1.2 1-2.1 1-1.1 0-2.2-.2-3.3-.7-.4-.2-.9-.6-.7-1.1.1-.2.3-.3.5-.4 1.7-.9 3.3-1 5.1-.2m33.2-2.5c.8 0 1.6-.1 2.3.3s1.2 1.2.9 1.9c-.3.8-1.2 1-2.1 1-1.1 0-2.2-.2-3.3-.7-.4-.2-.9-.6-.7-1.1.1-.2.3-.3.5-.4 1.7-.9 3.3-1 5.1-.2" class="st0"/><path d="M161.8 998.7c-9.9-.8-20.8 2.2-25.6 13.8-2.5 6.1-.9 18.3 10.3 20.3l-6.9 1.1s-1.5 28.9 32.3 29.2l2.4.2c-7.6 6.8-17.6 11-28.6 11-23.5 0-42.6-19.1-42.6-42.6s19.1-42.6 42.6-42.6c6.3 0 9.4.6 14.7 3 0 0 6.9 2.8 10.2 7.6.2 0-6.5-.9-8.8-1z" class="st2"/><defs><path id="SVGID_3_" d="M161.8 998.7c-9.9-.8-20.8 2.2-25.6 13.8-2.5 6.1-.9 18.3 10.3 20.3l-6.9 1.1s-1.5 28.9 32.3 29.2l2.4.2c-7.6 6.8-17.6 11-28.6 11-23.5 0-42.6-19.1-42.6-42.6s19.1-42.6 42.6-42.6c6.3 0 9.4.6 14.7 3 0 0 6.9 2.8 10.2 7.6.2 0-6.5-.9-8.8-1z"/></defs><clipPath id="SVGID_4_"><use xlink:href="#SVGID_3_" style="overflow:visible"/></clipPath><path d="M111.1 1003.6c-1.9 2.5-3 5.5-4.1 8.4-1.4 3.9-2.6 7.9-3.5 11.9-.7 3-1.5 6.3-1.3 9.4.2 5.3 1.9 10.5 3.9 15.3 1.7 3.9 3.7 7.7 6.3 11.1s5.9 6.1 9.3 8.5c1.8 1.3 3.6 2.5 5.7 3.3 2.2.9 4.4 1.6 6.7 2.2 4.6 1.2 9.1 1.5 13.8 1.1 5.5-.5 11-1.7 16.1-3.9 4.2-1.8 8.4-4.3 11.1-8.1.9-1.3-1.2-2.5-2.1-1.2-2.1 3.2-5.7 5.2-9.1 6.8-4.2 1.9-8.9 3.1-13.4 3.8-4.4.6-8.9.7-13.3-.1-4-.8-8.3-1.9-11.8-4.2s-6.9-4.9-9.8-8c-2.6-2.9-4.7-6.2-6.3-9.7-2.1-4.5-3.8-9.2-4.5-14.1-.5-3.2-.2-6.1.4-9.3.8-4.2 2-8.4 3.4-12.5 1-3 2.1-6.5 4.1-9.1 1-1.1-.6-2.8-1.6-1.6z" style="clip-path:url(#SVGID_4_);fill:#42e8b9"/><path d="M107.8 1019.3c1.6 3.2 4.7 8 9.7 9.7 1.2.4 2.4.6 3.5.7 5.6.4 10.1-2.7 11-3.4.6 0 1.2-.1 1.8-.1.7-.1 1.4-.1 2.2-.2.9.5 3.6 1.9 7.1 2.1 2.2.2 3.4.3 6-1.1 5.7-3.3 5.6-9.8 5.7-10.2l.2-2.3-19.3 9.9c-.7 0-1.3.1-2 .1-.6.1-1.2.1-1.9.2l-26-10.2.5 1.7c0 .1.2.5.4 1.2"/><path d="M115.7 1023.6c.5.3 1 .7 1.5 1-.4-.7-.8-1.4-1.3-2s-.9-1.3-1.5-1.8l-2.3-2.3 1.1 3.1c.1.2.2.5.2.7-.2-.1-.4-.3-.6-.4-.5-.3-.9-.6-1.4-.9-.4-.2-1.2-.6-1.3-.7-.2-.2 0 .3 0 .3l.2.3.5.7c.3.4.7.8 1.1 1.2.3.4.7.8 1.1 1.2l.6.6c.1.1.1.2.4.4.1.1.2.2.5.2.2.1.8-.1.9-.5l.2-.3-.1-.3c.3-.3.2-.4.2-.5zm-.7-.1c.1 0 .1 0 0 0zm39.1-3.8c-.1.1-.9.4-1.4.5-.5.2-1 .5-1.5.7l-.6.3c.1-.2.2-.4.3-.7l1.5-2.9-2.6 2c-.6.5-1.1 1.1-1.7 1.6-.6.5-1.1 1.2-1.6 1.8.6-.2 1.1-.5 1.7-.8-.1.1-.1.2-.2.3l-.1.3.1.4c.1.4.7.6.9.6s.4-.1.5-.1c.3-.2.4-.2.5-.3l.7-.5c.4-.3.9-.6 1.3-1s.8-.7 1.2-1.1l.6-.6.3-.3c.1.1.4-.3.1-.2z" class="st3"/><path d="M126.5 1036.1c2.2 1.2 4.4 1.7 6.9 2.1s4.4 0 6.5-1.6c-1.4 6.2-11.4 4.6-13.4-.5z" style="fill:#0cc691"/><path d="M113.6 1031.3c.4-.1.9-.2 1.4 0s.8.6.7 1.1c-.1.4-.7.7-1.1.7-.6.1-1.3 0-1.9-.2-.3-.1-.6-.3-.5-.6 0-.1.1-.2.2-.3.9-.6 1.8-.8 2.9-.5" class="st0"/><path d="M135.4 1032.8c3.6 1.1 7.3.2 10.9-.1-3.3 1.7-7.9 2.5-10.9.1z" style="fill:#42e8b9"/><path d="M113.1 829.8c-.6-1.4-2.2-2-3.6-1.4s-2 2.2-1.4 3.6c0 .1.1.2.1.2-3.4 2.1-6.6 4.3-9.8 6.6-3.2 2.2-6.3 4.5-9.3 6.9-.9-1.3-2.6-1.9-4.1-1.2-1.7.7-2.4 2.7-1.7 4.3.5 1.2 1.6 1.9 2.8 2 .3 3.2.7 6.5 1.2 9.7-.1 0-.2.1-.3.1-1.4.6-2 2.2-1.4 3.6.6 1.4 2.2 2 3.6 1.4s2-2.2 1.4-3.6c-.5-1.1-1.6-1.7-2.7-1.6.1-3.3 0-6.6-.1-9.9 1-.5 1.7-1.5 1.8-2.6 3.3-2.4 6.7-4.9 9.9-7.5 3.1-2.4 6.2-5 9.1-7.6.8.8 2 1.1 3.1.7 1.4-.8 2-2.4 1.4-3.7 0-.1 0-.1 0 0z" class="st3"/><path d="m1838.9 1064.6 16.7-3.5-15.9-4-4.1-16.5-4 16.5-14.6 3.7 15.2 3.7 3.1 14.8 3.6-14.7zM60.8 645.4c-3.3-1.8-5.7-5.4-6.3-9.7-.7 4.3-3.1 8-6.3 9.7-.6.3-2.2.9-2.2.9s1.6.5 2.2.9c3.3 1.8 5.7 5.4 6.3 9.7.7-4.3 3.1-8 6.3-9.7.6-.3 2.2-.9 2.2-.9s-1.6-.6-2.2-.9zm1631.5-423c-4.2-2.3-7.3-6.9-8.2-12.5-.9 5.6-4 10.3-8.2 12.5-.8.4-2.9 1.1-2.9 1.1s2.1.7 2.9 1.1c4.2 2.3 7.3 6.9 8.2 12.5.9-5.6 4-10.3 8.2-12.5.8-.4 2.9-1.1 2.9-1.1s-2-.6-2.9-1.1z" class="st2"/><path d="M192.5 917.1c-2.5-1.3-4.4-4.1-4.9-7.5-.5 3.3-2.4 6.1-4.9 7.5-.5.3-1.7.7-1.7.7s1.2.4 1.7.7c2.5 1.3 4.4 4.1 4.9 7.5.5-3.3 2.4-6.1 4.9-7.5.5-.3 1.7-.7 1.7-.7s-1.2-.5-1.7-.7z" class="st1"/><path d="M1862.2 757.5c-1.2 2.4-2.5 4.6-3.9 6.9-2.8 4.5-5.7 8.8-8.9 12.9-1.6 2.1-3.2 4.1-5 6.1 1.2-2.4 2.5-4.6 3.9-6.9 2.8-4.5 5.7-8.8 8.9-12.9 1.6-2.1 3.2-4.2 5-6.1zm-18.6 26.2c-1.4.5-2.9.8-4.3 1.1s-2.9.5-4.4.6-2.9.2-4.4.2-2.9 0-4.4-.3c1.4-.5 2.9-.8 4.3-1.1s2.9-.5 4.4-.6 2.9-.2 4.4-.2c1.4 0 2.9 0 4.4.3zm19.1-27.4c-.2-1.8-.3-3.5-.3-5.3s.1-3.5.2-5.2.3-3.5.6-5.2c.3-1.7.6-3.5 1.1-5.2.2 1.8.3 3.5.3 5.3s-.1 3.5-.2 5.2-.3 3.5-.6 5.2c-.3 1.8-.6 3.5-1.1 5.2zm31.9-17.5c-2.5.2-5 .1-7.6 0-5-.2-10-.6-15-1.3-2.5-.3-5-.8-7.4-1.3 2.5-.2 5-.1 7.6 0 2.5.1 5 .2 7.5.5 2.5.2 5 .5 7.5.8s5 .7 7.4 1.3zm-1.6 21.5c-2.6.1-5.2.1-7.8 0-2.6-.1-5.2-.3-7.7-.5-2.6-.2-5.1-.5-7.7-.9s-5.1-.8-7.6-1.4c2.6-.1 5.2-.1 7.8 0s5.2.3 7.7.5c2.6.2 5.1.5 7.7.9 2.5.4 5.1.8 7.6 1.4z" class="st3"/><path d="M1894.8 736.8c.2 2 .2 4 .1 5.9-.1 2-.2 3.9-.4 5.9s-.4 3.9-.8 5.8c-.3 1.9-.7 3.9-1.2 5.8-.2-2-.2-4-.1-5.9.1-2 .2-3.9.4-5.9s.4-3.9.8-5.8c.2-1.9.6-3.9 1.2-5.8z" class="st3"/><circle cx="1892.9" cy="759.9" r="2.3" class="st3"/><circle cx="1894.6" cy="738.8" r="2.2" class="st3"/><circle cx="1862.2" cy="757.5" r="2.4" class="st3"/><circle cx="1864.4" cy="736.7" r="2.4" class="st3"/><circle cx="1843.8" cy="783.2" r="1.8" class="st3"/><circle cx="1826.1" cy="785.4" r="1.8" class="st3"/><path d="m150 135 15-2.3.3-5.4-8.9 1.4.2-3.6 7.4-1.1.3-5.1-7.4 1.1.2-3.2 8.6-1.3.3-5.4-14.7 2.3L150 135zM185.5 106.9l-17.9 2.8-.3 5.5 5.9-.9-1 17.3 6.1-.9 1-17.3 5.9-.9.3-5.6zM196.9 105.1l-5.6.9-8.5 23.9 6.2-1 1.3-4.6 5.4-.8.8 4.3 6.2-.9-5.8-21.8zm-5.3 14.9 2.1-7.3 1.3 6.8-3.4.5zM118.1 132.2c.4-.8.6-1.6.8-2.5.1-.9.1-1.7 0-2.5s-.3-1.4-.7-2c-.3-.6-.8-1.1-1.3-1.4-.6-.3-1.3-.4-2.1-.3-.9.1-1.8.5-2.4 1-.7.6-1.2 1.2-1.6 2-.4.8-.6 1.6-.8 2.5s-.1 1.7 0 2.5.3 1.4.7 2.1c.3.6.8 1.1 1.4 1.4.6.3 1.3.4 2.1.3 1-.2 1.8-.5 2.5-1.1.5-.6 1-1.2 1.4-2zM76.5 125c.2 0 .4-.2.3-.5 0-.2-.2-.4-.5-.3-.2 0-.4.2-.3.5.1.1.3.3.5.3zM78.2 124.8c.3 0 .4-.3.4-.5 0-.3-.3-.4-.5-.4-.3 0-.4.3-.4.5s.2.4.5.4zM79.8 124.6c.3 0 .5-.3.4-.6 0-.3-.3-.5-.6-.4-.3 0-.5.3-.4.6.1.2.3.4.6.4zM81.5 124.4c.3 0 .5-.3.5-.6s-.3-.5-.6-.5-.5.3-.5.6.3.5.6.5zM83.1 124.2c.3-.1.6-.4.5-.7-.1-.3-.4-.6-.7-.5s-.6.4-.5.7c.1.3.4.5.7.5zM84.7 124c.4-.1.6-.4.5-.7s-.4-.6-.7-.5-.6.4-.5.7c0 .3.4.5.7.5zM86.4 123.7c.4-.1.6-.4.6-.8s-.4-.6-.8-.6c-.4.1-.6.4-.6.8s.4.7.8.6zM88 123.5c.4-.1.7-.4.6-.8-.1-.4-.4-.7-.8-.6-.4.1-.7.4-.6.8 0 .4.4.7.8.6zM72.1 126.9c0-.1-.2-.2-.3-.2-.1 0-.2.2-.2.3 0 .1.2.2.3.2.1 0 .2-.2.2-.3zM73.5 127c.2 0 .3-.2.3-.4s-.2-.3-.4-.3-.3.2-.3.4c.1.2.3.3.4.3zM75.1 126.8c.2 0 .3-.2.3-.4s-.2-.3-.4-.3-.3.2-.3.4c.1.1.2.3.4.3zM76.7 125.8c-.2 0-.4.2-.3.5 0 .2.2.4.5.3.2 0 .4-.2.3-.5-.1-.2-.3-.4-.5-.3zM78.3 125.4c-.3 0-.4.3-.4.5 0 .3.3.4.5.4s.4-.3.4-.5-.3-.4-.5-.4zM79.9 125.2c-.3 0-.5.3-.4.6 0 .3.3.5.6.4.3 0 .5-.3.4-.6 0-.3-.3-.5-.6-.4zM81.5 124.9c-.3 0-.5.3-.5.6s.3.5.6.5.5-.3.5-.6c0-.4-.2-.6-.6-.5zM83.1 124.6c-.3.1-.6.4-.5.7.1.3.4.6.7.5.3-.1.6-.4.5-.7 0-.4-.3-.6-.7-.5zM84.8 124.3c-.4.1-.6.4-.5.7s.4.6.7.5.6-.4.5-.7c0-.3-.4-.6-.7-.5zM86.4 124c-.4.1-.6.4-.6.8s.4.6.8.6c.4-.1.6-.4.6-.8-.1-.4-.4-.7-.8-.6zM73.7 127.9c-.2 0-.3.2-.3.4s.2.3.4.3.3-.2.3-.4c-.1-.2-.2-.3-.4-.3zM75.3 127.7c-.2 0-.3.2-.3.4s.2.3.4.3.3-.2.3-.4-.2-.4-.4-.3zM76.9 127.4c-.2 0-.4.2-.3.5 0 .2.2.4.5.3s.4-.2.3-.5c-.1-.2-.3-.4-.5-.3zM78.5 127c-.3 0-.4.3-.4.5 0 .3.3.4.5.4s.4-.3.4-.5-.2-.4-.5-.4zM80.1 126.7c-.3 0-.5.3-.4.6 0 .3.3.5.6.4.3 0 .5-.3.4-.6 0-.2-.3-.4-.6-.4zM81.8 126.5c-.3 0-.5.3-.5.6s.3.5.6.5.5-.3.5-.6c0-.4-.3-.6-.6-.5zM83.4 126.2c-.3.1-.6.4-.5.7.1.3.4.6.7.5.3-.1.6-.4.5-.7-.1-.4-.4-.6-.7-.5zM85 125.9c-.4.1-.6.4-.5.7.1.4.4.6.7.5s.6-.4.5-.7c0-.3-.3-.6-.7-.5zM69.3 130.6c0-.1-.1-.2-.2-.2s-.2.1-.2.2.1.2.2.2.2-.1.2-.2zM70.9 130.3c0-.1-.1-.2-.3-.2-.1 0-.2.1-.2.3 0 .1.1.2.3.2.2-.1.2-.2.2-.3zM72.1 130.1c0 .1.2.2.3.2.1 0 .2-.2.2-.3 0-.2-.2-.2-.3-.2-.1.1-.2.2-.2.3zM73.9 129.6c-.2 0-.3.2-.3.4s.2.3.4.3.3-.2.3-.4c0-.3-.2-.4-.4-.3zM75.5 129.3c-.2 0-.3.2-.3.4s.2.3.4.3.3-.2.3-.4-.2-.4-.4-.3zM77.2 129c-.2 0-.4.2-.3.5 0 .2.2.4.5.3.2 0 .4-.2.3-.5-.1-.2-.3-.4-.5-.3zM78.8 128.6c-.3 0-.4.3-.4.5 0 .3.3.4.5.4s.4-.3.4-.5-.3-.4-.5-.4zM80.6 129.4c.3 0 .5-.3.4-.6 0-.3-.3-.5-.6-.4-.3 0-.5.3-.4.6 0 .2.3.4.6.4zM82 128c-.3 0-.5.3-.5.6s.3.5.6.5.5-.3.5-.6-.3-.5-.6-.5zM83.6 127.8c-.3.1-.6.4-.5.7.1.3.4.6.7.5.3-.1.6-.4.5-.7 0-.4-.3-.6-.7-.5zM67.7 132.3c-.1 0-.1.1-.1.1 0 .1.1.1.1.1.1 0 .1-.1.1-.1l-.1-.1zM69.5 132.2c0-.1-.1-.2-.2-.2s-.2.1-.2.2.1.2.2.2.2-.1.2-.2zM71.2 131.9c0-.1-.1-.2-.3-.2-.1 0-.2.1-.2.3 0 .1.1.2.3.2.1-.1.2-.2.2-.3zM72.5 131.4c-.1 0-.2.2-.2.3 0 .1.2.2.3.2.1 0 .2-.2.2-.3 0-.1-.1-.2-.3-.2zM74.2 131.1c-.2 0-.3.2-.3.4s.2.3.4.3.3-.2.3-.4c-.1-.2-.3-.3-.4-.3zM75.8 130.9c-.2 0-.3.2-.3.4s.2.3.4.3.3-.2.3-.4-.2-.4-.4-.3zM77.5 131.3c.2 0 .4-.2.3-.5 0-.2-.2-.4-.5-.3-.2 0-.4.2-.3.5.1.2.3.4.5.3zM79.2 131.2c.3 0 .4-.3.4-.5 0-.3-.3-.4-.5-.4s-.4.3-.4.5.2.4.5.4zM80.8 131c.3 0 .5-.3.4-.6 0-.3-.3-.5-.6-.4-.3 0-.5.3-.4.6.1.2.3.4.6.4zM82.3 129.7c-.3 0-.5.3-.5.6s.3.5.6.5.5-.3.5-.6c0-.4-.3-.6-.6-.5zM69.5 133.6c-.1 0-.2.1-.2.2s.1.2.2.2.2-.1.2-.2-.1-.2-.2-.2zM71.2 133.3c-.1 0-.2.1-.2.3 0 .1.1.2.3.2.1 0 .2-.1.2-.3-.1-.1-.2-.2-.3-.2zM72.9 133.6c.1 0 .2-.2.2-.3 0-.1-.2-.2-.3-.2s-.2.2-.2.3c0 .1.1.2.3.2zM74.5 133.4c.2 0 .3-.2.3-.4s-.2-.3-.4-.3-.3.2-.3.4c.1.2.2.3.4.3zM76 132.5c-.2 0-.3.2-.3.4s.2.3.4.3.3-.2.3-.4-.2-.4-.4-.3zM77.8 132.9c.2 0 .4-.2.3-.5 0-.2-.2-.4-.5-.3-.2 0-.4.2-.3.5.1.2.3.4.5.3zM79.4 132.8c.3 0 .4-.3.4-.5 0-.3-.3-.4-.5-.4-.3 0-.4.3-.4.5s.3.4.5.4zM81 132.6c.3 0 .5-.3.4-.6s-.3-.5-.6-.4c-.3 0-.5.3-.4.6.1.2.4.4.6.4zM82.5 131.2c-.3 0-.5.3-.5.6s.3.5.6.5.5-.3.5-.6-.3-.5-.6-.5zM73.3 134.9c0-.1-.2-.2-.3-.2-.1 0-.2.2-.2.3 0 .1.2.2.3.2.2-.1.3-.2.2-.3zM74.8 135c.2 0 .3-.2.3-.4s-.2-.3-.4-.3-.3.2-.3.4.2.3.4.3zM76.4 134.7c.2 0 .3-.2.3-.4s-.2-.3-.4-.3-.3.2-.3.4.2.4.4.3zM78 134.5c.2 0 .4-.2.3-.5 0-.2-.2-.4-.5-.3-.2 0-.4.2-.3.5.1.2.3.4.5.3zM79.7 134.4c.3 0 .4-.3.4-.5 0-.3-.3-.4-.5-.4-.3 0-.4.3-.4.5s.2.4.5.4zM81.3 134.2c.3 0 .5-.3.4-.6 0-.3-.3-.5-.6-.4-.3 0-.5.3-.4.6 0 .2.3.4.6.4zM82.9 133.9c.3 0 .5-.3.5-.6s-.3-.5-.6-.5-.5.3-.5.6c0 .4.3.6.6.5zM90.9 131.4c-.4.1-.7.5-.6.9.1.4.5.7.9.6.4-.1.7-.5.6-.9-.1-.4-.5-.7-.9-.6zM75 136.5c.2 0 .3-.2.3-.4s-.2-.3-.4-.3-.3.2-.3.4c.1.3.2.4.4.3zM76.6 136.3c.2 0 .3-.2.3-.4s-.2-.3-.4-.3-.3.2-.3.4.2.4.4.3zM78.2 136.1c.2 0 .4-.2.3-.5 0-.2-.2-.4-.5-.3-.2 0-.4.2-.3.5.1.2.3.4.5.3zM79.9 136c.3 0 .4-.3.4-.5 0-.3-.3-.4-.5-.4s-.4.3-.4.5.2.4.5.4zM81.5 135.7c.3 0 .5-.3.4-.6 0-.3-.3-.5-.6-.4-.3 0-.5.3-.4.6.1.3.4.5.6.4zM83.2 135.5c.3 0 .5-.3.5-.6s-.3-.5-.6-.5-.5.3-.5.6c0 .4.3.6.6.5zM91.1 133c-.4.1-.7.5-.6.9.1.4.5.7.9.6.4-.1.7-.5.6-.9-.1-.4-.5-.7-.9-.6zM73.6 138.4c.1 0 .2-.2.2-.3 0-.1-.2-.2-.3-.2-.1 0-.2.2-.2.3 0 .1.2.2.3.2zM75.2 138.1c.2 0 .3-.2.3-.4s-.2-.3-.4-.3-.3.2-.3.4c.1.2.3.4.4.3zM76.9 137.9c.2 0 .3-.2.3-.4s-.2-.3-.4-.3-.3.2-.3.4.2.4.4.3zM78.5 137.7c.2 0 .4-.2.3-.5 0-.2-.2-.4-.5-.3-.2 0-.4.2-.3.5.1.2.3.4.5.3zM80.1 137.5c.3 0 .4-.3.4-.5s-.3-.4-.5-.4c-.3 0-.4.3-.4.5 0 .3.3.5.5.4zM81.8 137.3c.3 0 .5-.3.4-.6s-.3-.5-.6-.4c-.3 0-.5.3-.4.6 0 .3.3.5.6.4zM83.4 137.1c.3 0 .5-.3.5-.6s-.3-.5-.6-.5-.5.3-.5.6c0 .4.3.6.6.5zM91.4 134.6c-.4.1-.7.5-.6.9.1.4.5.7.9.6.4-.1.7-.5.6-.9-.1-.4-.5-.7-.9-.6zM72.1 139.7c-.1 0-.2.1-.2.3s.1.2.3.2c.1 0 .2-.1.2-.3 0-.1-.1-.2-.3-.2zM73.8 139.4c-.1 0-.2.2-.2.3 0 .2.2.2.3.2.1 0 .2-.2.2-.3 0-.1-.2-.2-.3-.2zM75.5 139.7c.2 0 .3-.2.3-.4s-.2-.3-.4-.3-.3.2-.3.4c.1.3.2.4.4.3zM77.1 139.5c.2 0 .3-.2.3-.4s-.2-.3-.4-.3-.3.2-.3.4.2.4.4.3zM78.7 139.3c.2 0 .4-.2.3-.5 0-.2-.2-.4-.5-.3-.2 0-.4.2-.3.5.1.2.3.4.5.3zM80.4 139.1c.3 0 .4-.3.4-.5 0-.3-.3-.4-.5-.4-.3 0-.4.3-.4.5 0 .3.2.5.5.4zM82 138.9c.3 0 .5-.3.4-.6 0-.3-.3-.5-.6-.4-.3 0-.5.3-.4.6.1.3.4.5.6.4zM83.7 138.7c.3 0 .5-.3.5-.6s-.3-.5-.6-.5-.5.3-.5.6c0 .4.3.6.6.5zM91.6 136.2c-.4.1-.7.5-.6.9.1.4.5.7.9.6.4-.1.7-.5.6-.9-.1-.4-.5-.7-.9-.6zM75.7 140.8c-.1 0-.2.2-.2.3 0 .2.2.2.3.2.1 0 .2-.2.2-.3-.1-.2-.2-.3-.3-.2zM77.6 140.7c0-.2-.2-.3-.4-.3s-.3.2-.3.4.2.3.4.3.3-.2.3-.4zM79 140.9c.2 0 .3-.2.3-.4s-.2-.3-.4-.3-.3.2-.3.4.2.3.4.3zM80.6 140.7c.2 0 .4-.2.3-.5 0-.2-.2-.4-.5-.3-.2 0-.4.2-.3.5.1.2.3.3.5.3zM82.3 140.5c.3 0 .4-.3.4-.5 0-.3-.3-.4-.5-.4-.3 0-.4.3-.4.5 0 .3.2.4.5.4zM83.9 140.3c.3 0 .5-.3.4-.6 0-.3-.3-.5-.6-.4-.3 0-.5.3-.4.6.1.2.3.4.6.4zM79.2 142.4c.2 0 .3-.2.3-.4s-.2-.3-.4-.3-.3.2-.3.4c.1.2.3.4.4.3zM80.9 142.2c.2 0 .3-.2.3-.4s-.2-.3-.4-.3-.3.2-.3.4.2.4.4.3zM82.5 142c.2 0 .4-.2.3-.5 0-.2-.2-.4-.5-.3-.2 0-.4.2-.3.5.1.2.3.3.5.3zM84.1 141.8c.3 0 .4-.3.4-.5 0-.3-.3-.4-.5-.4-.3 0-.4.3-.4.5.1.3.3.5.5.4zM85.8 141.6c.3 0 .5-.3.4-.6 0-.3-.3-.5-.6-.4-.3 0-.5.3-.4.6 0 .3.3.5.6.4zM77.8 143.7c-.1 0-.2.1-.2.3 0 .1.1.2.3.2.1 0 .2-.1.2-.3-.1-.1-.2-.2-.3-.2zM79.4 143.4c-.1 0-.2.2-.2.3 0 .1.2.2.3.2.1 0 .2-.2.2-.3 0-.1-.2-.2-.3-.2zM81.1 143.8c.2 0 .3-.2.3-.4s-.2-.3-.4-.3-.3.2-.3.4c.1.2.2.3.4.3zM82.7 143.6c.2 0 .3-.2.3-.4s-.2-.3-.4-.3-.3.2-.3.4c.1.2.2.3.4.3zM84.4 143.3c.2 0 .4-.2.3-.5 0-.2-.2-.4-.5-.3-.2 0-.4.2-.3.5.1.2.3.4.5.3zM86 143.2c.3 0 .4-.3.4-.5 0-.3-.3-.4-.5-.4-.3 0-.4.3-.4.5s.3.4.5.4zM81.3 144.8c-.2 0-.3.2-.3.4s.2.3.4.3.3-.2.3-.4c-.1-.3-.3-.4-.4-.3zM82.9 144.5c-.2 0-.3.2-.3.4s.2.3.4.3.3-.2.3-.4-.2-.4-.4-.3zM84.5 144.2c-.2 0-.4.2-.3.5 0 .2.2.4.5.3.2 0 .4-.2.3-.5-.1-.2-.3-.4-.5-.3zM93.3 121.4c-.1-.1-.1-.1-.2-.1l-.9.2c-.1.1-.2.3-.3.5.5-.2.9-.4 1.4-.6zM90.4 122.7c.1-.1.3-.2.4-.2.3-.2.7-.3 1-.5-.1-.2-.2-.3-.4-.4l-.8.1c-.2.2-.3.5-.3.7 0 .1.1.2.1.3z" class="st3"/><path d="m140.8 113.8-4.9 11.4-3.6-10.1-2.8.4-35.8 5.6s-.1.1-.1.2c.4-.1.9-.2 1.3-.3 2-.3 3.7-.1 5.1.5 1.4.7 2.5 1.7 3.1 3l-4.7 4c-.2-.7-.5-1.2-1-1.5-.4-.3-.9-.5-1.4-.6-.5-.1-1-.1-1.5 0-.7.1-1.3.3-1.8.7.1.3.4.5.6.5-.3.2-.5.5-.5.8-.1-.4-.5-.7-.9-.6-.1 0-.2 0-.2.1-.1.2-.3.3-.4.5 0 .1-.1.2 0 .4.1.4.5.7.9.7.4-.1.7-.4.7-.9.1.3.4.6.7.7-.3.2-.5.5-.5.8-.1-.4-.5-.7-.9-.6-.4.1-.7.5-.7.9.1.4.5.7.9.7.4-.1.7-.4.7-.9.1.3.4.6.7.7-.3.2-.5.5-.5.8-.1-.4-.5-.7-.9-.6-.4.1-.7.5-.7.9.1.4.5.7.9.7.4-.1.7-.4.7-.9.1.3.4.6.7.7-.3.2-.5.5-.5.8-.1-.4-.5-.7-.9-.6-.4.1-.7.5-.7.9.1.4.5.7.9.7.4-.1.7-.4.7-.9.1.3.4.6.7.7-.3.2-.5.5-.5.8-.1-.4-.5-.7-.9-.6-.4.1-.7.5-.7.9.1.4.5.7.9.7.4-.1.7-.4.7-.9.1.3.4.6.7.7-.3.2-.5.5-.5.8-.1-.4-.5-.7-.9-.6-.4.1-.7.5-.7.9.1.4.5.7.9.7.4-.1.7-.4.7-.9.1.4.4.6.8.7-.3.1-.6.5-.5.9v.1c.4-.1.7-.2 1.1-.4.1-.1.3-.1.4-.2-.1-.2-.4-.4-.6-.4.3-.1.5-.4.5-.7.1.2.3.4.6.5-.2.1-.3.3-.4.5.3-.2.7-.5.9-.8.5-.5.8-1 1-1.8l2.6 1.2s0-.1.1-.1c.1.1.2.2.3.2.1 0 .1 0 0 0l1.8.8c0 .1-.1.2-.1.3.1.1.2.2.3.2-.1.1-.2.2-.2.4l-.2-.2c-.3.5-.6 1.1-1 1.5.1 0 .1.1.2.1-.2.1-.3.3-.3.5-.1-.1-.1-.2-.2-.2l-.5.5c-.2.2-.5.4-.7.6.1.2.3.3.6.4-.3.1-.4.4-.5.7-.1-.3-.5-.5-.9-.5-.2.1-.4.2-.5.4-.1.2-.2.4-.1.6 0 .2.1.4.3.5l1.2-.2c.1-.1.1-.2.1-.3 0 .1.1.2.2.3l1.3-.2c0-.1.1-.1.1-.2 0 .1.1.1.1.2l1.4-.2s0-.1.1-.1l.1.1h.2l8.8-1.3c-.9 0-1.6-.1-2.4-.3-1.1-.3-2.1-.9-2.9-1.6-.9-.7-1.5-1.6-2.1-2.7-.5-1-.9-2.1-1.1-3.3-.2-1.3-.2-2.6.1-4 .3-1.3.7-2.6 1.4-3.8.7-1.2 1.5-2.3 2.5-3.3s2.1-1.8 3.3-2.5c1.2-.7 2.5-1.1 4-1.3 1.3-.2 2.6-.1 3.7.2 1.1.3 2.1.9 2.9 1.6.9.7 1.5 1.6 2.1 2.7.5 1 .9 2.1 1.1 3.3.2 1.3.2 2.6-.1 3.9-.3 1.3-.7 2.6-1.4 3.8-.6 1.2-1.4 2.3-2.4 3.3s-2.1 1.8-3.3 2.5c-.8.4-1.7.8-2.6 1l15.6-2.3.7-12 2.7 8 3.2-.5 3.6-8.9-.7 12 6.1-.9 1.3-22.8-6.8.7zm-42.9 14.5c.1.1.2.2.3.2-.1.1-.2.2-.2.3-.1-.1-.2-.2-.4-.2.1 0 .2-.1.3-.3zm-1.9-1.4c.1.2.3.3.4.4-.2.1-.3.3-.3.5-.1-.2-.3-.3-.5-.4.2-.2.3-.3.4-.5zm.7 1.9c-.2.1-.3.3-.3.5-.1-.2-.3-.3-.5-.4.2-.1.3-.3.4-.5 0 .2.2.3.4.4zm-2.8-1.2c.2-.1.4-.4.5-.6.1.2.3.4.6.5-.2.1-.4.4-.4.6-.2-.3-.5-.5-.7-.5zm.2 1.6c.2-.1.4-.4.5-.6.1.2.3.4.6.5-.2.1-.4.4-.4.6-.2-.3-.4-.5-.7-.5zm.3 1.6c.2-.1.4-.4.5-.6.1.2.3.4.6.5-.2.1-.4.4-.4.6-.2-.3-.5-.5-.7-.5zm.7 1c.1.2.3.4.6.5-.2.1-.4.4-.4.6-.1-.2-.4-.4-.6-.5.2-.1.3-.4.4-.6zm-.2 2.2c.2-.1.4-.4.5-.6.1.2.3.4.6.5-.2.1-.4.4-.4.6-.2-.3-.5-.5-.7-.5zm.8 2c-.1-.2-.4-.4-.6-.5.2-.1.4-.4.5-.6.1.2.3.4.6.5-.3.2-.4.4-.5.6zm.8-6c.1.2.3.3.4.4-.2.1-.3.3-.3.5-.1-.2-.3-.3-.5-.4.2-.1.3-.3.4-.5zm-.1 2.1c.2-.1.3-.3.4-.5.1.2.3.3.4.4-.2.1-.3.3-.3.5-.2-.2-.3-.3-.5-.4zm.6 1.1c.1.2.3.3.4.4-.2.1-.3.3-.3.5-.1-.2-.3-.3-.5-.4.2-.1.3-.3.4-.5zm.3 2.5c-.1-.2-.3-.3-.5-.4.2-.1.3-.3.4-.5.1.2.3.3.4.4-.1.1-.2.3-.3.5zm.5-5.4.3-.3c.1.1.2.2.3.2-.1.1-.2.2-.2.3-.1-.1-.2-.2-.4-.2zm.5 1.2c.1.1.2.2.3.2-.1.1-.2.2-.2.3-.1-.1-.2-.2-.4-.2.2 0 .3-.1.3-.3zm.3 1.6c.1.1.2.2.3.2-.1.1-.2.2-.2.3-.1-.1-.2-.2-.4-.2.1 0 .2-.2.3-.3zm.3 2.2c-.1-.1-.2-.2-.4-.2l.3-.3c.1.1.2.2.3.2-.1.1-.1.2-.2.3zm.8-5.6c.1.1.2.1.3.2-.1.1-.1.2-.2.3-.1-.1-.2-.1-.3-.2.1-.1.1-.2.2-.3zm.2 1.6c.1.1.2.1.3.2-.1.1-.1.2-.2.3-.1-.1-.2-.1-.3-.2.1-.1.2-.2.2-.3zm.3 1.6c.1.1.2.1.3.2-.1.1-.1.2-.2.3-.1-.1-.2-.1-.3-.2.1-.1.1-.2.2-.3zm.3 2.1c-.1-.1-.2-.1-.3-.2.1-.1.2-.2.2-.3.1.1.2.1.3.2-.1.1-.2.2-.2.3zm.9-3.7.2-.2.2.2-.2.2c0-.1-.1-.1-.2-.2zm.3 1.6.2-.2.2.2-.2.2c-.1-.1-.2-.1-.2-.2zm.4 1.4.2.2-.2.2-.2-.2c.1 0 .1-.1.2-.2zm.3 2.1c-.1-.1-.2-.2-.3-.2.1-.1.1-.2.2-.3.1.1.2.1.3.2-.1.1-.2.2-.2.3zm5.5 3.5.2.2c-.1.1-.1.2-.2.2-.1-.1-.2-.1-.2-.2.1 0 .2-.1.2-.2zm-6.4 1.7c-.1-.2-.3-.4-.6-.4.2-.1.4-.3.4-.6.1.2.3.4.5.4l-.3.6zm1.3-2.7c.1.1.3.3.4.3-.1.1-.2.3-.3.5-.1-.2-.3-.3-.5-.4.2 0 .3-.2.4-.4zm.3 2.4c-.1-.2-.3-.3-.5-.4.2-.1.3-.3.4-.5.1.2.3.3.5.4-.2.2-.3.3-.4.5zm.4-8.5-.1-.1.1-.1.1.1c-.1 0-.1 0-.1.1zm2.9 7.8c-.1-.1-.2-.2-.3-.2.1-.1.2-.2.2-.3.1.1.2.2.3.2-.1.1-.2.2-.2.3zm-.3-2c.1.1.2.1.2.2-.1.1-.1.2-.2.3-.1-.1-.2-.1-.3-.2l.3-.3zm-1.1 2c-.1.1-.2.2-.2.3-.1-.1-.2-.2-.4-.3.1-.1.2-.2.3-.4 0 .2.2.3.3.4zm-.3-1.6c-.1.1-.2.2-.2.3-.1-.1-.2-.2-.3-.2.1-.1.2-.2.2-.3.1.1.2.2.3.2zm-.3-1.6-.2.2-.2-.2.2-.2c.1.1.1.2.2.2zm-.4-1.7.1.1s-.1.1-.1.2c0 0-.1-.1-.2-.1l.2-.2zm-.3-1.5.1.1-.1.1-.1-.1.1-.1z" class="st3"/><path d="M99.7 141c-.2.2-.4.3-.6.5.3 0 .5-.2.6-.5zM92.7 127.2c-.2.1-.3.2-.5.4-.1.1-.2.2-.4.3h.2c.3 0 .6-.3.7-.7zM87.6 125l1-1c-.2-.2-.4-.3-.7-.3-.4.1-.7.4-.6.8.1.2.2.3.3.5zM86.2 126.7c.3-.4.5-.7.8-1-.1 0-.2-.1-.4 0-.4.1-.6.4-.6.8.1 0 .1.1.2.2zM85.1 128.7c0-.1.1-.2.1-.3.1-.3.3-.6.5-.8-.1-.1-.3-.1-.4-.1-.4.1-.6.4-.5.7 0 .2.1.4.3.5zM83.9 132.1c.1-.4.2-.8.3-1.1h-.1c-.3.1-.6.4-.5.7.1.1.2.3.3.4zM85 139.2c-.1.1-.1.2-.1.4 0 .3.3.5.6.5-.2-.3-.4-.6-.5-.9zM87.2 142.1c-.1.1-.2.3-.2.5 0 .3.3.5.6.4.2 0 .3-.1.4-.3-.3-.2-.5-.4-.8-.6zM90.5 135.5c0-.3-.3-.6-.6-.6.1.4.2.9.4 1.2.2-.2.3-.4.2-.6zM90.3 133.9c0-.3-.3-.5-.5-.6 0 .4 0 .8.1 1.2v.2c.3-.2.4-.5.4-.8zM89.8 133c.2-.2.3-.4.3-.7 0-.1-.1-.3-.2-.4v.1c-.1.4-.1.7-.1 1zM90.6 129.7c.5-.1.7-.5.7-.9 0-.1 0-.1-.1-.2-.2.3-.4.6-.6 1v.1zM90.9 131.3c.4-.1.7-.5.6-.9-.1-.4-.5-.7-.9-.6h-.1c-.2.4-.3.8-.4 1.1.2.3.5.4.8.4zM91.9 137.8h-.2c.1.1.2.1.3.2.2.1.5.2.7.3-.2-.3-.5-.6-.8-.5zM94 138.3c.1 0 .2 0 .4-.1v-.1c-.1-.4-.5-.7-.9-.6-.4.1-.7.4-.7.8.4.1.8.1 1.2 0zM89.5 123.3c.2-.2.5-.3.8-.5 0-.1.1-.2 0-.4-.1-.4-.5-.7-.9-.6-.4.1-.7.5-.6.9 0 .3.3.6.7.6zM84.1 130.5c.1 0 .2-.1.3-.1.1-.2.1-.4.2-.6-.1-.3-.4-.5-.7-.5-.3.1-.6.4-.5.7 0 .4.3.6.7.5zM97.1 143.1l1.2-.2c.1-.1.1-.3.1-.5 0-.1-.1-.3-.2-.4-.3.2-.7.4-1 .5-.1.1-.2.1-.3.2 0 .2.1.3.2.4zM96.6 143.2c.1-.1.1-.2.1-.4-.4.2-.8.3-1.2.5l1.1-.1zM90.8 144.1l.7-.1.1-.1c-.4 0-.7-.1-1.1-.2 0 .2.1.3.3.4zM89.2 144.3l.6-.1c.2-.1.2-.3.2-.5v-.1c-.3-.1-.5-.2-.7-.3-.2.1-.4.3-.3.6-.1.2.1.4.2.4zM86.2 144.8c.3 0 .4-.3.4-.5 0-.3-.3-.4-.5-.4s-.4.3-.4.5c.1.2.3.4.5.4zM87.7 144.6l.4-.1c.2-.1.3-.3.3-.5 0-.3-.3-.5-.6-.4-.3 0-.5.3-.4.6-.1.1.1.3.3.4zM176.2 143.9c-1.1.2-2 0-2.7-.5-.7-.5-1.2-1.3-1.4-2.4l-.3-2.1c-.2-1.1 0-2 .5-2.7.5-.7 1.3-1.1 2.4-1.3s1.9 0 2.6.5c.7.5 1.1 1.2 1.2 2.3v.1l-1.5.2v-.1c-.1-.5-.3-1-.7-1.3-.4-.3-.9-.4-1.5-.3-.6.1-1.1.4-1.4.8-.3.4-.4 1-.3 1.6l.3 2.1c.1.7.4 1.1.8 1.5.4.3.9.4 1.5.3.6-.1 1.1-.3 1.3-.7.2-.4.3-.9.2-1.4v-.2l1.5-.2v.2c.2 1 0 1.9-.5 2.5-.2.5-1 .9-2 1.1zM182.8 142.8c-.4.1-.8.1-1.2 0s-.7-.3-.9-.5c-.2-.3-.4-.6-.5-1-.1-.4 0-.8.1-1.1.2-.3.4-.6.7-.8.3-.2.7-.3 1.2-.4l1.8-.3-.1-.4c-.1-.3-.2-.6-.4-.7-.2-.2-.6-.2-1-.2-.4.1-.7.2-.9.4-.2.2-.3.5-.3.8l-1.4-.2c0-.3.2-.7.3-1 .2-.3.4-.6.8-.8.3-.2.8-.4 1.3-.5.8-.1 1.5 0 2 .3s.8.9 1 1.6l.4 2.4c0 .2.2.4.4.3l.5-.1.2 1.2-1 .2c-.3 0-.6 0-.8-.1-.2-.1-.3-.3-.4-.6h-.2c0 .1-.1.3-.2.5s-.3.4-.5.5c-.1.4-.4.5-.9.5zm.1-1.2c.5-.1.8-.3 1.1-.6s.3-.7.3-1.2v-.1l-1.7.3c-.3 0-.5.2-.7.3-.2.2-.2.4-.2.6 0 .2.2.4.4.6.2.2.4.2.8.1zM188.1 141.8l-1-6.1 1.4-.2.1.7h.2c.1-.2.2-.4.5-.6.2-.2.6-.3 1-.4.4-.1.8 0 1.1.1.3.1.5.3.7.6h.2c.1-.3.3-.6.5-.8.2-.2.6-.4 1.1-.5.4-.1.7 0 1.1.1s.6.3.9.6.4.7.5 1.2l.6 4.1-1.4.2-.6-4c-.1-.4-.2-.6-.4-.8-.2-.2-.5-.2-.8-.2-.4.1-.6.2-.8.5-.2.3-.2.6-.2 1.1l.6 3.6-1.4.2-.6-4c-.1-.4-.2-.6-.4-.8-.2-.2-.5-.2-.8-.2-.4.1-.7.2-.8.5-.2.3-.2.6-.2 1.1l.6 3.6-1.7.4zM199.1 142.6l-1.4-8.6 1.4-.2.1.8h.2c.1-.3.3-.5.6-.8.3-.2.7-.4 1.3-.5.5-.1 1 0 1.4.1.5.2.9.5 1.2.9.3.4.5 1 .7 1.6v.2c.1.7.1 1.3-.1 1.8s-.5.9-.8 1.2c-.4.3-.8.5-1.3.6-.4.1-.7.1-1 0-.3-.1-.5-.1-.7-.3-.2-.1-.3-.3-.5-.4h-.2l.5 3.3-1.4.3zm2.7-4c.5-.1.9-.3 1.2-.7.3-.4.4-.9.3-1.5v-.1c-.1-.6-.3-1.1-.7-1.4-.4-.3-.8-.4-1.4-.3-.5.1-.9.3-1.2.7-.3.4-.4.9-.3 1.5v.1c.1.6.3 1.1.7 1.4.4.3.8.4 1.4.3z" class="st3"/></g></switch></svg>