<?xml version="1.0" encoding="utf-8"?>
<!-- Generator: Adobe Illustrator 24.3.0, SVG Export Plug-In . SVG Version: 6.00 Build 0)  -->
<svg version="1.1" id="Capa_1" xmlns="http://www.w3.org/2000/svg" xmlns:xlink="http://www.w3.org/1999/xlink" x="0px" y="0px"
	 viewBox="0 0 262.3 337.7" style="enable-background:new 0 0 262.3 337.7;" xml:space="preserve">
<style type="text/css">
	.st0{opacity:0.5;fill:#FF68FF;}
	.st1{fill:#60FFD4;}
	.st2{fill:#FFFFFF;}
	.st3{fill:#FF68FF;}
	.st4{fill:none;stroke:#FF68FF;stroke-width:0.3717;stroke-miterlimit:10;}
</style>
<g>
	<circle class="st0" cx="1510.3" cy="637.3" r="84.1"/>
	<g>
		<path class="st1" d="M1520.7,636.2l-114.8,0c-2.2,0-3.9-1.7-3.9-3.9V483.5c0-2.2,1.7-3.9,3.9-3.9l114.8,0c2.2,0,3.9,1.7,3.9,3.9
			l0,148.9C1524.6,634.5,1522.9,636.2,1520.7,636.2z"/>
		<path class="st2" d="M1489.9,492.2"/>
		<path class="st3" d="M1518.1,518.8c-0.8-14.1-11.9-25.4-25.9-26.5v26.5L1518.1,518.8z"/>
		<path class="st2" d="M1518.1,520.4c0,15.6-12.7,28.3-28.3,28.3c-15.6,0-28.3-12.7-28.3-28.3c0-15.6,12.7-28.3,28.3-28.3v28.3
			H1518.1z"/>
		<g>
			<g>
				<path class="st3" d="M1418.8,521.3c1.5-0.1,2.9-0.1,4.4-0.2l4.4-0.2c2.9-0.1,5.8-0.1,8.8-0.2c2.9,0,5.8-0.1,8.8-0.1l4.4,0
					c1.5,0,2.9,0,4.4,0.1c-1.5,0.2-2.9,0.3-4.4,0.5l-4.4,0.3c-2.9,0.2-5.8,0.3-8.8,0.3c-2.9,0-5.9,0-8.8-0.1l-4.4-0.2
					C1421.7,521.5,1420.2,521.4,1418.8,521.3z"/>
			</g>
			<g>
				<path class="st3" d="M1420,543.1c5.6-0.5,11.3-0.7,16.9-0.8c5.6-0.1,11.3-0.1,16.9,0.3c-5.6,0.5-11.3,0.7-16.9,0.8
					C1431.3,543.5,1425.6,543.5,1420,543.1z"/>
			</g>
			<g>
				<path class="st3" d="M1420,563c3.6-0.1,7.2-0.2,10.7-0.3l10.7-0.1c7.2-0.1,14.3-0.1,21.5-0.1c7.2,0.1,14.3,0.1,21.5,0.2
					l10.7,0.2c3.6,0.1,7.2,0.2,10.7,0.3c-3.6,0.1-7.2,0.2-10.7,0.3l-10.7,0.1c-7.2,0.1-14.3,0.1-21.5,0.1
					c-7.2-0.1-14.3-0.1-21.5-0.2l-10.7-0.2C1427.1,563.2,1423.6,563.1,1420,563z"/>
			</g>
			<g>
				<path class="st3" d="M1420.4,585.9c3.6-0.2,7.3-0.3,10.9-0.4l10.9-0.3c7.3-0.2,14.6-0.3,21.9-0.5c7.3-0.1,14.6-0.2,21.9-0.2
					l10.9,0c3.6,0,7.3,0,10.9,0.1c-3.6,0.2-7.3,0.3-10.9,0.4l-10.9,0.3c-7.3,0.2-14.6,0.3-21.9,0.5c-7.3,0.1-14.6,0.2-21.9,0.2
					l-10.9,0C1427.7,585.9,1424,585.9,1420.4,585.9z"/>
			</g>
			<g>
				<path class="st3" d="M1420,607.8l21.7,0c7.2,0,14.4,0,21.7-0.1c7.2,0,14.4-0.1,21.7-0.2l21.7-0.3c-3.6,0.3-7.2,0.5-10.8,0.7
					l-10.8,0.5c-7.2,0.3-14.5,0.4-21.7,0.5c-7.2,0-14.5,0-21.7-0.2l-10.8-0.4C1427.2,608.2,1423.6,608,1420,607.8z"/>
			</g>
		</g>
	</g>
	<g>
		<path class="st3" d="M1519,746.6h-9.7c-0.2,0-0.3-0.1-0.3-0.3v-83.7c0-0.2,0.1-0.3,0.3-0.3h9.7c0.2,0,0.3,0.1,0.3,0.3v83.7
			C1519.3,746.5,1519.2,746.6,1519,746.6z"/>
		<path class="st3" d="M1564.5,746.6h-9.7c-0.2,0-0.3-0.1-0.3-0.3v-83.7c0-0.2,0.1-0.3,0.3-0.3h9.7c0.2,0,0.3,0.1,0.3,0.3v83.7
			C1564.8,746.5,1564.7,746.6,1564.5,746.6z"/>
		<path class="st3" d="M1609.1,746.6h-9.7c-0.2,0-0.3-0.1-0.3-0.3v-83.7c0-0.2,0.1-0.3,0.3-0.3h9.7c0.2,0,0.3,0.1,0.3,0.3v83.7
			C1609.5,746.5,1609.3,746.6,1609.1,746.6z"/>
		<path class="st1" d="M1540.9,746.6h-9.7c-0.2,0-0.3-0.1-0.3-0.3V641.8c0-0.2,0.1-0.3,0.3-0.3h9.7c0.2,0,0.3,0.1,0.3,0.3v104.5
			C1541.2,746.5,1541,746.6,1540.9,746.6z"/>
		<path class="st1" d="M1587,746.6h-9.7c-0.2,0-0.3-0.1-0.3-0.3V641.8c0-0.2,0.1-0.3,0.3-0.3h9.7c0.2,0,0.3,0.1,0.3,0.3v104.5
			C1587.3,746.5,1587.2,746.6,1587,746.6z"/>
		<path class="st4" d="M1609.1,746.6h-9.7c-0.2,0-0.3-0.1-0.3-0.3V641.8c0-0.2,0.1-0.3,0.3-0.3h9.7c0.2,0,0.3,0.1,0.3,0.3v104.5
			C1609.5,746.5,1609.3,746.6,1609.1,746.6z"/>
	</g>
</g>
<g>
	<circle class="st0" cx="136.9" cy="199.3" r="106.3"/>
	<g>
		<path class="st1" d="M151,198L3.9,198c-2.2,0-3.9-1.7-3.9-3.9L0,3.9C0,1.7,1.7,0,3.9,0L151,0c2.2,0,3.9,1.7,3.9,3.9l0,190.2
			C154.9,196.2,153.2,198,151,198z"/>
		<path class="st2" d="M111,15.9"/>
		<path class="st3" d="M146.7,49.5c-1-17.8-15-32-32.7-33.5l0,33.5L146.7,49.5z"/>
		<path class="st2" d="M146.7,51.6c0,19.7-16,35.7-35.7,35.7c-19.7,0-35.7-16-35.7-35.7c0-19.7,16-35.7,35.7-35.7l0,35.7L146.7,51.6
			z"/>
		<g>
			<g>
				<path class="st3" d="M21.1,52.7c1.8-0.1,3.7-0.1,5.5-0.2l5.5-0.1c3.7-0.1,7.4-0.2,11.1-0.2C47,52,50.7,52,54.4,52l5.5,0
					c1.8,0,3.7,0,5.5,0.1c-1.8,0.2-3.7,0.3-5.5,0.5l-5.5,0.3c-3.7,0.2-7.4,0.3-11.1,0.4c-3.7,0-7.4,0.1-11.1,0L26.7,53
					C24.8,52.9,23,52.8,21.1,52.7z"/>
			</g>
			<g>
				<path class="st3" d="M22.7,80.3c1.8-0.2,3.6-0.2,5.3-0.4l5.3-0.2c3.6-0.2,7.1-0.2,10.7-0.3c3.6,0,7.1-0.1,10.7,0l5.3,0.1
					c1.8,0.1,3.6,0.1,5.4,0.2c-1.8,0.2-3.6,0.2-5.3,0.4l-5.3,0.2c-3.6,0.2-7.1,0.2-10.7,0.3c-3.6,0-7.1,0.1-10.7,0L28,80.5
					C26.3,80.4,24.5,80.4,22.7,80.3z"/>
			</g>
			<g>
				<path class="st3" d="M22.7,105.4c4.5-0.1,9-0.2,13.6-0.3l13.6-0.1c9-0.1,18.1,0,27.1-0.1l27.1,0.2l13.6,0.2
					c4.5,0.1,9,0.2,13.6,0.3c-4.5,0.1-9,0.2-13.6,0.3l-13.6,0.1l-27.1,0.1c-9-0.1-18.1-0.1-27.1-0.2l-13.6-0.2
					C31.7,105.6,27.2,105.5,22.7,105.4z"/>
			</g>
			<g>
				<path class="st3" d="M23.2,134.3c4.6-0.2,9.2-0.3,13.8-0.5l13.8-0.4l27.6-0.5l27.7-0.3l13.8,0c4.6,0,9.2,0,13.8,0.1
					c-4.6,0.2-9.2,0.3-13.8,0.5l-13.8,0.4l-27.6,0.5l-27.7,0.3l-13.8,0C32.4,134.4,27.8,134.4,23.2,134.3z"/>
			</g>
			<g>
				<path class="st3" d="M22.7,162l27.4,0.2c9.1,0,18.3,0.1,27.4,0c9.1,0,18.3-0.1,27.4-0.3l27.4-0.5c-4.6,0.3-9.1,0.6-13.7,0.8
					l-13.7,0.6c-9.1,0.3-18.3,0.4-27.4,0.5c-9.1,0-18.3,0-27.4-0.2l-13.7-0.4C31.8,162.5,27.3,162.3,22.7,162z"/>
			</g>
		</g>
	</g>
	<g>
		<path class="st3" d="M147.9,337.5h-12.4c-0.2,0-0.3-0.1-0.3-0.3v-106c0-0.2,0.1-0.3,0.3-0.3h12.4c0.2,0,0.3,0.1,0.3,0.3v106
			C148.2,337.3,148.1,337.5,147.9,337.5z"/>
		<path class="st3" d="M205.4,337.5H193c-0.2,0-0.3-0.1-0.3-0.3v-106c0-0.2,0.1-0.3,0.3-0.3h12.4c0.2,0,0.3,0.1,0.3,0.3v106
			C205.7,337.3,205.6,337.5,205.4,337.5z"/>
		<path class="st3" d="M261.8,337.5h-12.4c-0.2,0-0.3-0.1-0.3-0.3v-106c0-0.2,0.1-0.3,0.3-0.3h12.4c0.2,0,0.3,0.1,0.3,0.3v106
			C262.1,337.3,262,337.5,261.8,337.5z"/>
		<path class="st1" d="M175.5,337.5h-12.4c-0.2,0-0.3-0.1-0.3-0.3V204.9c0-0.2,0.1-0.3,0.3-0.3h12.4c0.2,0,0.3,0.1,0.3,0.3v132.2
			C175.8,337.3,175.7,337.5,175.5,337.5z"/>
		<path class="st1" d="M233.8,337.5h-12.4c-0.2,0-0.3-0.1-0.3-0.3V204.9c0-0.2,0.1-0.3,0.3-0.3h12.4c0.2,0,0.3,0.1,0.3,0.3v132.2
			C234.1,337.3,234,337.5,233.8,337.5z"/>
		<path class="st4" d="M261.8,337.5h-12.4c-0.2,0-0.3-0.1-0.3-0.3V204.9c0-0.2,0.1-0.3,0.3-0.3h12.4c0.2,0,0.3,0.1,0.3,0.3v132.2
			C262.1,337.3,262,337.5,261.8,337.5z"/>
	</g>
</g>
</svg>
