<svg xmlns="http://www.w3.org/2000/svg" id="Capa_1" data-name="Capa 1" viewBox="0 0 320.96 287.88"><defs><style>.cls-1{fill:#42e8b9}.cls-2{fill:#ff68ff}</style></defs><path d="M294.86 189.81c7.18-21.73 14.45-63.59 7.31-85.33-15.56-47.38-40.8-78.32-87.77-95.08-45.38-16.2-90.21-4.88-90.21-4.88C81.15 9.46 40.74 55.1 28.54 96.68c-12.2 41.58-2.9 87.5 18.51 125.17 7.13 12.54 15.62 24.42 26.25 34.17 27.77 25.44 75.27 31.3 105.6 26.67 0 0 79.34 4.01 115.95-92.88" style="fill:#60ffd4"/><path d="M218.65 36.03c.82 2.65-.04 5.66-2.29 7.29-4.75 3.43-11.81 4.63-17.92 4.09-9.41-.84-19.25-3.92-28.01-.39-7.41 2.99-12.14 9.97-17.82 15.7-3.2 3.23-8.55 2.74-11.06-1.05l-6.3-9.5c-1.12-1.7-2.38-3.5-4.3-4.18-2.29-.81-4.84.23-6.79 1.68-9.19 6.85-9.11 20.38-8.15 31.8 1.26 14.87 2.52 29.74 3.77 44.61-12.49-2.75-20.36-15.65-22.56-28.24-1.34-7.67-1.58-16.49-7.47-21.59-2.7-2.33-6.22-3.49-9.06-5.64-7.31-5.52-11.07-23.44-7.69-31.95 3.38-8.51 9.75-19.5 31.69-29.26 0 0 34.57-14.71 78.02-7.31 10.46 1.78 24.76 13.89 30.61 22.74 2.1 3.18 4.01 6.92 5.33 11.21Z" class="cls-1"/><path d="M117.61 116.87c9.51 25.21 31.66 13.81 41.65 26.25.39.48.73 1.03.89 1.63.72 2.66-.61 5.61-.78 8.45-.37 6.27 5 11.42 10.6 14.26s11.94 4.42 16.76 8.44c4.82 4.02 7.42 11.87 3.22 16.53-1.26 1.4-2.96 2.32-4.57 3.29-8.01 4.81-14.74 11.49-22.51 16.68-10.13 6.77-22 10.91-34.14 11.92-7.47.62-12.47 8.41-19.15 11.81-6.06 3.09-12.78 13.62-19.5 14.63 2.37-6.65 3.89-25.96 6.27-32.61 3.25-9.09 6.54-18.47 6.14-28.12-.36-8.81-3.8-17.33-3.77-26.15.04-12.24 4.55-21.03 11.35-30.08 3.42-4.56 4.38-10.51 2.42-15.86M277.56 143.81c3.88.4 7.92.9 11.1 3.15 3.18 2.25 5.29 6.38 4.2 10.12-.48 1.62-1.5 3.04-2.03 4.65-1.87 5.7 2.75 11.38 3.56 17.33 1.06 7.74-1.14 15.85-4.4 22.95-2.56 5.56-5.01 8.96-7.31 14.63 0 0-8.44 13.98-14.63 19.5-3.42-3.31-.54-13.72-3.37-17.55-1.9-2.58-5.38-3.44-7.72-5.63-3.44-3.24-3.67-8.72-2.3-13.24s4.04-8.53 5.71-12.95c3.94-10.41 2.13-22.22 5.47-32.83 1.06-3.37 2.71-6.67 5.39-8.97 0 0 2.55-1.53 6.33-1.14Z" class="cls-1"/><path d="m293.47 53.67-45.1.72c-4.42.07-8.61 1.96-11.6 5.21l-1.74 1.64 42.6 14.22-10.4 12.98s-11.03.24-14.4 2.38c-3.37 2.14-4.79 5.88-4.79 5.88l20.12 1.01 3.91 20.18s5.55-5.48 5.89-10.91c.23-3.57-.75-10.32-.75-10.32l11.17-13.72 19.92 36.6 2.22-3.08a16.1 16.1 0 0 0 2.74-12.49l-8.11-41.61s16.94-18.8 15.76-30.36c0 0-10.14-2.56-27.43 21.67M28.24 175.07c-2.66 3.11-5.31 6.23-7.87 9.42-2.58 3.18-5.05 6.43-7.32 9.82-4.54 6.75-8.28 14.12-10 22-.85 3.93-1.25 7.96-1.09 11.96.15 4 .91 7.96 2.36 11.65 1.44 3.68 3.55 7.09 6.32 9.89 2.76 2.8 6.05 5.08 9.64 6.75 7.18 3.41 15.28 4.45 23.26 4.01 8-.42 15.94-2.28 23.73-4.49 15.59-4.47 30.46-11.29 44.67-19.21 7.13-3.94 14.12-8.15 20.99-12.55 3.43-2.21 6.88-4.38 10.25-6.69l5.08-3.41 5.02-3.51c13.39-9.34 26.27-19.39 38.74-29.94 12.42-10.6 24.3-21.85 35.55-33.7 11.34-11.78 21.95-24.26 31.98-37.2-9.4 13.41-19.78 26.15-30.73 38.36-11.04 12.14-22.77 23.66-35.04 34.56a479.347 479.347 0 0 1-80.14 57.12c-7.21 3.98-14.57 7.71-22.15 10.97-7.57 3.27-15.33 6.17-23.31 8.36-7.96 2.18-16.1 4-24.48 4.37-4.18.19-8.4 0-12.55-.73-4.16-.73-8.22-2.04-12.01-3.91-3.8-1.86-7.3-4.38-10.23-7.47-2.94-3.08-5.16-6.83-6.61-10.79-1.47-3.97-2.19-8.17-2.26-12.36-.08-4.19.39-8.37 1.39-12.41 2.05-8.11 6.11-15.48 10.9-22.14 4.78-6.7 10.37-12.73 15.95-18.71ZM66.54 270.05c.53 1.56 1.09 3.1 1.88 4.52.71 1.46 1.65 2.79 2.67 4.03 1.04 1.23 2.26 2.27 3.54 3.19 1.32.88 2.74 1.59 4.21 2.15 2.97 1.07 6.14 1.59 9.32 1.59 3.18.02 6.38-.29 9.54-.88 6.31-1.22 12.49-3.23 18.45-5.75 5.98-2.49 11.8-5.39 17.44-8.62 5.66-3.19 11.16-6.68 16.49-10.43 5.36-3.69 10.49-7.72 15.5-11.89 4.97-4.21 9.76-8.65 14.24-13.39 4.53-4.7 8.65-9.8 12.24-15.3-1.46 2.95-3.16 5.78-5.02 8.5-1.86 2.73-3.85 5.37-5.94 7.93-4.23 5.08-8.84 9.84-13.73 14.3-9.77 8.92-20.56 16.71-32.07 23.3-5.78 3.24-11.74 6.19-17.93 8.64-6.19 2.4-12.6 4.42-19.25 5.37-3.32.47-6.69.71-10.07.48-3.37-.21-6.75-.93-9.88-2.29a22.77 22.77 0 0 1-4.35-2.67c-1.3-1.09-2.5-2.3-3.48-3.67-1.99-2.72-3.18-5.9-3.82-9.12Z" class="cls-2"/><path d="M181.49 152.02c2.28-1.55 4.23-3.49 6.29-5.29l6.11-5.51c2.02-1.86 4.11-3.63 6.15-5.47l6.24-5.37 6.34-5.26c2.15-1.71 4.27-3.46 6.46-5.12 2.17-1.69 4.39-3.32 6.63-4.94 2.28-1.56 4.52-3.2 6.99-4.48-2.01 1.9-3.92 3.87-5.89 5.79a290.95 290.95 0 0 1-5.97 5.69c-1.99 1.9-4.06 3.7-6.09 5.56l-6.22 5.41c-2.12 1.75-4.22 3.52-6.38 5.24-2.17 1.7-4.32 3.42-6.54 5.04-1.12.81-2.22 1.64-3.35 2.43l-3.43 2.33c-2.36 1.44-4.66 3.07-7.32 3.95Z" class="cls-2"/></svg>