<?xml version="1.0" encoding="utf-8"?>
<!-- Generator: Adobe Illustrator 24.3.0, SVG Export Plug-In . SVG Version: 6.00 Build 0)  -->
<svg version="1.1" id="Capa_1" xmlns="http://www.w3.org/2000/svg" xmlns:xlink="http://www.w3.org/1999/xlink" x="0px" y="0px"
	 viewBox="0 0 312.9 233.3" style="enable-background:new 0 0 312.9 233.3;" xml:space="preserve">
<style type="text/css">
	.st0{fill:#60FFD4;}
	.st1{fill:#FFEC00;}
	.st2{fill:#FF68FF;}
	.st3{fill:none;stroke:#FFFFFF;stroke-width:1.2231;stroke-linecap:round;stroke-linejoin:round;stroke-miterlimit:10;}
</style>
<g>
	<g>
		<path class="st0" d="M154.9,66.9c6.3,1.9,12.4,4.3,18.5,6.7c6.1,2.4,12.1,5,18.1,7.6c6,2.6,12,5.3,17.9,8.1
			c5.9,2.8,11.8,5.7,17.6,8.8c-6.2-2.3-12.3-4.6-18.3-7.2c-6.1-2.5-12.1-5.1-18.1-7.7c-6-2.7-12-5.3-17.9-8.1l-8.9-4.2
			C160.8,69.7,157.9,68.3,154.9,66.9z"/>
	</g>
	<g>
		<g>
			<path class="st1" d="M231.1,220.7c-15.5-36-35.7-72.8-55.5-106.9c-4-4.1-2.3-6.4-7.4-6.6l-10.1,7.6c-2.1,1.8-3,4.6-2.2,7.2
				c0.3,1,1.4,2.5,1.8,3.2c16.8,31.8,39.2,71.1,54.9,104c1.7,3.5,5.9,5,9.4,3.3l8.8-4C234.1,226.9,232.6,224.2,231.1,220.7z"/>
		</g>
		<path class="st2" d="M303.2,193.7l-72.5,34.9l-62.5-121.3c24.2-14.6,49.7-27.1,76.1-37.1c3.5-1.3,7.5,0.3,9.1,3.7L306.6,184
			C308.4,187.6,306.8,192,303.2,193.7z"/>
		<path class="st3" d="M191.1,121.7c18.3-7.9,36.7-15.8,55-23.7"/>
		<path class="st3" d="M203.8,140.6c16.3-8.9,33.6-15.9,51.5-20.8"/>
		<path class="st3" d="M216.1,159.7c24.2-13.3,35.2-15.7,50.4-20"/>
		<path class="st3" d="M231,178.4c17.4-9.8,29.3-14.6,44.6-17.7"/>
		<path class="st3" d="M240.3,198c14.4-8,31.2-15.3,46.8-20.3"/>
	</g>
	<g>
		<g>
			<path class="st1" d="M173.2,64.2c0.6,10.1-1.3,20.6-5.7,29.8c-8.6,18.2-28.5,38.4-43.1,38.4c-6.4,0-9.4,0.9-11.9,5.7
				c-7.7,14.6-22.5,51.3-22.5,51.3c-1.8,3.9-6.5,5.4-10.3,3.4l-35.8-19.5c-1.4-0.8-2.9-1.6-3.8-3c-1-1.7-0.7-3.8-0.4-5.7
				c0,0,17.1-40.8,17.3-42.8c0.2-2-1.4-3.5-1.4-3.5C29.4,97.6,22.9,56.1,41.4,28.4c6-9,14.5-16.6,24.6-20.5c0,0,38.4-20.9,75.2,5
				C176,37.6,173.2,64.2,173.2,64.2z"/>
		</g>
		<g>
			<path class="st2" d="M47.4,150.6c8.3,3.2,16.4,7.1,24.2,11.4c7.8,4.3,15.4,9.1,22.5,14.5c-7.8-4.3-15.5-8.8-23.2-13.1
				C63,159.1,55.2,154.9,47.4,150.6z"/>
		</g>
		<g>
			<path class="st2" d="M45.9,164.1c7.9,2,15.5,5,22.8,8.4c7.3,3.5,14.4,7.5,21,12.3c-7.2-3.7-14.4-7.4-21.7-10.8
				C60.7,170.5,53.3,167.3,45.9,164.1z"/>
		</g>
		<g>
			<path class="st2" d="M75.4,156.5c0.3-34.7,6.7-69.3,18.9-101.8c0.8-2.1,2-4.5,4.2-4.6c3.1-0.2,4.3,3.9,4.2,7
				c-0.5,13.5-6.8,25.9-13,37.9c7.5-10.4,15.7-20.4,24.5-29.7c2-2.1,4.2-4.3,6.9-5.2c2.8-0.9,6.4,0,7.6,2.6c1.3,3-0.7,6.3-2.8,8.8
				c-9.6,11.7-17.4,21.5-27.2,29.5c9.5-8.7,20-20.2,32.3-24c1-0.3,2.2-0.6,3.2,0c2,1.1,1,4.1-0.4,5.9
				c-13.6,17.8-34.3,20.1-45.2,39.7L75.4,156.5z"/>
		</g>
	</g>
	<g>
		<path class="st0" d="M280.6,130.2c5.2,2.6,10.3,5.5,15,9c1.2,0.8,2.3,1.8,3.5,2.7c1.1,1,2.2,1.9,3.3,2.9c2.1,2,4.1,4.2,5.8,6.6
			c1.7,2.4,3.2,5,4.2,7.8c0.5,1.4,0.9,3,0.5,4.6c-0.3,1.6-1.4,2.9-2.7,3.8c-1.3,0.9-2.7,1.5-4.1,2c-1.4,0.5-2.9,0.8-4.3,1
			c-2.9,0.5-5.9,0.7-8.8,0.8c-11.8,0.2-23.4-1.2-34.9-3.1c-11.5-1.9-23-4.3-34.3-7.2c-11.3-2.9-22.5-6.3-33.6-9.9
			c-11.1-3.7-22.1-7.6-32.9-11.8c-10.9-4.3-21.6-8.8-32.3-13.6c-10.6-4.9-21.1-9.9-31.5-15.3c10.6,4.9,21.2,9.7,31.9,14.2
			c10.7,4.6,21.5,8.9,32.5,12.9c21.8,8.2,43.9,15.5,66.4,21.4c11.2,2.9,22.6,5.5,34.1,7.4c5.7,1,11.5,1.8,17.3,2.4
			c5.8,0.6,11.6,1.1,17.3,1.1c2.9,0,5.8-0.2,8.6-0.6c2.8-0.4,5.7-1.1,8-2.6c1.1-0.8,2-1.8,2.3-3.1c0.3-1.3,0.1-2.6-0.4-4
			c-0.8-2.7-2.2-5.3-3.9-7.7c-1.6-2.4-3.5-4.6-5.6-6.6c-1-1.1-2.1-2-3.2-3c-1.1-0.9-2.2-1.9-3.4-2.8
			C290.7,136,285.8,132.9,280.6,130.2z"/>
	</g>
	<g>
		<path class="st0" d="M92.5,110.2c-6.5-3.1-12.8-6.5-19.1-9.9c-6.3-3.4-12.5-7.1-18.6-10.8c-6.1-3.7-12.1-7.7-18-11.9
			c-5.9-4.2-11.6-8.6-17-13.4c-2.7-2.4-5.3-4.9-7.8-7.5c-2.5-2.6-4.8-5.4-6.9-8.4c-2.1-3-3.9-6.3-4.7-10.1c-0.4-1.9-0.5-3.9,0-5.8
			c0.2-1,0.6-1.9,1.1-2.7c0.5-0.8,1.1-1.6,1.8-2.3c1.3-1.4,3-2.4,4.6-3.2c0.8-0.4,1.6-0.8,2.5-1.2c0.9-0.3,1.7-0.7,2.6-1
			c3.5-1.1,7.2-1.7,10.8-1.6c3.6,0,7.2,0.5,10.8,1c3.6,0.6,7.1,1.3,10.6,2.1c-7.1-1-14.2-2.2-21.3-2c-3.5,0.1-7,0.7-10.3,1.9
			c-0.8,0.3-1.6,0.7-2.4,1c-0.8,0.4-1.6,0.8-2.3,1.2c-1.5,0.9-3,1.8-4.1,3c-0.6,0.6-1,1.3-1.5,2c-0.4,0.7-0.7,1.5-0.9,2.3
			c-0.4,1.6-0.3,3.3,0.1,4.9c0.7,3.3,2.5,6.4,4.4,9.3c4,5.8,9.1,10.8,14.4,15.5c10.7,9.5,22.4,17.7,34.4,25.5
			c6,3.9,12.1,7.7,18.3,11.3C80,103.2,86.3,106.7,92.5,110.2z"/>
	</g>
</g>
</svg>
