<?xml version="1.0" encoding="utf-8"?>
<!-- Generator: Adobe Illustrator 24.3.0, SVG Export Plug-In . SVG Version: 6.00 Build 0)  -->
<svg version="1.1" id="Capa_1" xmlns="http://www.w3.org/2000/svg" xmlns:xlink="http://www.w3.org/1999/xlink" x="0px" y="0px"
	 viewBox="0 0 328.3 312.4" style="enable-background:new 0 0 328.3 312.4;" xml:space="preserve">
<style type="text/css">
	.st0{opacity:0.5;fill:#FFEC00;}
	.st1{opacity:0.42;fill:#60FFD4;}
	.st2{fill:#60FFD4;}
	.st3{fill:#FF68FF;}
	.st4{fill:#FFEC00;}
	.st5{fill:#E8D207;}
	.st6{fill:#42E8B9;}
	.st7{fill:#D546E0;}
</style>
<g>
	<circle class="st0" cx="224.6" cy="208.7" r="103.7"/>
	<g>
		<path class="st1" d="M184.8,92.4c0-4.1-61.6-4.1-61.6-4.1h-20.9l7.5-7.5c0,0,29-29,26.1-31.9C133.1,45.9,104,75,104,75l-7.5,7.5
			V61.6c0,0,0-61.6-4.1-61.6c-4.1,0-4.1,61.6-4.1,61.6v20.9L80.8,75c0,0-29-29-31.9-26.1C45.9,51.8,75,80.8,75,80.8l7.5,7.5H61.6
			c0,0-61.6,0-61.6,4.1c0,4.1,61.6,4.1,61.6,4.1h20.9L75,104c0,0-29,29-26.1,31.9c2.9,2.9,31.9-26.1,31.9-26.1l7.5-7.5v20.9
			c0,0,0,61.6,4.1,61.6c4.1,0,4.1-61.6,4.1-61.6v-20.9l7.5,7.5c0,0,29,29,31.9,26.1c2.9-2.9-26.1-31.9-26.1-31.9l-7.5-7.5h20.9
			C123.2,96.5,184.8,96.5,184.8,92.4z"/>
		<g>
			<path class="st2" d="M182,187.3l-1.5,66.6c0,1.7,1.4,3,3.1,2.8l6.9-0.8c1.4-0.2,2.5-1.4,2.5-2.9l-2.2-68.1
				c-0.1-2.2-2.6-3.5-4.4-2.1l-3.2,2.4C182.4,185.7,182,186.5,182,187.3z"/>
			<path class="st2" d="M180,203.1l-29.4,59.7c-0.7,1.5,0,3.3,1.6,3.9l6.6,2.2c1.4,0.5,2.9-0.2,3.4-1.6l26.7-62.7
				c0.9-2.1-0.9-4.3-3.1-3.8l-3.9,0.8C181.1,201.8,180.3,202.4,180,203.1z"/>
			<path class="st2" d="M186.3,210.6l34.7,56.8c0.9,1.4,2.8,1.8,4.1,0.7l5.4-4.4c1.1-0.9,1.4-2.5,0.5-3.7l-38.7-56.1
				c-1.3-1.9-4.1-1.5-4.9,0.6l-1.4,3.7C185.7,208.9,185.8,209.8,186.3,210.6z"/>
			<path class="st3" d="M174.7,203.7V159c0-0.6,0.5-1.2,1.2-1.2h21.7c0.6,0,1.2,0.5,1.2,1.2v44.7c0,0.6-0.5,1.2-1.2,1.2h-21.7
				C175.2,204.8,174.7,204.3,174.7,203.7z"/>
			<path class="st3" d="M279.6,177.5c0.1-0.3,2.2-6.1,3.4-9.5c0.5-1.4,2.1-2.2,3.5-1.7l5.7,2c1.5,0.5,2.2,2.1,1.7,3.5l-3.3,9.5
				L279.6,177.5z"/>
			<path class="st4" d="M212.1,153.8l-7.5,18.8c-0.4,1,0.2,2.2,1.3,2.5l78.8,24.5c1.1,0.4,2.4-0.2,2.8-1.2l6.5-17.7
				c0.4-1-0.2-2.1-1.3-2.5L215,152.6C213.8,152.2,212.6,152.8,212.1,153.8z"/>
			<path class="st5" d="M181.7,131.8l-15.1,37.9c-0.4,1,0.2,2.2,1.3,2.5l78.8,24.5c1.1,0.4,2.4-0.2,2.8-1.2l14.1-36.7
				c0.4-1-0.2-2.1-1.3-2.5l-77.8-25.6C183.3,130.2,182.1,130.7,181.7,131.8z"/>
			<path class="st4" d="M85.4,88.9l-19.3,53.8c-0.5,1.5,0.2,3.1,1.7,3.6l100.5,34.8c1.5,0.5,3-0.3,3.5-1.7l18-52.3
				c0.5-1.4-0.2-3-1.7-3.5L89,87.3C87.6,86.7,85.9,87.5,85.4,88.9z"/>
			<path class="st3" d="M85.4,88.9l-19.3,53.8c-0.5,1.5,0.2,3.1,1.7,3.6l5.5,1.9c1.5,0.5,2.8-1.3,3.3-2.8l19.8-52.8
				c0.5-1.4-0.2-3-1.7-3.5l-5.8-2C87.6,86.7,85.9,87.5,85.4,88.9z"/>
			<path class="st3" d="M144.9,107.8c0.1-0.3,2.2-6.1,3.4-9.5c0.5-1.4,2.1-2.2,3.5-1.7l5.7,2c1.5,0.5,2.2,2.1,1.7,3.5l-3.3,9.5
				L144.9,107.8z"/>
			<path class="st2" d="M177.8,106.9l-35.6-11.5c-0.4-0.1-0.7-0.6-0.5-1l4-12.3c0.1-0.4,0.6-0.7,1-0.5L182.3,93
				c0.4,0.1,0.7,0.6,0.5,1l-4,12.3C178.7,106.8,178.3,107.1,177.8,106.9z"/>
			<path class="st6" d="M205.7,207h-37.9c-0.3,0-0.6-0.3-0.6-0.6v-6.1c0-0.3,0.3-0.6,0.6-0.6h37.9c0.3,0,0.6,0.3,0.6,0.6v6.1
				C206.3,206.8,206,207,205.7,207z"/>
			<path class="st3" d="M168.1,105.3l-42.8-13.9c-0.5-0.2-0.8-0.7-0.6-1.2l4.8-14.8c0.2-0.5,0.7-0.8,1.2-0.6l42.8,13.9
				c0.5,0.2,0.8,0.7,0.6,1.2l-4.8,14.8C169.2,105.2,168.6,105.5,168.1,105.3z"/>
			<circle class="st3" cx="183.5" cy="156.4" r="10.4"/>
			<circle class="st7" cx="183.5" cy="156.4" r="7.2"/>
		</g>
	</g>
</g>
</svg>
