<?xml version="1.0" encoding="utf-8"?>
<!-- Generator: Adobe Illustrator 24.3.0, SVG Export Plug-In . SVG Version: 6.00 Build 0)  -->
<svg version="1.1" id="Capa_1" xmlns="http://www.w3.org/2000/svg" xmlns:xlink="http://www.w3.org/1999/xlink" x="0px" y="0px"
	 viewBox="0 0 342.8 337.5" style="enable-background:new 0 0 342.8 337.5;" xml:space="preserve">
<style type="text/css">
	.st0{opacity:0.5;}
	.st1{fill:#FF68FF;}
	.st2{fill:#60FFD4;}
	.st3{fill:#FFEC00;}
	.st4{fill:#FFFFFF;}
</style>
<g>
	<g>
		<g class="st0">
			<path class="st1" d="M341.8,172.2c15.8,2.2-148,25.2-162,165.3C149.7,262.7,75.9,201.9,0,174.8C78,148.5,140.3,80.1,159.4,0
				C159.4,0,227.4,156.5,341.8,172.2z"/>
		</g>
	</g>
	<g>
		<g>
			<g>
				<path class="st2" d="M96,190.3c3.2,1,5.7,3.5,8.5,5.3c6.7,4.3,15.1,4.8,23,4.8c13.4,0,26.7-0.9,40-2.7
					c15.7-2.2,31.7-5.8,44.6-15.1c12.8-9.3,21.8-25.4,18.7-40.9c-4-20-25.4-31.5-45.4-35.3c-21.5-4.1-44.4-2.4-64,7.3
					S85.9,141.5,81.6,163c0,0-1.3,7,2.6,16.3c0,0-13.7,11.2-16,24.2C68.2,203.5,87.8,187.8,96,190.3z"/>
			</g>
			<g>
				<path class="st3" d="M194.1,226.3c4.3,4.4,9.2,8.3,14.4,11.5c-0.1-7.5-0.8-9.8-2.2-17.4c11-4.7,23.3-10.6,27.1-22
					c2.6-7.7,0.5-16.4-3.5-23.5c-9.3-16.5-28.5-26.5-47.5-25.9c-19,0.6-37,11-48.3,26.2c-3.9,5.3-7.2,11.5-6.9,18.1
					c0.3,8.4,4.9,19.6,11.6,24.8c11.5,8.8,40.9,17.6,60.6,5.4"/>
			</g>
		</g>
		<g>
			<path class="st4" d="M89.3,171.2c-0.4-2.7-0.4-5.4-0.1-8.1c0.3-2.7,1-5.3,1.9-7.9c1.8-5.1,4.7-9.9,8.3-14
				c3.6-4.1,7.3-8,11.5-11.4c2.1-1.7,4.3-3.3,6.6-4.7c2.3-1.4,4.7-2.7,7.1-3.9c-4.7,2.6-9.3,5.5-13.4,9c-4.1,3.5-7.8,7.4-11.3,11.5
				c-3.5,4-6.4,8.7-8.3,13.7c-1,2.5-1.7,5.1-2.1,7.8C89.1,165.8,89,168.5,89.3,171.2z"/>
		</g>
		<g>
			<path class="st4" d="M206.2,161.6c3.2,1,6.2,2.7,8.8,4.7c2.7,2,5,4.5,7,7.2c1.9,2.7,3.5,5.8,4.6,8.9c1.1,3.2,1.7,6.5,1.7,9.9
				c-0.2-3.3-1-6.6-2.1-9.7c-1.2-3.1-2.7-6.1-4.7-8.7c-1.9-2.7-4.2-5.1-6.8-7.2C212.1,164.6,209.3,162.9,206.2,161.6z"/>
		</g>
	</g>
</g>
</svg>
