<?xml version="1.0" encoding="utf-8"?>
<!-- Generator: Adobe Illustrator 24.3.0, SVG Export Plug-In . SVG Version: 6.00 Build 0)  -->
<svg version="1.1" id="Capa_1" xmlns="http://www.w3.org/2000/svg" xmlns:xlink="http://www.w3.org/1999/xlink" x="0px" y="0px"
	 viewBox="0 0 249.3 337.7" style="enable-background:new 0 0 249.3 337.7;" xml:space="preserve">
<style type="text/css">
	.st0{opacity:0.5;fill:#FF68FF;}
	.st1{fill:#60FFD4;}
	.st2{fill:#FFFFFF;}
	.st3{fill:#FF68FF;}
	.st4{fill:none;stroke:#FF68FF;stroke-width:0.3717;stroke-miterlimit:10;}
	.st5{clip-path:url(#SVGID_2_);}
	.st6{fill:#D546E0;}
	.st7{opacity:0.7;clip-path:url(#SVGID_4_);}
</style>
<g>
	<circle class="st0" cx="1503.9" cy="637.3" r="84.1"/>
	<g>
		<path class="st1" d="M1514.3,636.2l-114.8,0c-2.2,0-3.9-1.7-3.9-3.9l0-148.9c0-2.2,1.7-3.9,3.9-3.9l114.8,0c2.2,0,3.9,1.7,3.9,3.9
			v148.9C1518.2,634.5,1516.4,636.2,1514.3,636.2z"/>
		<path class="st2" d="M1483.4,492.2"/>
		<path class="st3" d="M1511.6,518.8c-0.8-14.1-11.9-25.4-25.9-26.5l0,26.5L1511.6,518.8z"/>
		<path class="st2" d="M1511.6,520.4c0,15.6-12.7,28.3-28.3,28.3c-15.6,0-28.3-12.7-28.3-28.3c0-15.6,12.7-28.3,28.3-28.3v28.3
			H1511.6z"/>
		<g>
			<g>
				<path class="st3" d="M1412.3,521.3c1.5-0.1,2.9-0.1,4.4-0.2l4.4-0.2c2.9-0.1,5.8-0.1,8.8-0.2c2.9,0,5.8-0.1,8.8-0.1l4.4,0
					c1.5,0,2.9,0,4.4,0.1c-1.5,0.2-2.9,0.3-4.4,0.5l-4.4,0.3c-2.9,0.2-5.8,0.3-8.8,0.3c-2.9,0-5.9,0-8.8-0.1l-4.4-0.2
					C1415.2,521.5,1413.7,521.4,1412.3,521.3z"/>
			</g>
			<g>
				<path class="st3" d="M1413.5,543.1c5.6-0.5,11.3-0.7,16.9-0.8c5.6-0.1,11.3-0.1,16.9,0.3c-5.6,0.5-11.3,0.7-16.9,0.8
					C1424.8,543.5,1419.2,543.5,1413.5,543.1z"/>
			</g>
			<g>
				<path class="st3" d="M1413.5,563c3.6-0.1,7.2-0.2,10.7-0.3l10.7-0.1c7.2-0.1,14.3-0.1,21.5-0.1c7.2,0.1,14.3,0.1,21.5,0.2
					l10.7,0.2c3.6,0.1,7.2,0.2,10.7,0.3c-3.6,0.1-7.2,0.2-10.7,0.3l-10.7,0.1c-7.2,0.1-14.3,0.1-21.5,0.1
					c-7.2-0.1-14.3-0.1-21.5-0.2l-10.7-0.2C1420.7,563.2,1417.1,563.1,1413.5,563z"/>
			</g>
			<g>
				<path class="st3" d="M1413.9,585.9c3.6-0.2,7.3-0.3,10.9-0.4l10.9-0.3c7.3-0.2,14.6-0.3,21.9-0.5c7.3-0.1,14.6-0.2,21.9-0.2
					l10.9,0c3.6,0,7.3,0,10.9,0.1c-3.6,0.2-7.3,0.3-10.9,0.4l-10.9,0.3c-7.3,0.2-14.6,0.3-21.9,0.5c-7.3,0.1-14.6,0.2-21.9,0.2
					l-10.9,0C1421.2,585.9,1417.6,585.9,1413.9,585.9z"/>
			</g>
			<g>
				<path class="st3" d="M1413.5,607.8l21.7,0c7.2,0,14.4,0,21.7-0.1c7.2,0,14.4-0.1,21.7-0.2l21.7-0.3c-3.6,0.3-7.2,0.5-10.8,0.7
					l-10.8,0.5c-7.2,0.3-14.5,0.4-21.7,0.5c-7.2,0-14.5,0-21.7-0.2l-10.8-0.4C1420.7,608.2,1417.1,608,1413.5,607.8z"/>
			</g>
		</g>
	</g>
	<g>
		<path class="st3" d="M1512.5,746.6h-9.7c-0.2,0-0.3-0.1-0.3-0.3v-83.7c0-0.2,0.1-0.3,0.3-0.3h9.7c0.2,0,0.3,0.1,0.3,0.3v83.7
			C1512.8,746.5,1512.7,746.6,1512.5,746.6z"/>
		<path class="st3" d="M1558,746.6h-9.7c-0.2,0-0.3-0.1-0.3-0.3v-83.7c0-0.2,0.1-0.3,0.3-0.3h9.7c0.2,0,0.3,0.1,0.3,0.3v83.7
			C1558.4,746.5,1558.2,746.6,1558,746.6z"/>
		<path class="st3" d="M1602.7,746.6h-9.7c-0.2,0-0.3-0.1-0.3-0.3v-83.7c0-0.2,0.1-0.3,0.3-0.3h9.7c0.2,0,0.3,0.1,0.3,0.3v83.7
			C1603,746.5,1602.8,746.6,1602.7,746.6z"/>
		<path class="st1" d="M1534.4,746.6h-9.7c-0.2,0-0.3-0.1-0.3-0.3V641.8c0-0.2,0.1-0.3,0.3-0.3h9.7c0.2,0,0.3,0.1,0.3,0.3v104.5
			C1534.7,746.5,1534.5,746.6,1534.4,746.6z"/>
		<path class="st1" d="M1580.5,746.6h-9.7c-0.2,0-0.3-0.1-0.3-0.3V641.8c0-0.2,0.1-0.3,0.3-0.3h9.7c0.2,0,0.3,0.1,0.3,0.3v104.5
			C1580.8,746.5,1580.7,746.6,1580.5,746.6z"/>
		<path class="st4" d="M1602.7,746.6h-9.7c-0.2,0-0.3-0.1-0.3-0.3V641.8c0-0.2,0.1-0.3,0.3-0.3h9.7c0.2,0,0.3,0.1,0.3,0.3v104.5
			C1603,746.5,1602.8,746.6,1602.7,746.6z"/>
	</g>
</g>
<g>
	<g>
		<path class="st3" d="M35.1,45.5c-2.2-2-5-3.1-7.8-3.6c-2.8-0.4-5.7-0.1-8.4,0.7c-5.4,1.6-9.6,5.9-12.1,10.8
			c-1.3,2.5-2.2,5.2-2.7,7.9c-0.3,1.4-0.5,2.8-0.6,4.2c-0.1,1.4-0.1,2.7,0,4.1c0.2,2.8,0.9,5.6,1.7,8.3c0.8,2.7,1.8,5.5,3,8.1
			c1.2,2.6,2.5,5.2,3.9,7.7c1.4,2.5,3,4.9,4.8,7.1c0.9,1.1,1.8,2.1,2.9,3.1c1,1,2.1,2,3.2,3c2.1,2,4.3,4,6.5,5.9
			c4.4,3.8,9,7.4,14.1,10.4c2.5,1.5,5.2,2.7,7.9,3.9c2.7,1.2,5.4,2.6,7.6,4.5c-2.4-1.7-5.2-2.8-8-3.7c-2.8-0.9-5.6-2-8.3-3.4
			c-5.4-2.6-10.3-6.1-14.9-9.8c-2.3-1.8-4.6-3.8-6.8-5.7c-1.1-1-2.2-2-3.3-3c-1.1-1-2.3-2.1-3.2-3.3c-4-4.7-7-9.9-9.5-15.4
			C2.6,82,0.6,76.2,0.1,70C0,68.5,0,66.8,0.1,65.3c0.2-1.5,0.4-3.1,0.7-4.6c0.7-3,1.8-5.9,3.3-8.7c1.5-2.7,3.5-5.2,5.9-7.2
			c2.4-2,5.3-3.4,8.3-4.1c3-0.7,6.2-0.7,9.1,0.1C30.5,41.6,33.2,43.3,35.1,45.5z"/>
	</g>
	<g>
		<defs>
			<path id="SVGID_1_" d="M151,182.8c20-7.4,32.4-27.4,41.2-46.8c18.1-40,27.8-83.9,28.2-127.8C149.6-3,74.2,7.2,26.2,12.4l0,0.1
				c2.5,30.5,5.3,61.2,15.6,90c10.3,28.8,24.6,58.8,50.7,74.8c5.3,3.2,11.5,5.7,18,7.2c1,29.6,2.9,59.1,1.6,88.8
				c-0.4,9.5-0.8,19.1-0.3,28.6c-16.5,7.3-30.9,19.4-40.6,34.7c37.4,1.5,74.8,1.5,112.2-0.1c-5.9-16.1-18.8-29.5-34.7-36
				c-2.2-0.9-4.6-1.6-7.1-2.2c0.8-37.8,1.7-75.6,2.5-113.4C146.4,184.3,148.7,183.7,151,182.8z"/>
		</defs>
		<use xlink:href="#SVGID_1_"  style="overflow:visible;fill:#FF68FF;"/>
		<clipPath id="SVGID_2_">
			<use xlink:href="#SVGID_1_"  style="overflow:visible;"/>
		</clipPath>
		<g class="st5">
			<g>
				<path class="st6" d="M28.8,12.8c-0.6,7.7-1.4,15.5-1.4,23.3c0,7.2,0.6,14.4,1.8,21.5c2.3,14.8,6.7,29.2,12.1,43.2
					c4.9,12.5,10.4,24.9,16.9,36.7c5.5,10,12,19.6,20,27.7c9.2,9.2,20.3,16,32.8,19.8c-0.3-0.3-0.5-0.7-0.8-1
					c-0.1,25.9-0.3,51.8-0.4,77.7c0,6.6-0.1,13.2-0.1,19.8c0,6.3,0.2,12.6-0.1,18.9c-0.1,1.7-0.5,3.1-1.9,4c-1.1,0.7-2.3,1-3.5,1.4
					c-2.2,0.8-4.4,1.7-6.5,2.8c-4.2,2.1-8.1,4.8-11.6,7.9c-8,7.1-13.9,16.4-16.8,26.6c-0.4,1.3,1.7,1.9,2,0.6
					c2.7-9.5,8-18,15.2-24.7c3.6-3.3,7.5-6.1,11.9-8.4c2.2-1.2,4.5-2.1,6.9-3c2-0.7,4.2-1.4,5.4-3.3c1.5-2.2,1.1-5.3,1.1-7.8
					c0-3.3,0-6.6,0-9.9c0-6.5,0.1-13,0.1-19.4c0.1-13.1,0.1-26.1,0.2-39.2c0.1-14.7,0.1-29.4,0.2-44.1c0-0.5-0.3-0.9-0.8-1
					c-11-3.4-21-9.1-29.4-16.9c-8.3-7.7-14.9-16.9-20.5-26.6c-6.5-11.2-11.9-23.1-16.8-35.2c-5.5-13.5-10-27.5-12.8-41.8
					c-1.5-8-2.5-16.1-2.6-24.2c-0.1-8.5,0.7-16.9,1.4-25.3C31,11.5,28.9,11.5,28.8,12.8L28.8,12.8z"/>
			</g>
		</g>
	</g>
	<g>
		<path class="st3" d="M213,40.8c1.8-2.4,4.4-4.2,7.3-5.1c2.9-0.9,6.1-1.1,9.1-0.6c3,0.5,6.1,1.8,8.5,3.7c2.5,1.9,4.6,4.2,6.3,6.9
			c1.6,2.6,2.9,5.5,3.7,8.5c0.4,1.5,0.7,3,1,4.5c0.3,1.5,0.3,3.2,0.3,4.7c-0.2,6.2-1.9,12.1-4,17.8c-2.2,5.6-4.9,11-8.7,15.9
			c-0.9,1.2-2,2.4-3.1,3.4c-1,1.1-2.1,2.1-3.2,3.1c-2.1,2.1-4.3,4.1-6.5,6.1c-4.5,3.9-9.2,7.6-14.4,10.6c-2.6,1.5-5.3,2.7-8.1,3.8
			c-2.7,1.1-5.4,2.3-7.7,4.2c2.1-2,4.8-3.6,7.4-4.9c2.6-1.3,5.2-2.7,7.7-4.3c4.9-3.2,9.3-7.1,13.5-11.1c2.1-2,4.2-4.1,6.2-6.2
			c1-1.1,2-2.1,3-3.2c1-1.1,1.9-2.1,2.8-3.2c1.7-2.3,3.1-4.8,4.4-7.3c1.3-2.6,2.5-5.2,3.5-7.9c1-2.7,1.9-5.5,2.5-8.2
			c0.6-2.8,1.2-5.6,1.3-8.4c0-1.4,0-2.7-0.2-4.1c-0.2-1.4-0.5-2.8-0.8-4.1c-0.7-2.7-1.7-5.4-3.1-7.8c-2.8-4.8-7.1-8.8-12.6-10.2
			c-2.7-0.7-5.6-0.8-8.4-0.2C217.8,37.4,215.1,38.7,213,40.8z"/>
	</g>
	
		<ellipse transform="matrix(0.9996 -2.671040e-02 2.671040e-02 0.9996 -0.2193 3.307)" class="st6" cx="123.7" cy="9.9" rx="97.5" ry="9.5"/>
	<g>
		<defs>
			<path id="SVGID_3_" d="M138.7,83.5c5.8-7,10-15.4,15.8-22.4c-6.8,3.4-13.4,7.2-19.8,11.3c-1.5-9-3.6-17.9-6.4-26.6
				c-1.6,8.6-3.1,17.1-4.7,25.7c-6.7-4.6-13.6-8.8-20.7-12.5c5.6,5.2,10.6,11,15,17.2c-10.7-0.6-21.4-0.4-32.1,0.5
				c9.7,1.7,19.2,4.5,28.3,8.1c-7.4,3.8-13.9,9.1-19.3,15.5c7.1-2.9,14.6-4.9,22.2-6.1c-4.3,7.4-8.5,14.8-12.8,22.2
				c6.5-4.1,12.3-9.3,17.1-15.3l0.6-0.5c-0.2,5.3-0.4,10.6-0.7,15.8c-0.2,5.6-0.5,11.4,1.2,16.7c4.5-10.8,7.6-22.2,9.3-33.8
				c5.7,8.6,11.9,16.8,18.6,24.5c-0.1-5.1-2-9.9-3.9-14.5c-1.7-4.1-3.3-8.1-5-12.2c9.2,3.7,18.4,7.3,28.1,9.4
				c-7.5-6.2-15.4-12-23.6-17.2c8.2-2.7,16.4-5.5,24.7-8.2c-10.9,0.2-21.7,1.1-32.5,2.8"/>
		</defs>
		<use xlink:href="#SVGID_3_"  style="overflow:visible;fill:#60FFD4;"/>
		<clipPath id="SVGID_4_">
			<use xlink:href="#SVGID_3_"  style="overflow:visible;"/>
		</clipPath>
		<g class="st7">
			<path class="st1" d="M144,72.4c-11.2,11.4-22.4,22.8-33.6,34.1"/>
		</g>
	</g>
</g>
</svg>
