<?xml version="1.0" encoding="utf-8"?>
<!-- Generator: Adobe Illustrator 24.3.0, SVG Export Plug-In . SVG Version: 6.00 Build 0)  -->
<svg version="1.1" id="Capa_1" xmlns="http://www.w3.org/2000/svg" xmlns:xlink="http://www.w3.org/1999/xlink" x="0px" y="0px"
	 viewBox="0 0 307.2 228.6" style="enable-background:new 0 0 307.2 228.6;" xml:space="preserve">
<style type="text/css">
	.st0{opacity:0.7;clip-path:url(#SVGID_2_);}
	.st1{fill:#FFFFFF;}
	.st2{clip-path:url(#SVGID_2_);}
	.st3{fill:#42E8B9;}
</style>
<g>
	<g>
		<g>
			<defs>
				<path id="SVGID_1_" d="M240.3,82.3c16.4,52.1-12.6,107.6-64.6,123.9s-107.6-12.5-124-64.6C35.3,89.5,64.2,34,116.3,17.6
					S223.9,30.2,240.3,82.3z"/>
			</defs>
			<use xlink:href="#SVGID_1_"  style="overflow:visible;fill:#60FFD4;"/>
			<clipPath id="SVGID_2_">
				<use xlink:href="#SVGID_1_"  style="overflow:visible;"/>
			</clipPath>
			<g class="st0">
				<path class="st1" d="M220.2,154.6c-1.1,0.1-2.8,0.4-3.3,2.4l0.4,0.9c0.3,0.2,0.5,0.3,0.7,0.3c0.6,0.2,1-0.1,1.2-0.3
					c0.5,0.3,1.1,0.1,1.5-0.4l0.3-0.8c0.2-0.2,0.6-0.5,0.7-1.3l-1-0.9C220.6,154.5,220.4,154.6,220.2,154.6z"/>
				<path class="st1" d="M254.1,100.2c-0.3,0-0.6,0.1-0.9,0.2l-1.2,1.3l-0.2,0.7l0.2,1.4c0.2,0.4,0.5,0.7,0.7,0.9l0.8,1.4
					c0.8,0.2,1.7,0.1,2.5-0.4c0.8-0.5,1.4-1.3,1.7-2.2c0.5-1.8-0.5-3.6-2.3-4L254.1,100.2z"/>
				<path class="st1" d="M178.6,120.6c-0.2-0.4-0.7-0.9-1.7-0.9l-0.8,0.4c-0.3,0.6-0.5,1.4,0.8,2.2c0,0,0,0-0.1-0.1l1.5,0
					C178.7,121.6,178.8,121,178.6,120.6z"/>
				<path class="st1" d="M244.7,133.7l-1,0.2l-0.4-1.6c-0.1-0.4-0.7-1.3-1.7-2.4l0.4-0.2l0.7-0.9l0.4-1.3c-0.1-2.9-1.7-4.6-4.8-5
					l-1.8,0.6l-1.1,1l-0.1,0.2c-1,0.8-2.1,2.3-1,5.1l0.3,0.4c-1.2,1-2.6,1.9-2.7,3.5c-0.3,2.2,0.7,4.4,2.6,5.7
					c1.5,1.1,3.3,1.4,5.1,1c0.9-0.3,1.4-1.2,2.1-1.8l0.2,0.6c0.2,0.3,0.6,1,1.4,1.5l0.9,0.3l0.8,0l0.9-0.2c1-0.6,1.7-1.5,1.8-2.5
					c0.2-1.8-1.2-3.1-1.6-3.5L244.7,133.7z"/>
				<path class="st1" d="M123.2,157.2l-0.3,0.2l0.4,1.6l0.9,0.3c0.6,0.2,1.3,0.3,1.9-0.1c0.4-0.3,0.6-0.7,0.7-1.3l-0.5-0.8
					C124.7,156.3,123.8,156.8,123.2,157.2z"/>
				<path class="st1" d="M140.7,59.6c-0.7,0.4-0.9,1.3-1,2.1l0.4,0.9c0.2,0.1,0.3,0.2,0.5,0.2c0.8,0.2,1.4-0.2,1.7-1.4
					c0-0.1,0.1-0.3,0.1-0.4c0,0-0.1,0.2-0.3,0.2l0.3-1.6C141.6,59.2,141,59.4,140.7,59.6z"/>
				<path class="st1" d="M212.4,107.9c0.5,0.1,1,0,1.3-0.4c0.3-0.3,0.5-0.9,0.1-1.9l-1.1-0.4c-1.2,0.5-1.4,1.2-1.3,1.6
					C211.4,107.3,211.8,107.7,212.4,107.9z"/>
				<path class="st1" d="M161.8,180.2l-0.2,0.7l0.6,1l1.1,0.3l1-0.5c0.2-0.6,0.1-1,0-1.3c-0.2-0.3-0.6-0.8-1.5-0.8L161.8,180.2z"/>
				<path class="st1" d="M255.2,80.1c0.1-0.3,0.1-0.5,0.2-0.8l-1.5-3.4l-1.1-1l-3.1-1c-0.6-0.1-1.8-0.2-3.5,0l-0.1-0.3l-2.4-2.9
					l-0.1,0.1l-0.7-0.5l-3.6-0.8l-0.8,0.2l-1.5,1.2c0,0,0,0,0,0c0.6-0.8,0.9-1.7,1-2.7l2.9-1l1.1-1.1l1-3l0.3,0.1
					c0.6-2.8-0.3-4.6-1.4-5.9c0.9-1.2,1.4-2.7,1.1-4.4l-1.7-2.5l0.1-0.1c-1.5-1.9-3.3-2.3-4.6-2.3l-3.3,1.7l-0.1,0
					c-2.1,1.6-2.4,3.6-2.4,4.7l1.1,2.8l0.1,0.1l-1.6,2.3l-0.3,1.4l0.2,1c-1,0.3-2,0.6-2.8,1.5l-0.2,0.8l-0.4,0.2
					c-1.5,1.6-2.2,3.3-2,5.2l0.5,1.7l0.5,0.9l1.2,1.4c2.3,1.7,5.4,1.2,7.5-0.8l-0.1,0.1l-0.7,3.6l0.2,0.8l2.4,2.9l0.1-0.1l0.3,0.2
					c-1,0.3-1.8,0.7-2.3,1.1l-1.5,2.8l-0.2,1.3l0.4,2.4c0.2,0.5,1,1.5,1.9,2.4c-0.2,0.1-0.3,0-0.5,0.3l0.1,1.3
					c0.7,0.5,1.1,0.6,1.5,0.6c0,0.3-0.2,0.4-0.1,0.7c0.3,0.9,1.1,1.7,2.2,2.1l1.8-0.3l1.1-0.9l0.8-1.7c0.2-0.6-0.4-1-0.4-1.5
					c0.5-0.3,1.2-0.4,1.6-0.9c0.9,2,2.3,3.3,4.1,3.8l0,0c1.5,1.6,3.5,2.4,5.7,2.2l3.5-2.2l0.3-0.6l0.1,0.1c2-2.1,2.5-4.7,1.5-7
					C259.3,83.8,258,81.4,255.2,80.1z"/>
				<path class="st1" d="M229.2,123.7c0.9-0.5,1.5-1.4,1.7-2.4c0.2-1-0.1-2-0.5-2.9c0-0.2,0.1-0.4,0.1-0.6c0.4-0.2,0.8-0.4,1.1-0.6
					l1-1.9l1.2-0.1l1.1-0.5c1.8-1.2,2.5-3,1.7-5.8l-0.2,0l0-1l-0.8-1.4l-1.8-1.1c-0.8-0.1-2.3-0.1-3.9,0.7l0.6-3.6l-0.1,0l-0.1-0.9
					l-0.5-0.8c0.3,0,0.4,0.1,0.8-0.1l1.3-1.2l0.7-2c0-0.3,0.1-1-0.2-1.9l-0.3-0.4l0.6-0.5c0.4-0.7,1.5-3.1-1.2-5l-1.6-0.5l-1.3,0.2
					l0.3,1.9l-0.8,1.7l-1.5,1.1l0.2,0.3l-0.7,0.7l-0.7,1.9c0,0.1,0.1,0.4,0,0.5l-0.9-0.2l-0.6-0.1l0,0.1l-0.9,0.1l-3.3,1.8l-0.5,0.7
					l-0.7,3.9l0.1,0l0.1,0.9l1.8,3.3l0.6,0.4l-0.7,0.8l-0.4,1.5l0.7,3.6c-0.5,0.5-0.9,1-1.2,1.7c-1.3,2.8-0.6,6.1,1.8,7.8
					c1.9,1.4,4.4,1.4,6.5,0.2l0-0.1L229.2,123.7z"/>
				<path class="st1" d="M181,200.8c-0.4-0.1-1.2,0-2,0.7l0-0.1c0.1-0.2,0.2-0.4,0.2-0.8l-1-0.9c-0.2-0.1-0.4-0.2-0.8-0.2l-0.9,1
					c-0.1,0.2-0.2,0.4-0.2,0.8l1,0.9c0.2,0.1,0.4,0.2,0.8,0.2l0.7-0.8l-0.2,0.9c0.3,0.8,0.9,1.6,2.6,1.1c0,0,0,0-0.1,0l1.2-1.3
					C182,201.6,181.6,201,181,200.8z"/>
				<path class="st1" d="M149.7,137.8c0.2-0.2,0.8-0.6,0.6-1.6l-0.4-0.2c0-0.3-0.1-0.8-0.5-1.3l-1.3-0.2l-1.1,0.7l-0.4,1.2
					c0.3,0.7,1.2,1.4,1.9,1.6C149,138.1,149.4,138,149.7,137.8z"/>
				<path class="st1" d="M204.5,127.9c1.1,0.5,2.4,0.4,3.6-0.1l1.3-1.8l0.2-1.7l-0.9-2.1c-0.9-2-2.5-2.9-4.7-2.7l-2,2.1l-0.1,1.9
					l0.3,1.4c0,0.1,0.2,0.4,0.2,0.5c-0.3,0-0.5-0.1-0.8,0l-0.5,1.1l0.3,1.2l1,0.7c0.6-0.1,1.2-0.6,1.6-1
					C204,127.5,204.1,127.8,204.5,127.9z"/>
				<path class="st1" d="M96.3,111.4l0,0.5c0.3,0.8,0.8,1.2,1.2,1.3c0.6,0.2,1.2,0.1,1.8-0.3c0.6-0.4,1-1,1.2-1.6l0-0.5
					c-0.3-0.8-0.9-1.2-1.3-1.3C98.1,109.1,96.5,110.2,96.3,111.4z"/>
				<path class="st1" d="M190.9,114.5c1.7-1.1,2.1-3,2.4-4.3l0.1-0.7l-0.8-2.3l-1.4-1.2l-2.5-0.3c-4.8,2.4-4.3,5.7-3.8,7l2.1-0.8
					l0.6,0.6l-0.8,2.1C188.8,115.5,190.3,114.9,190.9,114.5z"/>
				<path class="st1" d="M196.8,129.2l-1.7,1l-0.9,1.3l1.9,1.3l0,0l0.8,2.1l-0.3,2.2l1.3,0.2l1.5-0.3l1.5-0.9l0.9-1.1l0.4-1.1l0-1.4
					C201.9,131.4,200.7,128.5,196.8,129.2z"/>
				<path class="st1" d="M99.6,184.4l-1.2-1.5c-1,0.4-1.2,1.1-1.3,1.5c-0.2,0.9,0.4,1.8,1,2.6l1.1,0.4c0.2-0.1,0.4-0.1,0.5-0.2
					c0.9-0.6,0.9-1.4,0.2-2.6c-0.1-0.1-0.2-0.3-0.2-0.4C99.8,184.1,99.7,184.3,99.6,184.4z"/>
				<path class="st1" d="M144,52.7l-0.2,1.2c1,2.2,2.5,1.7,3,1.5l0.6-0.7c0.2-0.9-0.1-1.8-0.8-2.3C145.8,52,144.9,52,144,52.7z"/>
				<path class="st1" d="M195.2,158.6c-0.6,1.4-0.1,2.2,0.3,2.4c0.5,0.4,1.3,0.4,1.9,0.1c0.5-0.3,0.8-0.9,0.7-1.4
					c-0.1-0.5-0.4-1.2-1.6-1.6L195.2,158.6z"/>
				<path class="st1" d="M183.4,95.3c1-1.3,0.7-3.1-0.5-4l-1.4,1.9c-0.1-0.1-0.1-0.2-0.3-0.2c-0.3,0.3-0.5,0.7-0.8,1
					c0.1,0.2,0.2,0.1,0.3,0.2l-1.4,1.9C180.7,97,182.4,96.6,183.4,95.3z"/>
				<path class="st1" d="M140.9,65.8c-0.2,0-0.4-0.1-0.6-0.1c-1.3-0.3-3.2-0.8-4.5,1.2l0,1.1c0.2,0.3,0.4,0.5,0.7,0.7
					c0.6,0.4,1.1,0.3,1.4,0.2c0.5,0.5,1.2,0.6,1.8,0.2l0.6-0.7c0.3-0.1,0.9-0.3,1.3-1.1L140.9,65.8z"/>
				<path class="st1" d="M215.7,150.8l2.1-1.4c0.8-2,0.1-4.3-1.8-5.6c-1.3-1-3.1-1.3-4.5-1l-1.3,1l-0.7,1.2l-0.2,1.7
					c0.3,1.1,0.9,1.9,1.8,2.6c0.5,0.3,0.9,0.5,1.3,0.7l0.2-0.1l1.4,1L215.7,150.8z"/>
				<path class="st1" d="M183.4,193.5c-0.4,0.1-0.7,0.4-0.9,0.7l0.2,0.6c0-0.2,0.1-0.3,0.2-0.4l0.1,1.5l0.7,0.5l0.9,0.1
					c0.6-0.2,0.9-0.7,1-1.2C185.7,194.3,184.4,193.2,183.4,193.5z"/>
				<path class="st1" d="M223.9,169.1l-0.8-0.5l-1.4,0.3c-0.8,0-1.4-0.5-2.2-0.2l1.2,1.9c-0.1,0-0.2,0-0.3,0.1l0.5,0.8
					c-0.3,0.3-0.5,0.6-0.6,0.9l1.9,1.1l0,0l0,0l1.9,1.1c0.2-0.3,0.2-0.3,0.4-0.4l0.9-1.8l0-1.6l-0.9-1.8
					C224.2,169.1,224.1,169.2,223.9,169.1z"/>
				<path class="st1" d="M137.2,150.3c-0.6,0.6-0.9,1.1-0.9,1.7c0,0.5,0.3,0.9,0.7,1.2l0,0c0.6,0.4,1.4,0.5,2,0.4
					c0.6-0.1,1.1-0.4,1.3-0.8l-0.2-1.3l-1.7-1.3L137.2,150.3z"/>
				<path class="st1" d="M143.9,94l-1.6,0.6c0-0.1,0.1-0.2,0.2-0.2c0,0-0.2,0.1-0.3,0.1c-0.3,0.1-0.9,0.3-1.1,0.9
					c-0.2,0.7,0.3,1.2,0.4,1.4l1.3,0.1c0.5-0.2,1.5-0.7,1.6-1.6C144.5,95,144.4,94.5,143.9,94z"/>
				<path class="st1" d="M184.1,49.3l-0.3,1.6l0.7,2l0.6,0.5c1.5,1,2.8,1.1,3.6,0.9c0.8-0.2,2-0.7,2.8-2.2l0.2-1.6l-0.4-1.3
					l-0.5-0.7c0.2,0,0.2,0.1,0.5,0.1l1.5-0.7l1.2-1.5c0.1-0.3,0.4-0.9,0.4-1.7l-0.7-1.5l-0.1-0.1c0-0.4,0.1-0.8-0.1-1.5l-1.2-1.3
					l-1.9-0.7c-0.3,0-1-0.1-1.8,0.1l-1.4,1.3l-0.8,2c-0.1,0.4-0.1,1.1,0.2,1.9l1.2,1.3l0.4,0.9l0.6,0.5c-1.4-0.3-2.7,0-3.4,0.3
					L184.1,49.3z"/>
				<path class="st1" d="M170.7,57.5c0.1,0.4,0.2,1.3,0.9,2.2l0.9,0.7l0.9,0.3l1.1,0.1c1.4-0.2,2.4-0.9,3-2c1-1.9,0-3.8-0.3-4.4
					l-1.7-1.2l-1.6-0.2l-0.8,0c-0.3,0.1-1,0.2-1.7,0.8l-0.8,1.6L170.7,57.5z"/>
				<path class="st1" d="M176.6,115l0.1-1.2l-0.2-1c-0.2-0.5-0.7-1.5-1.7-2.2l-2.6,3.5c0,0,0,0,0.1,0.1l0,0.6L176.6,115z"/>
				<path class="st1" d="M171.1,97.3c-1.6,1.3-1.8,2.8-1.8,3.6c0,1.2,0.6,2.3,1.6,3.1c1,0.7,2.3,1,3.5,0.6c1.3-0.3,2.4-1.3,3-2.6
					l0.1-1.5l-0.3-1.2l-0.8-1.2l-1.4-1l-1.4-0.4l-1.2,0L171.1,97.3z"/>
				<path class="st1" d="M187.9,80.4l0.4-1.6l-0.2-1.4l-0.9-1.4l-1.7-1.2l-1.4-0.4l-1.2,0.1l-1.3,0.5c-1,0.9-1.6,2.1-1.5,3.3
					c0.1,1.2,0.7,2.3,1.7,3C183.5,82.5,186.3,82.6,187.9,80.4z"/>
				<path class="st1" d="M214.5,64.8l0.5-3l-0.2-1.2l-2.1-3c-2.5-1.8-4.8-1.5-5.9-1.1c-0.9,0.3-1.3,0.9-1.8,1.5l-1-1.2l-1.1-0.6
					l-3.5-0.4c-3,0.7-4.1,2.6-4.6,3.7c-1.1,2.9,0.4,5.3,1,6.1l1.8,1.5l0.9,0.4l2.5,0.3l0.6-0.1c0.7-0.2,1-0.8,1.6-1.2
					c-0.1,0.2-0.3,0.3-0.3,0.4c-0.1,0.9,0,1.8,0.6,2.7c0.5,0.8,1.4,1.4,2.3,1.8c-0.9,0.6-2,0.8-2.2,2.1l0.6,1
					c-0.6,0.2-0.9,0.6-1.3,0.9l-1.1-1.5c-3.3-2.2-6.3-1-7.9,0.6l-1.1,1.9l-0.2,0.9l0,2.2c0,0.1,0.1,0.5,0.1,0.7
					c-0.1,0-0.1-0.1-0.2-0.1l-0.5-0.3l-2.2,0l-1.4,0.9l-0.9,2.1c0.8,4.9,3.8,5.3,5,5.3l-0.1-2.1l0.7-0.3l0,0l1.6,1.3l-1,0.6
					l-0.7,0.9l-0.4,1.3c0,1.3,0.6,2.5,1.5,3.2c0.9,0.7,2.1,0.9,3.3,0.7c1.9-0.5,3.4-2.3,3.2-4.6l1.3-0.7l0.8-1.5l0-0.6l0.8-0.4
					c0.2-0.2,0.2-0.6,0.4-0.8c1.1,0.7,2.9,1.6,5.6,1c0.7-0.2,1.3-0.4,1.9-0.7l0,0l0.1-0.1l0,0l0,0l1.5-1.1l2-0.1l1.9,0.9l0.5-1.1
					l0.1-1.4l-0.4-1.6l-0.7-1.1l-0.9-0.7l-1.2-0.4c-0.1,0-0.5,0.2-0.7,0.2c-0.3-1-0.5-2.2-1.3-2.9c-0.4-0.3-0.8-0.4-1.2-0.6
					c0.7-0.8,1-1.9,0.9-3.2l-1.2-1.6l-1.1-0.5l0.5-1.6C211.4,68,213.1,67.1,214.5,64.8z M199.8,87.4L199.8,87.4l0-0.2L199.8,87.4z
					 M194.9,86.7l-0.2,0.1c0.4-0.5,0.5-0.9,0.6-1.3c0,0.4,0,0.7,0.1,1.1L194.9,86.7z"/>
				<path class="st1" d="M153.8,9.9l-1-0.9c-1.5,0-2,0.7-2.1,1.2c-0.2,0.6,0.1,1.3,0.6,1.7c0.5,0.3,1.1,0.4,1.6,0.1
					C153.4,11.7,153.9,11.2,153.8,9.9z"/>
				<path class="st1" d="M206.3,28.1l0.9,0.8c1.7,1.2,3.6,1.1,5.9-0.5l-0.1-0.2l0.9-0.4l1-1.2l0.4-2c-0.2-0.9-0.7-2.5-2.4-3.7
					c-0.3-0.2-0.7-0.5-1.1-0.7l-1.5-0.1l-1.2,0.3l-0.8,0.5l-1.4,1.7l-0.1,0.6c-1,1.1-1.1,2.4-0.9,3.9L206.3,28.1z"/>
				<path class="st1" d="M66.2,68.9l-0.5,0.7L66,71l1,0.7l1.3-0.2c0.5-0.5,0.5-1.1,0.5-1.4c-0.1-0.4-0.3-1.1-1.3-1.6L66.2,68.9z"/>
				<path class="st1" d="M84,136.4c-0.2,0-0.5,0.1-0.8,0.4l0,1.4c0,0.2,0.1,0.5,0.4,0.8l1.4,0c0.2,0,0.5-0.1,0.8-0.4l0-1.4
					c0-0.2-0.1-0.5-0.4-0.8L84,136.4z"/>
				<path class="st1" d="M186.6,132.5l-1.6-1l-0.7-0.1c0.1-0.5,0.3-1-0.1-1.4c-0.2-0.2-0.6-0.5-1.3-0.4l-0.6,1.5
					c-0.1-0.1-0.1-0.2-0.1-0.3c0,0-0.1,0.2-0.1,0.2c0,0.1,0,0.3,0,0.4c-1.1,0-2.4,0.5-3.5,2.5l-0.2,1.5l0.3,1.2l0.8,1.3l2.4,1.7
					l1.4,0.4l1.2-0.1l1.3-0.6C188.1,137.6,188.4,135.3,186.6,132.5z"/>
				<path class="st1" d="M205.5,99.1l0.5,2.2c-0.1,0-0.2,0-0.4,0.1c0.1,0.4,0.2,0.8,0.3,1.2c0.2,0,0.2-0.1,0.4-0.1l0.5,2.2
					c1.5-0.4,2.3-1.8,1.9-3.4C208.4,99.7,206.9,98.7,205.5,99.1z"/>
				<path class="st1" d="M159.7,114.4c-1,0.7-2.6,1.9-2,4.1l0.9,0.7c0.4,0,0.7,0,0.9-0.1c0.7-0.2,0.9-0.6,1-1c0.7,0,1.2-0.5,1.3-1.2
					l-0.2-0.9c0.1-0.3,0.3-0.9,0-1.7l-1.4-0.4C160,114.2,159.9,114.3,159.7,114.4z"/>
				<path class="st1" d="M165.1,40.8l-0.9,1.4c-0.3,0.2-0.5,0.4-0.8,0.7l-0.5,1.9l0.2,0.8l0.9,1.3c0.4,0.3,0.8,0.4,1.2,0.5l1.5,0.9
					c0.9-0.2,1.8-0.8,2.3-1.7c0.6-0.9,0.7-2.1,0.5-3.1C169,41.5,167,40.3,165.1,40.8z"/>
				<path class="st1" d="M173.4,27.5c0.3,0.1,0.9,0.4,1.8,0.4l1.5-0.7l1.3-1.6c0.1-0.3,0.4-0.9,0.4-1.8l-0.7-1.5l-1.5-1.2
					c-0.3-0.1-0.9-0.4-1.7-0.4l-1.6,0.7l-1.2,1.5c-0.1,0.2-0.5,0.9-0.5,1.8l0.7,1.6L173.4,27.5z"/>
				<path class="st1" d="M100.1,102.9c-0.4-0.3-1.1-0.5-2.2,0l-0.5,0.8c0,0.8,0.3,1.7,2,1.8c0,0,0,0-0.1-0.1l1.5-0.8
					C100.8,103.9,100.6,103.3,100.1,102.9z"/>
				<path class="st1" d="M213.4,48.2l0.4,0.7l-0.1,0.5c0.2,2.1,1.1,3.7,2.6,4.7l1.6,0.7l1,0.2l1.8,0c2.9-0.7,4.7-3.6,4.2-6.6
					c0-0.2-0.1-0.3-0.1-0.5l0.3-0.6c-0.2-1.9-1.1-3.6-2.5-4.6c-1.4-1-3.1-1.4-4.8-1C214.8,42.3,213,45.1,213.4,48.2z"/>
				<path class="st1" d="M90.7,33.3l-1.2,0.3l-0.7,1c0.1,0.7,0.7,1.6,1.2,2c0.5,0.3,0.9,0.3,1.2,0.3c0.3-0.1,0.9-0.3,1-1.3l-0.3-0.4
					c0.1-0.3,0.2-0.8,0-1.3L90.7,33.3z"/>
				<path class="st1" d="M149.1,7.8l1.6,0.8l0.9-2l-0.7,2l2.2-0.4l1.2-1.1l0.6-2.1l-0.4-1.6l-0.7-1.2l-0.9-0.7l-1.3-0.5l-1.1,0.1
					c-2.1,0.5-2.9,2.4-2.8,4l0.4,1.1L149.1,7.8z"/>
				<path class="st1" d="M176.2,72.9l1.9,0.7l0.8-0.1c1.7-0.4,2.5-1.4,2.9-2.1c0.4-0.7,0.7-1.9,0.1-3.5l-1.1-1.2l-1.2-0.6l-1.4-0.1
					c-1.1,0.3-1.8,0.9-2.3,1.5l-0.2-1.2l-1.1-1.2l-2-0.6l-1.5,0.4l-1.1,0.7l-0.7,0.9l-0.2,0.5l-0.6,0.1c-1.1,0.7-1.8,1.7-2,2.9
					c-0.2,1.3,0.2,2.6,1.2,3.9l1.3,0.8l1.2,0.3l1.6-0.2l0.4-0.2c0.6-0.4,1.3-1.6,1.5-3.3l0.3-0.1l1-0.8l0.3,1.3L176.2,72.9z
					 M175.5,68.3C175.4,68.3,175.4,68.3,175.5,68.3l-1.3-0.4L175.5,68.3z"/>
				<path class="st1" d="M177.7,86.1c0.7-1.1,0.9-2.4,0.4-3.5c-0.8-1.9-2.8-2.4-3.5-2.6l-1.9,0.5l-1.2,1l-0.5,0.7
					c-0.1,0.3-0.4,0.9-0.4,1.8l0.7,1.6l1.4,1.2c0.3,0.2,1.1,0.7,2.2,0.7l1.1-0.3l0.8-0.4L177.7,86.1z"/>
				<path class="st1" d="M145.4,36.9l-2.4,1.3l-0.7,1.7l-0.1,1.3c0,0.7-0.1,2.2,1.2,3.4c0.8,0.8,2,1.1,3.3,1l1.7-1.2l0.7-1.5
					l-0.1-2.1C148.6,38.6,147.4,37.3,145.4,36.9z"/>
				<path class="st1" d="M218.2,117.9l-0.9-0.5c-0.5-0.1-1.6-0.4-2.7-0.2l1,4.2c0,0,0.1,0,0.1,0l0.4,0.4l2.9-3.1L218.2,117.9z"/>
				<path class="st1" d="M207.9,108.4l-1.4-0.2l-1.6,0.4l-1.2,0.7l-0.7,0.9l-0.5,1.3c0,2,1,3.1,1.6,3.6c0.9,0.7,2.1,1,3.3,0.7
					c1.2-0.3,2.1-1.1,2.7-2.2c0.6-1.2,0.5-2.6-0.1-3.8l-1-1L207.9,108.4z"/>
				<path class="st1" d="M64.7,169l-0.2,0.4l1.2,1.4l1.1-0.2c0.7-0.2,1.5-0.4,1.9-1.2c0.2-0.5,0.2-1.1,0-1.7l-0.9-0.6
					C65.8,167.2,65.2,168.3,64.7,169z"/>
				<path class="st1" d="M133.5,50.5l1.1,0.5l1.4,0.2l1.6-0.4l1.2-0.7l0.7-0.9l0.5-1.3c0-0.9-0.2-3.9-3.9-4.4l-1.8,0.4l-1.2,0.9
					l1.3,1.7l0.1,2.1L133.5,50.5z"/>
				<path class="st1" d="M32.3,63.2c0,0.1-0.1,0.2-0.2,0.3l-0.6-1.7c-1,0.1-1.4,0.6-1.6,0.9c-0.4,0.8-0.2,1.7,0.1,2.6l0.9,0.7
					c0.2,0,0.4,0,0.6-0.1c1-0.2,1.3-1,1-2.3C32.4,63.4,32.3,63.2,32.3,63.2z"/>
				<path class="st1" d="M128,71.2c0.1-0.5,0-1.2-1-2l-1.3,0.1c-0.9,1.1-0.7,1.9-0.5,2.3c0.3,0.5,1,0.8,1.7,0.6
					C127.4,72.1,127.9,71.7,128,71.2z"/>
				<path class="st1" d="M169.4,35.1l-0.2,0.9l0.4,2.1l0.4,0.4c0.2,1.5,1.1,2.4,2.3,3.2l1.2,0.3l1.1-0.1c2-0.5,3.1-2,3.3-4.7
					l-0.2-0.1l0.3-0.9l-0.3-1.5l-1.2-1.6c-0.8-0.4-2.2-1.1-4.3-0.6c-0.4,0.1-0.8,0.2-1.2,0.4l-1.1,1L169.4,35.1z"/>
				<path class="st1" d="M115.9,170.1l-0.6,1.1l0.2,0.8l1.1,0.7l1.2-0.3l0.7-1.1c-0.1-0.7-0.5-1-0.7-1.2
					C117.6,169.9,116.9,169.7,115.9,170.1z"/>
				<path class="st1" d="M183,29.1l1,0.5l2.8,0.3l0.8-0.2l1.5,0.4c1.9-0.2,3.2-1.1,4.1-2.3c0.9,1.5,2.2,2.9,4,3.3l3.8-0.9l0.5-0.4
					l0.1,0.1c2.4-1.3,3.7-3.5,3.5-5.8c1-2.5,0.7-5.6-2.3-7.6l-0.8-0.9l-4.2-1.4c0.7-0.1,1.3,0,1.3,0c-0.5-0.2-2.2-0.7-4.2-0.2
					c-0.5,0.1-1.1,0.3-1.6,0.6l-1.6,1.6c-0.5-0.1-0.9-0.3-1.4-0.3c-2.5-1-5.5-0.6-7.4,2.3l-0.9,0.7l-1.3,4.1c-0.2-0.7,0-1.2,0-1.2
					c-0.2,0.5-0.6,2.1-0.1,4.1c0.1,0.5,0.3,1,0.6,1.5L183,29.1z"/>
				<path class="st1" d="M213.5,53.9l0.9-1.5c-0.2-0.9-0.9-1.7-1.7-2.2c-0.9-0.5-2-0.7-3-0.4c-2,0.5-3.1,2.4-2.6,4.3l1.4,0.8
					c0.2,0.3,0.4,0.5,0.7,0.8l1.9,0.4l0.8-0.2l1.3-0.9C213.3,54.7,213.5,54.3,213.5,53.9z"/>
				<path class="st1" d="M95.3,61.8l1.1,0.5c0.3-0.1,0.4,0,0.7,0.1l1.2-1.1L98,60.1l-1.4-0.6C95.2,59.9,94.7,60.7,95.3,61.8z"/>
				<path class="st1" d="M131.6,33.4l0.9,0.7l1.3,0.5c0.6,0,2.1-0.1,2.8-1.5c-0.2,0.2-0.6,0.4-0.9,0.4l0.8-0.6
					c1.7-0.4,3.2-1.7,2.9-4.4c0.5-0.9,0.6-2,0.4-3c-0.1-0.4-0.5-0.5-0.7-0.8l0-2.1l-0.9-1.5l-2.1-1c-1.9,0.3-2.6,1-3.5,1.7
					c-0.2,0-0.3-0.3-0.5-0.2l-1.6,1.2l-0.7,1.5l-0.2,1.1c-0.1,0.5-0.2,1.3,0.1,2.3l0.4,1.1l1.2,0.9c-0.4,0.8-0.5,1.7-0.3,2.6
					L131.6,33.4z"/>
				<path class="st1" d="M235.1,44.3l1.9-0.4l1.2-1l0.7-1.8l-0.1-0.7c-0.4-1.6-1.4-2.4-2.1-2.8c-0.7-0.4-1.9-0.7-3.4-0.1l-1.1,1.1
					l-0.5,1.2l-0.1,1.3C232.1,43.5,234.1,44,235.1,44.3z"/>
				<path class="st1" d="M150.5,85.7l-1.4,0.7l-0.9,1l-0.4,2.2c0.3,1.1,1,2,2,2.5c1.1,0.6,2.4,0.6,3.8,0l1.1-0.9l0.6-1l0.2-1.4
					l-0.1-0.4C155.2,87.6,154.2,85.4,150.5,85.7z"/>
				<path class="st1" d="M166.6,165.4c0.8,0,1.2-0.4,1.5-0.7c0.3-0.4,0.4-1,0.3-1.7c-0.2-0.6-0.6-1.2-1.1-1.5l-0.5-0.1
					c-0.8,0-1.3,0.4-1.5,0.7c-0.7,0.9-0.2,2.6,0.8,3.1L166.6,165.4z"/>
				<path class="st1" d="M156.7,25.6l-0.3,0.9l0,2.2l0.4,1.5l2,2.6l1.1,0.7l3.2,0.4c2.5-0.8,4.3-2.1,5.2-4l0-3.7l-0.7-1.3l-2.4-1.7
					l0.1-0.2c-3.7-2.2-6.5-0.1-7.6,0.8L156.7,25.6z"/>
				<path class="st1" d="M134.8,66.8l1.2-1.5c0.1-0.3,0.4-0.9,0.4-1.7l-0.7-1.5l-1.5-1.2c-0.3-0.1-0.9-0.4-1.8-0.4l-1.5,0.7
					l-1.2,1.5c-0.1,0.3-0.4,0.8-0.4,1.6l0.7,1.6l1.5,1.2c0.4,0.2,0.9,0.4,1.7,0.4L134.8,66.8z"/>
				<path class="st1" d="M118.2,33.1l-1.3-0.4c-1.5,0-2.6,0.6-3.3,1.8l-0.4,0.2l-0.9,0.8l-0.6,1.3l0.1,1.3c0.2,1,0.9,1.7,1.6,2.2
					c1.4,0.7,2.7,0.3,3.1,0.1l1.8-1.1l0.5-1c0.9-1,1.2-2.2,0.9-3.4l-0.7-1.1L118.2,33.1z"/>
				<path class="st1" d="M128.8,104.7c-0.7,0.5-0.9,1.3-0.5,2.3l1,0.5c2.2-0.3,2.2-1.7,2.2-2.2l-0.4-0.7
					C130.3,104.2,129.4,104.2,128.8,104.7z"/>
				<path class="st1" d="M159.7,59.7c1.9-0.5,3.6-2.5,3-4.7l-2.3-1.5l-0.2,0c-0.5-0.2-1-0.3-1.8-0.4l-2,1.5
					c-0.1,0.4-0.2,0.8-0.2,1.1l-0.8,1.4c0.3,1,0.9,1.8,1.8,2.3C158,59.8,158.9,59.9,159.7,59.7z"/>
				<path class="st1" d="M67,84.1l-1-0.9c-0.2-0.1-0.4-0.2-0.8-0.2l-0.9,1.1c-0.1,0.2-0.2,0.4-0.2,0.8l1,0.9
					c0.1,0.1,0.4,0.2,0.7,0.2l0.9-1C66.9,84.8,67,84.5,67,84.1z"/>
				<path class="st1" d="M201.5,50l0.9,0.1l2-0.4l0.4-0.4c1.4-0.2,2.3-1.1,3-2.3l0.2-1.2l-0.2-1.1c-0.5-1.9-1.9-3-4.6-3.2l-0.1,0.2
					l-0.9-0.3l-1.5,0.3l-1.5,1.2c-0.4,0.8-1,2.2-0.5,4.2c0.1,0.4,0.2,0.8,0.4,1.2l1,1L201.5,50z"/>
				<path class="st1" d="M137.4,17.2l-0.7-1.8l0-0.8l-0.2-0.8l-2.1-1.5c-1.2,0-2.3,0.6-2.9,1.4c-0.7,0.9-0.9,2-0.6,3.1
					c0.4,1.5,1.6,2.6,3,2.7C135.1,19.7,136.7,19.1,137.4,17.2z"/>
				<path class="st1" d="M82.2,154.7l-0.9,1c-0.1,0.1-0.2,0.4-0.2,0.7l1,0.9c0.2,0.1,0.4,0.2,0.8,0.2l0.9-1c0.1-0.1,0.2-0.4,0.2-0.8
					l-1-0.8C82.8,154.8,82.5,154.7,82.2,154.7z"/>
			</g>
			<g class="st2">
				<path class="st3" d="M41.6,91.7c-0.2-0.1-0.3-0.2-0.4-0.2l1.6,0.1l0.6-0.7l0.2-1c-0.2-0.6-0.6-1.1-1.2-1.2
					c-1.1-0.2-2.4,1-2.2,2.1c0.1,0.4,0.3,0.8,0.7,1L41.6,91.7z"/>
				<path class="st3" d="M160.6,184l-1.4-0.2c-1.1,0.2-2,0.6-2.7,1.3l-0.8,1.4l-0.5,2.2c0,0.3-0.1,1,0.1,1.8l0.9,1.2l1,0.7l1.5,0.4
					c1.2-0.1,2.3-0.6,3.2-1.5c1.4-1.6,1.7-4.1,0.7-5.9l-1-1L160.6,184z"/>
				<path class="st3" d="M136.3,113.1l0.1-0.1c0.7-0.8,0.8-1.7,0.3-2.7l-1.8,0c-0.4,0.4-0.9,1-0.7,1.8c0.1,0.3,0.3,0.8,0.9,1.2
					L136.3,113.1z"/>
				<path class="st3" d="M203.6,133l0,1.2c0,0.1,0.1,0.1,0.1,0.3c0.1,0.4,0.4,1,1.2,1.5l1.3-0.2l1.2-1.3l0-1.4
					c-0.7-0.8-1.4-1.1-2.1-1.1C204.9,132,204.2,132.1,203.6,133z"/>
				<path class="st3" d="M91.1,158c0.2,0.1,0.2,0.1,0.3,0.2c0.1,0.1,0.1,0.1,0.2,0.3l0.3,0.5l1.6,0.1l1.2-1.3l-0.6-1.7
					c0-0.1,0-0.3,0-0.4c0-0.4,0-1-0.6-1.4c-0.4-0.2-0.9-0.2-1.4,0.1l-0.3,1.5c0-0.1-0.1-0.4,0.1-0.8c-0.6,0.1-1.6,0.6-1.8,1.6
					l0.5,1.1L91.1,158z"/>
				<path class="st3" d="M91.3,176.1c0,0.3,0.2,1,1.2,1.2l0.4-0.3c0.3,0.1,0.8,0.3,1.4,0.2l0.8-1.1l-0.1-1.3l-0.9-0.9
					c-0.8,0-1.8,0.5-2.3,1C91.3,175.3,91.2,175.8,91.3,176.1z"/>
				<path class="st3" d="M138,144.4c0.9,0.1,1.4-0.2,1.7-0.5c0.9-0.9,0.7-2.7-0.3-3.5l-0.5-0.2c-0.9-0.1-1.4,0.2-1.7,0.5
					c-0.4,0.4-0.6,1.1-0.6,1.8c0.1,0.7,0.4,1.4,0.9,1.8L138,144.4z"/>
				<path class="st3" d="M97.5,219.2l-0.3,2.2l-0.8,0.2l-1.5-1.7c-1.6,1.4-1.7,3-1.6,3.8c0.2,2,1.7,3.2,2.7,4.1l0.5,0.4l2.4,0.4
					l1.7-0.7l1.3-2.1C101.9,220.4,98.8,219.4,97.5,219.2z"/>
				<path class="st3" d="M72.8,110.2c-0.1,0-0.2-0.1-0.3-0.3l1.9-0.4c0.1-1.1-0.4-1.6-0.7-1.8c-0.8-0.6-1.8-0.5-2.7-0.3l-0.8,0.8
					c0,0.2,0,0.4,0,0.6c0.1,1,0.9,1.5,2.3,1.4C72.5,110.2,72.7,110.2,72.8,110.2z"/>
				<path class="st3" d="M166.4,211.2l0.3,0.8c0.7,0.6,1.6,0.7,2.4,0.3c0.8-0.4,1.2-1.2,0.9-2.4l-0.9-0.8
					C166.7,209.2,166.5,210.7,166.4,211.2z"/>
				<path class="st3" d="M228.8,163.7c-0.2-0.1-0.4-0.3-0.8-0.4l-1.2,1c-0.1,0.2-0.3,0.4-0.4,0.9l1,1.1c0.2,0.1,0.4,0.3,0.8,0.3
					l1.1-1c0.1-0.2,0.3-0.4,0.3-0.8L228.8,163.7z"/>
				<path class="st3" d="M136.3,110.3l1.4,0c0.5-0.5,0.7-1.1,0.6-1.6c-0.1-0.6-0.4-1.1-1-1.6c-0.1-0.1-0.3-0.2-0.5-0.3l-1.2,0.2
					c-1.2,1.4-0.1,2.6,0.4,3.1L136.3,110.3z"/>
				<path class="st3" d="M60.2,133.9c0.4-0.1,0.7-0.4,0.9-0.7l-0.2-0.6c0,0.2-0.1,0.3-0.2,0.4l-0.1-1.5l-0.7-0.5l-0.9-0.1
					c-0.6,0.2-0.9,0.7-1,1.2C57.9,133,59.2,134.1,60.2,133.9z"/>
				<path class="st3" d="M84.5,208.7c-0.1,1,0,2.2,0.9,3.2l2.4,0.4l1.4-0.8l0.9-1.2l0.3-0.6c0.3-0.6,0.9-1.9,0.3-3.3
					c-0.3-0.9-1-1.6-1.9-2l-1.4,0l-1.1,0.4l-0.2,0.2l0-0.1l0-1.8c-0.1-0.3-0.2-1-0.7-1.7l-1.7-1l-2.3-0.1c-0.3,0.1-1.2,0.5-2.1,1.4
					l-0.2,0l-2.1,1.3c-0.8,2-0.1,4.3,1.7,5.6c1.3,1,3,1.3,4.5,1L84.5,208.7z"/>
				<path class="st3" d="M111.1,156.3l-0.9-0.1c-0.6,0.2-0.9,0.7-1,1.2c-0.1,1,1.1,2.2,2.2,1.9c0.4-0.1,0.7-0.4,0.9-0.7l-0.2-0.6
					c0,0.2-0.1,0.3-0.2,0.4l-0.1-1.5L111.1,156.3z"/>
				<path class="st3" d="M70.5,178.3l-0.9,1.8l0,1.6l0.9,1.8c1.4,1,3.2,1.1,4.9,0.4l-1.2-1.9c0.1,0,0.2,0,0.3-0.1L74,181
					c0.3-0.3,0.5-0.6,0.6-0.9l-1.9-1.1l0,0l0,0l-1.9-1.1C70.7,178.1,70.7,178.1,70.5,178.3z"/>
				<path class="st3" d="M157.4,199.5c-0.6-0.4-1.4-0.5-2-0.4c-0.6,0.1-1.1,0.4-1.3,0.8l0.2,1.3l1.7,1.2l1.2-0.1
					c0.6-0.6,0.9-1.1,0.9-1.7C158,200.2,157.8,199.8,157.4,199.5L157.4,199.5z"/>
				<path class="st3" d="M116.2,216.9l-0.3-1.2l-0.8-1.3l-2.4-1.7l-1.4-0.4l-1.2,0.1l-1.3,0.5c-2.2,2-2.4,4.4-0.7,7.1l1.1,0.7
					l-0.1,0.8l0.2,1.3l0.3,0.5l-0.1,0l9.8-1.4c-0.3-1.7-1.7-3-3.2-3.8L116.2,216.9z"/>
				<path class="st3" d="M151.4,169.5c-0.1-0.2-0.1-0.3-0.2-0.5c-0.1-0.3-0.2-0.8-0.6-1c-0.5-0.3-1-0.2-1.4-0.1l-0.7,0.8
					c-0.1,0.7-0.2,1.7,0.6,2.2s1.7-0.1,2-0.2L151.4,169.5z"/>
				<path class="st3" d="M88.6,161l-0.6-1.1l-0.8-0.7l-1.1-0.6c-1-0.2-1.9,0-2.6,0.5l-1,1l-1,1.8c-0.1,0.3-0.4,0.9-0.4,1.6l0.4,1.3
					l0.7,0.9l1.2,0.7c1.1,0.3,2.2,0.1,3.1-0.5C88,164.9,88.9,162.8,88.6,161z"/>
				<path class="st3" d="M82.5,90.3c0,0.3,0,0.8,0.5,1.2l1.1,0.2l0.1-0.1c0.8-0.5,1.1-1.3,0.9-2.2L83.6,89
					C83.2,89.3,82.6,89.6,82.5,90.3z"/>
				<path class="st3" d="M138.8,129l1.4-0.8l0.3-1.2c-0.4-0.8-0.9-1.3-1.5-1.5c-0.4-0.1-1-0.2-1.8,0.5l-0.3,1c0,0.1,0,0.1,0,0.3
					c0,0.4,0.1,1,0.7,1.6L138.8,129z"/>
				<path class="st3" d="M92.5,213l-2.2-0.8l-1-0.1l-2.3,0.5l-0.8,0.5c-3.6,2.2-3.8,5.8-2.5,8.2l2,1.8l1,0.4l3.3,0
					c0.8-0.2,1.7-0.4,2.7-1c1.5-1,2.5-2.6,2.6-4.3C95.4,216.3,94.4,214.5,92.5,213z"/>
				<path class="st3" d="M75.2,193.2l0-0.1c1-1.4,0.8-2.6,0.6-3.3l-1-1.2l-1.1-0.6l-1.5-0.1c-0.3,0-0.9,0.1-1.5,0.5
					c-0.7,0.5-1.3,1.2-1.6,2.2l0,1.3l0.7,1.7c1.2,1.4,2.9,1.8,4.4,0.9L75.2,193.2z"/>
				<path class="st3" d="M104.8,203.6c-0.5-1.6-1.9-2.6-3.7-2.5l-1.7,1l-0.6,1l-0.1-0.1c-1.7,1.7-1.3,3.4-0.6,4.8l0.9,0.8
					c1.2,0.6,2.6,0.6,3.8-0.1C104.2,207.5,105.4,205.5,104.8,203.6z"/>
				<path class="st3" d="M134.3,197.3l0.7-1.8c0.1-0.4,0.1-1-0.1-1.8l-1.2-1.2l-1.7-0.7c-0.3,0-1-0.2-1.9,0.2l-1.2,1.2l-0.6,1.7
					c0,0.3-0.2,0.9,0.1,1.8l1.2,1.3l1.8,0.7c0.3,0,1,0.1,1.8-0.2L134.3,197.3z"/>
				<path class="st3" d="M105.8,130.4c-0.5,0.2-0.9,0.5-1.1,1c-0.4,0.8-0.1,1.6,0.6,2l1.2-0.5c0-0.1,0.1-0.1,0.1-0.2l-0.7-0.3
					l0.8,0.1c0.2-0.3,0.6-1.3-0.2-1.9L105.8,130.4z"/>
				<path class="st3" d="M140.6,211.4l-0.8-2.9l0.1-0.3c-0.1,0-0.1,0-0.2,0l-0.1-0.2l-0.2,0.1c0,0-0.1-0.1-0.1-0.1l-4.4,1.4
					c0.5,1.6,1.9,2.7,3.6,3.2l0.4,1c0.2,0.1,0.3,0.2,0.5,0.5l1.4,0.1c0,0,0.1-0.1,0.2-0.2c0.2-0.2,0.5-0.4,0.8-0.9
					c0.1-0.2,0.1-0.3,0.2-0.5l-0.4-0.9C141.3,211.4,141,211.4,140.6,211.4z"/>
				<path class="st3" d="M99.4,179.7c-0.6,0-0.9,0.3-1,0.6l-0.1,0.5c0.2,1.1,0.8,1.3,1.1,1.3c0.7,0.1,1.4-0.5,1.7-1.2
					c0.4-0.8,0-1.3-0.1-1.4c-0.3-0.3-0.7-0.5-1.6-0.1L99.4,179.7z"/>
				<path class="st3" d="M187.9,181.5l-1.1,0.3c-0.1,0.1-0.4,0.2-0.6,0.4l0.3,1.3c-0.2-0.1-0.2-0.2-0.2-0.3c0,0.2,0,0.8,0.5,1.2
					l1.2-0.1c0,0,0.1-0.1,0.2-0.2c0.2-0.2,0.5-0.4,0.8-0.9c0.1-0.1,0.1-0.3,0.2-0.4l-0.5-1L187.9,181.5z"/>
				<path class="st3" d="M135,157.6c-0.1,0.1-0.4,0.2-0.6,0.4l0.2,1.2c0.1,0.1,0.2,0.4,0.4,0.6l1.2-0.2c0.1-0.1,0.4-0.2,0.6-0.4
					l-0.2-1.2c-0.1-0.1-0.2-0.4-0.5-0.6L135,157.6z"/>
				<path class="st3" d="M80.3,136.6c0.3-0.1,0.7-0.3,1-1l0.1-0.3l-0.4-1c-0.5-0.3-1.1-0.4-1.5-0.3c-0.3,0.1-0.7,0.3-1,1l-0.1,0.2
					l0.4,1C79.3,136.7,79.8,136.8,80.3,136.6z"/>
			</g>
		</g>
	</g>
	<g>
		<path class="st3" d="M86.3,33c-10.1-5.7-20.3-11-30.7-16c-10.4-4.9-21-9.6-32-13C20.8,3.2,18,2.5,15.2,2c-2.8-0.5-5.7-0.8-8.4-0.4
			C5.5,1.8,4.2,2.2,3.2,3c-1,0.8-1.5,2-1.7,3.3c-0.3,2.6,0.6,5.4,1.6,8c2.2,5.3,5.2,10.2,8.4,14.9c3.2,4.7,6.7,9.3,10.4,13.8
			c14.6,17.8,31.2,33.9,48.7,48.9c17.5,14.9,36.1,28.6,55.6,41c19.4,12.4,39.7,23.4,60.9,32.5c21.1,9.2,43.1,16.5,65.5,21.5l4.2,0.9
			l4.2,0.8c2.8,0.6,5.6,1,8.5,1.4c5.7,0.8,11.4,1.4,17.2,1.6c2.9,0.1,5.7,0.1,8.6-0.2c2.8-0.3,5.7-0.7,8.1-2
			c1.2-0.6,2.1-1.6,2.4-2.8c0.3-1.2-0.1-2.5-0.6-3.8c-1.2-2.5-3.2-4.6-5.2-6.6c-4.1-4-8.7-7.5-13.3-10.9c-4.6-3.4-9.4-6.7-14.3-9.7
			c-9.8-6-20.1-11.3-30.5-16.4c10.5,4.9,20.8,10,30.8,15.8c5,2.9,9.8,6.1,14.5,9.5c4.7,3.4,9.4,6.8,13.6,10.9c2.1,2.1,4.1,4.2,5.4,7
			c0.7,1.3,1.1,3,0.8,4.6c-0.4,1.7-1.7,2.9-3,3.6c-1.4,0.8-2.8,1.2-4.2,1.5c-1.4,0.3-2.9,0.5-4.4,0.7c-2.9,0.3-5.8,0.3-8.7,0.3
			c-5.8-0.1-11.6-0.7-17.3-1.5c-2.9-0.4-5.7-0.8-8.6-1.4l-4.3-0.8l-4.3-0.9c-5.7-1.2-11.3-2.5-16.9-4c-5.6-1.5-11.1-3.2-16.7-4.9
			c-11-3.6-21.8-7.7-32.5-12.3c-21.3-9.2-41.7-20.1-61.3-32.5c-19.5-12.4-38.2-26.3-55.7-41.3C60.5,86,51.9,78.1,43.8,69.9
			c-8.2-8.2-16-16.7-23.3-25.8c-3.6-4.5-7.1-9.2-10.3-14C7,25.3,3.9,20.3,1.7,14.9c-0.5-1.4-1-2.8-1.3-4.2c-0.3-1.5-0.5-3-0.3-4.6
			C0.3,4.5,1,2.9,2.3,1.9c1.3-1,2.8-1.5,4.3-1.7c3-0.4,6,0,8.8,0.5c2.9,0.6,5.7,1.3,8.4,2.2c5.5,1.7,10.9,3.9,16.2,6.2
			c5.3,2.3,10.5,4.8,15.7,7.4C66.2,21.7,76.3,27.2,86.3,33z"/>
	</g>
</g>
</svg>
